<?xml version="1.0" encoding="utf-8"?>
<!-- Generator: Adobe Illustrator 21.1.0, SVG Export Plug-In . SVG Version: 6.00 Build 0)  -->
<!DOCTYPE svg PUBLIC "-//W3C//DTD SVG 1.1//EN" "http://www.w3.org/Graphics/SVG/1.1/DTD/svg11.dtd">
<svg version="1.1" xmlns="http://www.w3.org/2000/svg" xmlns:xlink="http://www.w3.org/1999/xlink" x="0px" y="0px"
	 viewBox="0 0 194.9 170.4" style="enable-background:new 0 0 194.9 170.4;" xml:space="preserve">
<style type="text/css">
	.st0{fill:#FFFFFF;}
	.st1{fill:#3AA47D;}
	.st2{fill:#373E49;}
	.st3{fill:url(#SVGID_1_);}
	.st4{fill:none;stroke:#FFFFFF;stroke-width:0.9001;stroke-miterlimit:10;}
	.st5{fill:#2F5597;}
	.st6{fill:#7F6000;}
	.st7{fill:#B5B5B5;}
	.st8{fill:none;stroke:#ADADAD;stroke-width:9.554537e-02;stroke-miterlimit:10;}
	.st9{fill:#525252;}
	.st10{fill:#9C9C9C;}
	.st11{fill:#424242;}
	.st12{fill:#006AFF;}
	.st13{fill:#C96522;}
	.st14{fill:#C5E0B4;}
	.st15{fill:none;stroke:#FF0000;stroke-width:0.637;stroke-miterlimit:10;}
	.st16{fill:none;stroke:#0066FF;stroke-width:0.637;stroke-miterlimit:10;}
	.st17{fill:#0066FF;}
	.st18{fill:none;stroke:#FFC000;stroke-width:0.637;stroke-miterlimit:10;}
	.st19{fill:#FFC000;}
	.st20{fill:none;stroke:#00B050;stroke-width:0.637;stroke-miterlimit:10;}
	.st21{fill:none;stroke:#9DC3E6;stroke-width:0.637;stroke-miterlimit:10;}
	.st22{fill:#9DC3E6;}
	.st23{fill:url(#SVGID_2_);}
	.st24{fill:none;stroke:#FF2727;stroke-width:1.32;stroke-linecap:round;stroke-miterlimit:10;}
	.st25{fill:none;stroke:#2881FF;stroke-width:1.32;stroke-miterlimit:10;}
	.st26{fill:none;stroke:#5B7AAF;stroke-width:1.32;stroke-miterlimit:10;}
	.st27{fill:none;stroke:#BDD7EF;stroke-width:1.32;stroke-miterlimit:10;}
	.st28{fill:none;stroke:#2CC472;stroke-width:1.32;stroke-linecap:round;stroke-miterlimit:10;}
	.st29{fill:none;stroke:#FFC000;stroke-width:1.32;stroke-miterlimit:10;}
	.st30{fill:none;stroke:#21BF69;stroke-width:1.32;stroke-linecap:round;stroke-miterlimit:10;}
	.st31{fill:none;stroke:#A2883A;stroke-width:1.32;stroke-miterlimit:10;}
	.st32{fill:none;stroke:#997F2C;stroke-width:1.32;stroke-miterlimit:10;}
	.st33{fill:none;stroke:#FF5656;stroke-width:1.32;stroke-linecap:round;stroke-miterlimit:10;}
	.st34{fill:url(#SVGID_3_);}
	.st35{fill:none;stroke:#FF2727;stroke-width:0.9775;stroke-linecap:round;stroke-miterlimit:10;}
	.st36{fill:none;stroke:#2881FF;stroke-width:0.9775;stroke-miterlimit:10;}
	.st37{fill:none;stroke:#5B7AAF;stroke-width:0.9775;stroke-miterlimit:10;}
	.st38{fill:none;stroke:#BDD7EF;stroke-width:0.9775;stroke-miterlimit:10;}
	.st39{fill:none;stroke:#2CC472;stroke-width:0.9775;stroke-linecap:round;stroke-miterlimit:10;}
	.st40{fill:none;stroke:#FFC000;stroke-width:0.9775;stroke-miterlimit:10;}
	.st41{fill:none;stroke:#C96522;stroke-miterlimit:10;}
</style>
<g id="Layer_2">
</g>
<g id="Layer_4">
</g>
<g id="Layer_5">
	<g id="Layer_4_1_">
		<g>
			<path class="st0" d="M21.3,149.2h-1.4V142h-1.7v-1l3.2-0.3v8.5H21.3z"/>
		</g>
	</g>
	<g id="Layer_5_1_">
		<g>
			<g>
				<g>
					<path class="st1" d="M71,65v-4.6c0-0.5,0.4-0.9,0.9-0.9s0.9,0.4,0.9,0.9V65c0,0.5-0.4,0.9-0.9,0.9S71,65.5,71,65z"/>
				</g>
				<g>
					<path class="st1" d="M60,65v-5c0-0.5,0.4-0.9,0.9-0.9s0.9,0.4,0.9,0.9v5c0,0.5-0.4,0.9-0.9,0.9C60.5,65.9,60,65.5,60,65z"/>
				</g>
				<g>
					<path class="st1" d="M52.7,65v-7.8c0-0.5,0.4-0.9,0.9-0.9s0.9,0.4,0.9,0.9V65c0,0.5-0.4,0.9-0.9,0.9
						C53.1,65.9,52.7,65.5,52.7,65z"/>
				</g>
				<g>
					<path class="st1" d="M34.4,65v-6.4c0-0.5,0.4-0.9,0.9-0.9s0.9,0.4,0.9,0.9V65c0,0.5-0.4,0.9-0.9,0.9S34.4,65.5,34.4,65z"/>
				</g>
				<g>
					<path class="st1" d="M74.7,76.4v-6.9c0-0.5,0.4-0.9,0.9-0.9s0.9,0.4,0.9,0.9v6.9c0,0.5-0.4,0.9-0.9,0.9
						C75.1,77.4,74.7,76.9,74.7,76.4z"/>
				</g>
				<g>
					<path class="st1" d="M56.4,76.9v-7.3c0-0.5,0.4-0.9,0.9-0.9s0.9,0.4,0.9,0.9v7.3c0,0.5-0.4,0.9-0.9,0.9S56.4,77.4,56.4,76.9z"
						/>
				</g>
				<g>
					<path class="st1" d="M49.1,75.1v-5.5c0-0.5,0.4-0.9,0.9-0.9s0.9,0.4,0.9,0.9v5.5c0,0.5-0.4,0.9-0.9,0.9S49.1,75.6,49.1,75.1z"
						/>
				</g>
				<g>
					<path class="st1" d="M38.1,73.2v-3.7c0-0.5,0.4-0.9,0.9-0.9s0.9,0.4,0.9,0.9v3.7c0,0.5-0.4,0.9-0.9,0.9S38.1,73.7,38.1,73.2z"
						/>
				</g>
				<g>
					<g>
						<g>
							<path class="st2" d="M55,58.6c3.5,0,7,4.4,8.9,7.3c0.3-0.6,0.9-1.5,1.6-2.6c-2.1-3.1-5.9-7.5-10.5-7.5
								c-4.5,0-8.4,4.4-10.5,7.5c0.7,1.1,1.3,2,1.6,2.6C48,63,51.5,58.6,55,58.6z"/>
						</g>
						<g>
							<path class="st2" d="M68.4,69c-0.1,0.3-0.6,1.1-1.3,2.2c2.2,3,5.7,6.6,9.8,6.6c0.8,0,1.4-0.6,1.4-1.4S77.7,75,76.9,75
								c-3.2,0-6.4-3.6-8.3-6.5C68.6,68.7,68.5,68.9,68.4,69z"/>
						</g>
						<g>
							<path class="st2" d="M42.9,71.2c-0.7-1.1-1.1-1.9-1.3-2.2c-0.1-0.1-0.1-0.3-0.2-0.4c-1.9,2.8-5.1,6.5-8.3,6.5
								c-0.8,0-1.4,0.6-1.4,1.4s0.6,1.4,1.4,1.4C37.2,77.8,40.7,74.2,42.9,71.2z"/>
						</g>
					</g>
					<g>
						<path class="st2" d="M31.7,58.1c0-0.8,0.6-1.4,1.4-1.4c6.8,0,12,9.9,12.2,10.4c1.3,2.5,5.5,8.9,9.8,8.9s8.5-6.4,9.8-8.9
							c0.2-0.4,5.4-10.4,12.2-10.4c0.8,0,1.4,0.6,1.4,1.4c0,0.8-0.6,1.4-1.4,1.4c-4.3,0-8.5,6.4-9.8,8.9
							c-0.2,0.4-5.4,10.4-12.2,10.4c-6.8,0-12-9.9-12.2-10.4c-1.3-2.5-5.5-8.9-9.8-8.9C32.3,59.5,31.7,58.9,31.7,58.1z"/>
					</g>
				</g>
				<g>
					<path class="st2" d="M74.7,65v-6.9c0-0.5,0.4-0.9,0.9-0.9s0.9,0.4,0.9,0.9V65c0,0.5-0.4,0.9-0.9,0.9
						C75.1,65.9,74.7,65.5,74.7,65z"/>
				</g>
				<g>
					<path class="st2" d="M67.4,65v-0.9c0-0.5,0.4-0.9,0.9-0.9s0.9,0.4,0.9,0.9V65c0,0.5-0.4,0.9-0.9,0.9S67.4,65.5,67.4,65z"/>
				</g>
				<g>
					<path class="st2" d="M56.4,65v-7.3c0-0.5,0.4-0.9,0.9-0.9s0.9,0.4,0.9,0.9V65c0,0.5-0.4,0.9-0.9,0.9S56.4,65.5,56.4,65z"/>
				</g>
				<g>
					<path class="st2" d="M49.1,65v-5.5c0-0.5,0.4-0.9,0.9-0.9s0.9,0.4,0.9,0.9V65c0,0.5-0.4,0.9-0.9,0.9S49.1,65.5,49.1,65z"/>
				</g>
				<g>
					<path class="st2" d="M38.1,65v-3.7c0-0.5,0.4-0.9,0.9-0.9s0.9,0.4,0.9,0.9V65c0,0.5-0.4,0.9-0.9,0.9S38.1,65.5,38.1,65z"/>
				</g>
				<g>
					<path class="st2" d="M71,74.2v-4.6c0-0.5,0.4-0.9,0.9-0.9s0.9,0.4,0.9,0.9v4.6c0,0.5-0.4,0.9-0.9,0.9S71,74.7,71,74.2z"/>
				</g>
				<g>
					<path class="st2" d="M60,74.6v-5c0-0.5,0.4-0.9,0.9-0.9s0.9,0.4,0.9,0.9v5c0,0.5-0.4,0.9-0.9,0.9C60.5,75.5,60,75.1,60,74.6z"
						/>
				</g>
				<g>
					<path class="st2" d="M52.7,77.4v-7.8c0-0.5,0.4-0.9,0.9-0.9s0.9,0.4,0.9,0.9v7.8c0,0.5-0.4,0.9-0.9,0.9
						C53.1,78.3,52.7,77.9,52.7,77.4z"/>
				</g>
				<g>
					<path class="st2" d="M45.4,71v-1.4c0-0.5,0.4-0.9,0.9-0.9s0.9,0.4,0.9,0.9V71c0,0.5-0.4,0.9-0.9,0.9S45.4,71.5,45.4,71z"/>
				</g>
				<g>
					<path class="st2" d="M34.4,76v-6.4c0-0.5,0.4-0.9,0.9-0.9s0.9,0.4,0.9,0.9V76c0,0.5-0.4,0.9-0.9,0.9S34.4,76.5,34.4,76z"/>
				</g>
				<g>
					<path class="st1" d="M116.1,65v-4.6c0-0.5,0.4-0.9,0.9-0.9s0.9,0.4,0.9,0.9V65c0,0.5-0.4,0.9-0.9,0.9S116.1,65.5,116.1,65z"/>
				</g>
				<g>
					<path class="st1" d="M105.1,65v-5c0-0.5,0.4-0.9,0.9-0.9s0.9,0.4,0.9,0.9v5c0,0.5-0.4,0.9-0.9,0.9S105.1,65.5,105.1,65z"/>
				</g>
				<g>
					<path class="st1" d="M97.8,65v-7.8c0-0.5,0.4-0.9,0.9-0.9s0.9,0.4,0.9,0.9V65c0,0.5-0.4,0.9-0.9,0.9S97.8,65.5,97.8,65z"/>
				</g>
				<g>
					<path class="st1" d="M79.5,65v-6.4c0-0.5,0.4-0.9,0.9-0.9s0.9,0.4,0.9,0.9V65c0,0.5-0.4,0.9-0.9,0.9S79.5,65.5,79.5,65z"/>
				</g>
				<g>
					<path class="st1" d="M119.7,76.4v-6.9c0-0.5,0.4-0.9,0.9-0.9s0.9,0.4,0.9,0.9v6.9c0,0.5-0.4,0.9-0.9,0.9
						C120.1,77.4,119.7,76.9,119.7,76.4z"/>
				</g>
				<g>
					<path class="st1" d="M101.4,76.9v-7.3c0-0.5,0.4-0.9,0.9-0.9s0.9,0.4,0.9,0.9v7.3c0,0.5-0.4,0.9-0.9,0.9S101.4,77.4,101.4,76.9
						z"/>
				</g>
				<g>
					<path class="st1" d="M94.1,75.1v-5.5c0-0.5,0.4-0.9,0.9-0.9s0.9,0.4,0.9,0.9v5.5c0,0.5-0.4,0.9-0.9,0.9S94.1,75.6,94.1,75.1z"
						/>
				</g>
				<g>
					<path class="st1" d="M83.1,73.2v-3.7c0-0.5,0.4-0.9,0.9-0.9s0.9,0.4,0.9,0.9v3.7c0,0.5-0.4,0.9-0.9,0.9
						C83.5,74.2,83.1,73.7,83.1,73.2z"/>
				</g>
				<g>
					<g>
						<g>
							<path class="st2" d="M100.1,58.6c3.5,0,7,4.4,8.9,7.3c0.3-0.6,0.9-1.5,1.6-2.6c-2.1-3.1-5.9-7.5-10.5-7.5
								c-4.5,0-8.4,4.4-10.5,7.5c0.7,1.1,1.3,2,1.6,2.6C93,63,96.5,58.6,100.1,58.6z"/>
						</g>
						<g>
							<path class="st2" d="M113.5,69c-0.1,0.3-0.6,1.1-1.3,2.2c2.2,3,5.7,6.6,9.8,6.6c0.8,0,1.4-0.6,1.4-1.4S122.8,75,122,75
								c-3.2,0-6.4-3.6-8.3-6.5C113.6,68.7,113.6,68.9,113.5,69z"/>
						</g>
						<g>
							<path class="st2" d="M87.9,71.2c-0.7-1.1-1.1-1.9-1.3-2.2c-0.1-0.1-0.1-0.3-0.2-0.4c-1.9,2.8-5.1,6.5-8.3,6.5
								c-0.8,0-1.4,0.6-1.4,1.4s0.6,1.4,1.4,1.4C82.2,77.8,85.7,74.2,87.9,71.2z"/>
						</g>
					</g>
					<g>
						<path class="st2" d="M76.7,58.1c0-0.8,0.6-1.4,1.4-1.4c6.8,0,12,9.9,12.2,10.4c1.3,2.5,5.5,8.9,9.8,8.9s8.5-6.4,9.8-8.9
							c0.2-0.4,5.4-10.4,12.2-10.4c0.8,0,1.4,0.6,1.4,1.4c0,0.8-0.6,1.4-1.4,1.4c-4.3,0-8.5,6.4-9.8,8.9
							c-0.2,0.4-5.4,10.4-12.2,10.4c-6.8,0-12-9.9-12.2-10.4c-1.3-2.5-5.5-8.9-9.8-8.9C77.3,59.5,76.7,58.9,76.7,58.1z"/>
					</g>
				</g>
				<g>
					<path class="st2" d="M119.7,65v-6.9c0-0.5,0.4-0.9,0.9-0.9s0.9,0.4,0.9,0.9V65c0,0.5-0.4,0.9-0.9,0.9
						C120.1,65.9,119.7,65.5,119.7,65z"/>
				</g>
				<g>
					<path class="st2" d="M112.4,65v-0.9c0-0.5,0.4-0.9,0.9-0.9s0.9,0.4,0.9,0.9V65c0,0.5-0.4,0.9-0.9,0.9S112.4,65.5,112.4,65z"/>
				</g>
				<g>
					<path class="st2" d="M101.4,65v-7.3c0-0.5,0.4-0.9,0.9-0.9s0.9,0.4,0.9,0.9V65c0,0.5-0.4,0.9-0.9,0.9S101.4,65.5,101.4,65z"/>
				</g>
				<g>
					<path class="st2" d="M94.1,65v-5.5c0-0.5,0.4-0.9,0.9-0.9s0.9,0.4,0.9,0.9V65c0,0.5-0.4,0.9-0.9,0.9S94.1,65.5,94.1,65z"/>
				</g>
				<g>
					<path class="st2" d="M83.1,65v-3.7c0-0.5,0.4-0.9,0.9-0.9s0.9,0.4,0.9,0.9V65c0,0.5-0.4,0.9-0.9,0.9S83.1,65.5,83.1,65z"/>
				</g>
				<g>
					<path class="st2" d="M116.1,74.2v-4.6c0-0.5,0.4-0.9,0.9-0.9s0.9,0.4,0.9,0.9v4.6c0,0.5-0.4,0.9-0.9,0.9S116.1,74.7,116.1,74.2
						z"/>
				</g>
				<g>
					<path class="st2" d="M105.1,74.6v-5c0-0.5,0.4-0.9,0.9-0.9s0.9,0.4,0.9,0.9v5c0,0.5-0.4,0.9-0.9,0.9S105.1,75.1,105.1,74.6z"/>
				</g>
				<g>
					<path class="st2" d="M97.8,77.4v-7.8c0-0.5,0.4-0.9,0.9-0.9s0.9,0.4,0.9,0.9v7.8c0,0.5-0.4,0.9-0.9,0.9S97.8,77.9,97.8,77.4z"
						/>
				</g>
				<g>
					<path class="st2" d="M90.5,71v-1.4c0-0.5,0.4-0.9,0.9-0.9s0.9,0.4,0.9,0.9V71c0,0.5-0.4,0.9-0.9,0.9S90.5,71.5,90.5,71z"/>
				</g>
				<g>
					<path class="st2" d="M79.5,76v-6.4c0-0.5,0.4-0.9,0.9-0.9s0.9,0.4,0.9,0.9V76c0,0.5-0.4,0.9-0.9,0.9S79.5,76.5,79.5,76z"/>
				</g>
				<g>
					<path class="st1" d="M161.1,65v-4.6c0-0.5,0.4-0.9,0.9-0.9s0.9,0.4,0.9,0.9V65c0,0.5-0.4,0.9-0.9,0.9S161.1,65.5,161.1,65z"/>
				</g>
				<g>
					<path class="st1" d="M150.1,65v-5c0-0.5,0.4-0.9,0.9-0.9s0.9,0.4,0.9,0.9v5c0,0.5-0.4,0.9-0.9,0.9
						C150.6,65.9,150.1,65.5,150.1,65z"/>
				</g>
				<g>
					<path class="st1" d="M142.8,65v-7.8c0-0.5,0.4-0.9,0.9-0.9s0.9,0.4,0.9,0.9V65c0,0.5-0.4,0.9-0.9,0.9S142.8,65.5,142.8,65z"/>
				</g>
				<g>
					<path class="st1" d="M124.5,65v-6.4c0-0.5,0.4-0.9,0.9-0.9s0.9,0.4,0.9,0.9V65c0,0.5-0.4,0.9-0.9,0.9S124.5,65.5,124.5,65z"/>
				</g>
				<g>
					<path class="st1" d="M164.8,76.4v-6.9c0-0.5,0.4-0.9,0.9-0.9s0.9,0.4,0.9,0.9v6.9c0,0.5-0.4,0.9-0.9,0.9S164.8,76.9,164.8,76.4
						z"/>
				</g>
				<g>
					<path class="st1" d="M146.5,76.9v-7.3c0-0.5,0.4-0.9,0.9-0.9s0.9,0.4,0.9,0.9v7.3c0,0.5-0.4,0.9-0.9,0.9S146.5,77.4,146.5,76.9
						z"/>
				</g>
				<g>
					<path class="st1" d="M139.2,75.1v-5.5c0-0.5,0.4-0.9,0.9-0.9s0.9,0.4,0.9,0.9v5.5c0,0.5-0.4,0.9-0.9,0.9
						C139.6,76,139.2,75.6,139.2,75.1z"/>
				</g>
				<g>
					<path class="st1" d="M128.2,73.2v-3.7c0-0.5,0.4-0.9,0.9-0.9s0.9,0.4,0.9,0.9v3.7c0,0.5-0.4,0.9-0.9,0.9
						C128.6,74.2,128.2,73.7,128.2,73.2z"/>
				</g>
				<g>
					<g>
						<g>
							<path class="st2" d="M145.1,58.6c3.5,0,7,4.4,8.9,7.3c0.3-0.6,0.9-1.5,1.6-2.6c-2.1-3.1-5.9-7.5-10.5-7.5
								c-4.5,0-8.4,4.4-10.5,7.5c0.7,1.1,1.3,2,1.6,2.6C138.1,63,141.6,58.6,145.1,58.6z"/>
						</g>
						<g>
							<path class="st2" d="M158.5,69c-0.1,0.3-0.6,1.1-1.3,2.2c2.2,3,5.7,6.6,9.8,6.6c0.8,0,1.4-0.6,1.4-1.4S167.8,75,167,75
								c-3.2,0-6.4-3.6-8.3-6.5C158.7,68.7,158.6,68.9,158.5,69z"/>
						</g>
						<g>
							<path class="st2" d="M133,71.2c-0.7-1.1-1.1-1.9-1.3-2.2c-0.1-0.1-0.1-0.3-0.2-0.4c-1.9,2.8-5.1,6.5-8.3,6.5
								c-0.8,0-1.4,0.6-1.4,1.4s0.6,1.4,1.4,1.4C127.3,77.8,130.8,74.2,133,71.2z"/>
						</g>
					</g>
					<g>
						<path class="st2" d="M121.8,58.1c0-0.8,0.6-1.4,1.4-1.4c6.8,0,12,9.9,12.2,10.4c1.3,2.5,5.5,8.9,9.8,8.9s8.5-6.4,9.8-8.9
							c0.2-0.4,5.4-10.4,12.2-10.4c0.8,0,1.4,0.6,1.4,1.4c0,0.8-0.6,1.4-1.4,1.4c-4.3,0-8.5,6.4-9.8,8.9
							c-0.2,0.4-5.4,10.4-12.2,10.4c-6.8,0-12-9.9-12.2-10.4c-1.3-2.5-5.5-8.9-9.8-8.9C122.4,59.5,121.8,58.9,121.8,58.1z"/>
					</g>
				</g>
				<g>
					<path class="st2" d="M164.8,65v-6.9c0-0.5,0.4-0.9,0.9-0.9s0.9,0.4,0.9,0.9V65c0,0.5-0.4,0.9-0.9,0.9S164.8,65.5,164.8,65z"/>
				</g>
				<g>
					<path class="st2" d="M157.5,65v-0.9c0-0.5,0.4-0.9,0.9-0.9s0.9,0.4,0.9,0.9V65c0,0.5-0.4,0.9-0.9,0.9S157.5,65.5,157.5,65z"/>
				</g>
				<g>
					<path class="st2" d="M146.5,65v-7.3c0-0.5,0.4-0.9,0.9-0.9s0.9,0.4,0.9,0.9V65c0,0.5-0.4,0.9-0.9,0.9S146.5,65.5,146.5,65z"/>
				</g>
				<g>
					<path class="st2" d="M139.2,65v-5.5c0-0.5,0.4-0.9,0.9-0.9s0.9,0.4,0.9,0.9V65c0,0.5-0.4,0.9-0.9,0.9
						C139.6,65.9,139.2,65.5,139.2,65z"/>
				</g>
				<g>
					<path class="st2" d="M128.2,65v-3.7c0-0.5,0.4-0.9,0.9-0.9s0.9,0.4,0.9,0.9V65c0,0.5-0.4,0.9-0.9,0.9
						C128.6,65.9,128.2,65.5,128.2,65z"/>
				</g>
				<g>
					<path class="st2" d="M161.1,74.2v-4.6c0-0.5,0.4-0.9,0.9-0.9s0.9,0.4,0.9,0.9v4.6c0,0.5-0.4,0.9-0.9,0.9S161.1,74.7,161.1,74.2
						z"/>
				</g>
				<g>
					<path class="st2" d="M150.1,74.6v-5c0-0.5,0.4-0.9,0.9-0.9s0.9,0.4,0.9,0.9v5c0,0.5-0.4,0.9-0.9,0.9
						C150.6,75.5,150.1,75.1,150.1,74.6z"/>
				</g>
				<g>
					<path class="st2" d="M142.8,77.4v-7.8c0-0.5,0.4-0.9,0.9-0.9s0.9,0.4,0.9,0.9v7.8c0,0.5-0.4,0.9-0.9,0.9S142.8,77.9,142.8,77.4
						z"/>
				</g>
				<g>
					<path class="st2" d="M135.5,71v-1.4c0-0.5,0.4-0.9,0.9-0.9s0.9,0.4,0.9,0.9V71c0,0.5-0.4,0.9-0.9,0.9S135.5,71.5,135.5,71z"/>
				</g>
				<g>
					<path class="st2" d="M124.5,76v-6.4c0-0.5,0.4-0.9,0.9-0.9s0.9,0.4,0.9,0.9V76c0,0.5-0.4,0.9-0.9,0.9S124.5,76.5,124.5,76z"/>
				</g>
			</g>
			
				<linearGradient id="SVGID_1_" gradientUnits="userSpaceOnUse" x1="-954.3587" y1="-979.0875" x2="-915.6587" y2="-979.0875" gradientTransform="matrix(0 -1 -1 0 -880.8463 -783.7587)">
				<stop  offset="0" style="stop-color:#1C3952"/>
				<stop  offset="1" style="stop-color:#15CD94"/>
			</linearGradient>
			<rect x="0.8" y="131.9" class="st3" width="194.9" height="38.7"/>
			<g>
				<path class="st0" d="M36.6,148.2v-7.1h2c0.6,0,1.2,0.1,1.6,0.4c0.5,0.3,0.8,0.7,1.1,1.2s0.4,1.1,0.4,1.7v0.5
					c0,0.7-0.1,1.3-0.4,1.8c-0.3,0.5-0.6,0.9-1.1,1.2s-1,0.4-1.7,0.4L36.6,148.2L36.6,148.2z M37.5,141.9v5.6h1
					c0.7,0,1.3-0.2,1.7-0.7s0.6-1.1,0.6-1.9v-0.4c0-0.8-0.2-1.4-0.6-1.9c-0.4-0.4-0.9-0.7-1.6-0.7L37.5,141.9L37.5,141.9z"/>
				<path class="st0" d="M48.6,148.2h-0.9l-3.6-5.5v5.5h-0.9v-7.1h0.9l3.6,5.5v-5.5h0.9V148.2z"/>
				<path class="st0" d="M54.2,146.4h-3l-0.7,1.9h-1l2.7-7.1H53l2.7,7.1h-1L54.2,146.4z M51.5,145.6h2.4l-1.2-3.3L51.5,145.6z"/>
				<path class="st0" d="M61.3,148.3c-0.7,0-1.3-0.2-1.7-0.7c-0.4-0.5-0.7-1.1-0.7-1.9v-0.2c0-0.5,0.1-1,0.3-1.4
					c0.2-0.4,0.5-0.7,0.8-1c0.4-0.2,0.8-0.3,1.2-0.3c0.7,0,1.2,0.2,1.6,0.7s0.6,1.1,0.6,1.9v0.4h-3.6c0,0.5,0.2,0.9,0.5,1.3
					c0.3,0.3,0.7,0.5,1.1,0.5c0.3,0,0.6-0.1,0.8-0.2c0.2-0.1,0.4-0.3,0.6-0.5l0.6,0.4C62.9,148,62.2,148.3,61.3,148.3z M61.2,143.6
					c-0.4,0-0.7,0.1-0.9,0.4c-0.2,0.3-0.4,0.6-0.5,1.1h2.6V145c0-0.5-0.2-0.8-0.4-1.1C61.9,143.7,61.6,143.6,61.2,143.6z"/>
				<path class="st0" d="M66.2,144.9l1.2-1.9h1.1l-1.7,2.6l1.8,2.7h-1l-1.2-2l-1.2,2h-1l1.8-2.7l-1.7-2.6h1L66.2,144.9z"/>
				<path class="st0" d="M70.6,141.6v1.3h1v0.7h-1v3.3c0,0.2,0,0.4,0.1,0.5s0.2,0.2,0.4,0.2c0.1,0,0.2,0,0.4-0.1v0.7
					c-0.2,0.1-0.5,0.1-0.7,0.1c-0.4,0-0.7-0.1-0.9-0.4s-0.3-0.6-0.3-1v-3.3h-1v-0.7h1v-1.3H70.6z"/>
				<path class="st0" d="M75.2,143.7c-0.1,0-0.3,0-0.4,0c-0.6,0-1,0.3-1.2,0.8v3.8h-0.9V143h0.9v0.6c0.3-0.5,0.7-0.7,1.3-0.7
					c0.2,0,0.3,0,0.4,0.1L75.2,143.7L75.2,143.7z"/>
				<path class="st0" d="M79.3,148.2c-0.1-0.1-0.1-0.3-0.1-0.6c-0.4,0.4-0.9,0.7-1.5,0.7c-0.5,0-0.9-0.1-1.3-0.4
					c-0.3-0.3-0.5-0.7-0.5-1.1c0-0.5,0.2-1,0.6-1.3s1-0.5,1.8-0.5h0.9v-0.4c0-0.3-0.1-0.6-0.3-0.8c-0.2-0.2-0.5-0.3-0.8-0.3
					s-0.6,0.1-0.8,0.2c-0.2,0.2-0.3,0.4-0.3,0.6h-0.9c0-0.3,0.1-0.5,0.3-0.8c0.2-0.2,0.4-0.4,0.8-0.6c0.3-0.1,0.7-0.2,1.1-0.2
					c0.6,0,1.1,0.2,1.4,0.5s0.5,0.7,0.5,1.3v2.4c0,0.5,0.1,0.9,0.2,1.2v0.1L79.3,148.2L79.3,148.2z M77.8,147.5
					c0.3,0,0.6-0.1,0.8-0.2s0.4-0.3,0.6-0.6v-1.1h-0.7c-1.1,0-1.7,0.3-1.7,1c0,0.3,0.1,0.5,0.3,0.7
					C77.2,147.4,77.5,147.5,77.8,147.5z"/>
				<path class="st0" d="M83.6,147.6c0.3,0,0.6-0.1,0.8-0.3c0.2-0.2,0.4-0.4,0.4-0.7h0.9c0,0.3-0.1,0.6-0.3,0.9
					c-0.2,0.3-0.4,0.5-0.8,0.7c-0.3,0.2-0.7,0.2-1,0.2c-0.7,0-1.3-0.2-1.7-0.7c-0.4-0.5-0.6-1.1-0.6-2v-0.2c0-0.5,0.1-1,0.3-1.4
					c0.2-0.4,0.5-0.7,0.8-0.9c0.4-0.2,0.8-0.3,1.3-0.3c0.6,0,1.1,0.2,1.5,0.5c0.4,0.4,0.6,0.8,0.6,1.4h-0.9c0-0.3-0.2-0.6-0.4-0.8
					c-0.2-0.2-0.5-0.3-0.9-0.3c-0.5,0-0.8,0.2-1.1,0.5c-0.3,0.3-0.4,0.8-0.4,1.4v0.2c0,0.6,0.1,1.1,0.4,1.4
					C82.7,147.4,83.1,147.6,83.6,147.6z"/>
				<path class="st0" d="M87.9,141.6v1.3h1v0.7h-1v3.3c0,0.2,0,0.4,0.1,0.5s0.2,0.2,0.4,0.2c0.1,0,0.2,0,0.4-0.1v0.7
					c-0.2,0.1-0.5,0.1-0.7,0.1c-0.4,0-0.7-0.1-0.9-0.4s-0.3-0.6-0.3-1v-3.3h-1v-0.7h1v-1.3H87.9z"/>
				<path class="st0" d="M90,141.5c0-0.1,0-0.3,0.1-0.4c0.1-0.1,0.2-0.2,0.4-0.2s0.3,0.1,0.4,0.2c0.1,0.1,0.1,0.2,0.1,0.4
					s0,0.3-0.1,0.4c-0.1,0.1-0.2,0.1-0.4,0.1s-0.3,0-0.4-0.1C90,141.8,90,141.7,90,141.5z M90.9,148.2H90v-5.3h0.9V148.2z"/>
				<path class="st0" d="M92.1,145.5c0-0.5,0.1-1,0.3-1.4c0.2-0.4,0.5-0.7,0.8-1c0.4-0.2,0.8-0.3,1.2-0.3c0.7,0,1.3,0.2,1.7,0.7
					s0.7,1.2,0.7,2v0.1c0,0.5-0.1,1-0.3,1.4c-0.2,0.4-0.5,0.7-0.8,1c-0.4,0.2-0.8,0.3-1.3,0.3c-0.7,0-1.3-0.2-1.7-0.7
					S92.1,146.4,92.1,145.5L92.1,145.5z M93.1,145.6c0,0.6,0.1,1.1,0.4,1.4c0.3,0.4,0.6,0.5,1.1,0.5s0.8-0.2,1.1-0.5
					c0.3-0.4,0.4-0.9,0.4-1.5s-0.1-1-0.4-1.4s-0.6-0.5-1.1-0.5c-0.4,0-0.8,0.2-1.1,0.5C93.2,144.5,93.1,145,93.1,145.6z"/>
				<path class="st0" d="M98.9,142.9v0.7c0.4-0.5,0.9-0.8,1.6-0.8c1.1,0,1.7,0.6,1.7,1.9v3.5h-0.9v-3.5c0-0.4-0.1-0.7-0.3-0.8
					c-0.2-0.2-0.4-0.3-0.8-0.3c-0.3,0-0.6,0.1-0.8,0.2c-0.2,0.2-0.4,0.4-0.5,0.6v3.8H98v-5.3L98.9,142.9L98.9,142.9z"/>
				<path class="st0" d="M106.5,148.2v-4.6h-0.8v-0.7h0.8v-0.5c0-0.6,0.2-1,0.5-1.3s0.7-0.5,1.3-0.5c0.2,0,0.4,0,0.6,0.1v0.7
					c-0.2,0-0.3,0-0.5,0c-0.3,0-0.5,0.1-0.7,0.3s-0.2,0.4-0.2,0.7v0.6h1.1v0.7h-1.1v4.6h-1V148.2z"/>
				<path class="st0" d="M112.1,143.7c-0.1,0-0.3,0-0.4,0c-0.6,0-1,0.3-1.2,0.8v3.8h-0.9V143h0.9v0.6c0.3-0.5,0.7-0.7,1.3-0.7
					c0.2,0,0.3,0,0.4,0.1L112.1,143.7L112.1,143.7z"/>
				<path class="st0" d="M112.7,145.5c0-0.5,0.1-1,0.3-1.4c0.2-0.4,0.5-0.7,0.8-1c0.4-0.2,0.8-0.3,1.2-0.3c0.7,0,1.3,0.2,1.7,0.7
					s0.7,1.2,0.7,2v0.1c0,0.5-0.1,1-0.3,1.4c-0.2,0.4-0.5,0.7-0.8,1c-0.4,0.2-0.8,0.3-1.3,0.3c-0.7,0-1.3-0.2-1.7-0.7
					S112.7,146.4,112.7,145.5L112.7,145.5z M113.6,145.6c0,0.6,0.1,1.1,0.4,1.4c0.3,0.4,0.6,0.5,1.1,0.5s0.8-0.2,1.1-0.5
					c0.3-0.4,0.4-0.9,0.4-1.5s-0.1-1-0.4-1.4s-0.6-0.5-1.1-0.5c-0.4,0-0.8,0.2-1.1,0.5C113.7,144.5,113.6,145,113.6,145.6z"/>
				<path class="st0" d="M119.5,142.9v0.6c0.4-0.5,0.9-0.7,1.6-0.7s1.2,0.3,1.5,0.8c0.2-0.3,0.4-0.5,0.7-0.6c0.3-0.2,0.6-0.2,1-0.2
					c1.2,0,1.7,0.6,1.8,1.8v3.5h-0.9v-3.5c0-0.4-0.1-0.7-0.3-0.8c-0.2-0.2-0.5-0.3-0.9-0.3c-0.3,0-0.6,0.1-0.8,0.3
					c-0.2,0.2-0.4,0.5-0.4,0.8v3.5h-0.9v-3.5c0-0.8-0.4-1.2-1.1-1.2c-0.6,0-1,0.3-1.2,0.8v3.9h-0.9v-5.3L119.5,142.9L119.5,142.9z"
					/>
				<path class="st0" d="M133,146.8c0-0.2-0.1-0.4-0.3-0.6c-0.2-0.1-0.5-0.3-1-0.3c-0.5-0.1-0.8-0.2-1.1-0.4s-0.5-0.3-0.6-0.5
					s-0.2-0.4-0.2-0.7c0-0.4,0.2-0.8,0.5-1.1c0.4-0.3,0.8-0.4,1.4-0.4s1.1,0.2,1.5,0.5s0.6,0.7,0.6,1.2h-0.9c0-0.2-0.1-0.5-0.3-0.6
					c-0.2-0.2-0.5-0.3-0.8-0.3s-0.6,0.1-0.8,0.2c-0.2,0.1-0.3,0.3-0.3,0.6c0,0.2,0.1,0.4,0.3,0.5c0.2,0.1,0.5,0.2,0.9,0.3
					c0.5,0.1,0.8,0.2,1.1,0.4c0.3,0.1,0.5,0.3,0.6,0.5s0.2,0.4,0.2,0.7c0,0.5-0.2,0.9-0.6,1.1c-0.4,0.3-0.9,0.4-1.5,0.4
					c-0.4,0-0.8-0.1-1.1-0.2c-0.3-0.1-0.6-0.4-0.8-0.6c-0.2-0.3-0.3-0.6-0.3-0.9h0.9c0,0.3,0.1,0.5,0.4,0.7c0.2,0.2,0.5,0.3,0.9,0.3
					c0.3,0,0.6-0.1,0.8-0.2C132.8,147.2,133,147,133,146.8z"/>
				<path class="st0" d="M138.3,148.2c-0.1-0.1-0.1-0.3-0.1-0.6c-0.4,0.4-0.9,0.7-1.5,0.7c-0.5,0-0.9-0.1-1.3-0.4
					c-0.3-0.3-0.5-0.7-0.5-1.1c0-0.5,0.2-1,0.6-1.3s1-0.5,1.8-0.5h0.9v-0.4c0-0.3-0.1-0.6-0.3-0.8c-0.2-0.2-0.5-0.3-0.8-0.3
					s-0.6,0.1-0.8,0.2c-0.2,0.2-0.3,0.4-0.3,0.6h-0.9c0-0.3,0.1-0.5,0.3-0.8c0.2-0.2,0.4-0.4,0.8-0.6c0.3-0.1,0.7-0.2,1.1-0.2
					c0.6,0,1.1,0.2,1.4,0.5s0.5,0.7,0.5,1.3v2.4c0,0.5,0.1,0.9,0.2,1.2v0.1L138.3,148.2L138.3,148.2z M136.8,147.5
					c0.3,0,0.6-0.1,0.8-0.2s0.4-0.3,0.6-0.6v-1.1h-0.7c-1.1,0-1.7,0.3-1.7,1c0,0.3,0.1,0.5,0.3,0.7
					C136.3,147.4,136.5,147.5,136.8,147.5z"/>
				<path class="st0" d="M141.3,142.9v0.6c0.4-0.5,0.9-0.7,1.6-0.7s1.2,0.3,1.5,0.8c0.2-0.3,0.4-0.5,0.7-0.6c0.3-0.2,0.6-0.2,1-0.2
					c1.2,0,1.7,0.6,1.8,1.8v3.5H147v-3.5c0-0.4-0.1-0.7-0.3-0.8c-0.2-0.2-0.5-0.3-0.9-0.3c-0.3,0-0.6,0.1-0.8,0.3
					c-0.2,0.2-0.4,0.5-0.4,0.8v3.5h-0.9v-3.5c0-0.8-0.4-1.2-1.1-1.2c-0.6,0-1,0.3-1.2,0.8v3.9h-0.9v-5.3L141.3,142.9L141.3,142.9z"
					/>
				<path class="st0" d="M153.7,145.6c0,0.8-0.2,1.5-0.6,1.9c-0.4,0.5-0.9,0.7-1.5,0.7s-1.1-0.2-1.5-0.6v2.5h-0.9v-7.3h0.8v0.6
					c0.4-0.5,0.9-0.7,1.5-0.7s1.1,0.2,1.5,0.7C153.5,144,153.7,144.7,153.7,145.6L153.7,145.6z M152.8,145.5c0-0.6-0.1-1.1-0.4-1.4
					c-0.3-0.3-0.6-0.5-1-0.5c-0.5,0-1,0.2-1.2,0.7v2.5c0.3,0.5,0.7,0.7,1.2,0.7c0.4,0,0.8-0.2,1-0.5
					C152.7,146.7,152.8,146.2,152.8,145.5z"/>
				<path class="st0" d="M155.8,148.2h-0.9v-7.5h0.9V148.2z"/>
				<path class="st0" d="M159.5,148.3c-0.7,0-1.3-0.2-1.7-0.7c-0.4-0.5-0.7-1.1-0.7-1.9v-0.2c0-0.5,0.1-1,0.3-1.4
					c0.2-0.4,0.5-0.7,0.8-1c0.4-0.2,0.8-0.3,1.2-0.3c0.7,0,1.2,0.2,1.6,0.7s0.6,1.1,0.6,1.9v0.4h-3.7c0,0.5,0.2,0.9,0.5,1.3
					c0.3,0.3,0.7,0.5,1.1,0.5c0.3,0,0.6-0.1,0.8-0.2c0.2-0.1,0.4-0.3,0.6-0.5l0.6,0.4C161,148,160.4,148.3,159.5,148.3z
					 M159.4,143.6c-0.4,0-0.7,0.1-0.9,0.4c-0.2,0.3-0.4,0.6-0.5,1.1h2.6V145c0-0.5-0.2-0.8-0.4-1.1
					C160,143.7,159.7,143.6,159.4,143.6z"/>
			</g>
			<g>
				<path class="st0" d="M21.5,149.7h-1.4v-6.9l-2.1,0.7v-1.2l3.3-1.2h0.2V149.7z"/>
			</g>
			<circle class="st4" cx="20.6" cy="145.4" r="8.1"/>
		</g>
	</g>
</g>
</svg>
