<?xml version="1.0" encoding="utf-8"?>
<!-- Generator: Adobe Illustrator 21.1.0, SVG Export Plug-In . SVG Version: 6.00 Build 0)  -->
<!DOCTYPE svg PUBLIC "-//W3C//DTD SVG 1.1//EN" "http://www.w3.org/Graphics/SVG/1.1/DTD/svg11.dtd">
<svg version="1.1" xmlns="http://www.w3.org/2000/svg" xmlns:xlink="http://www.w3.org/1999/xlink" x="0px" y="0px"
	 viewBox="0 0 194.9 170.4" style="enable-background:new 0 0 194.9 170.4;" xml:space="preserve">
<style type="text/css">
	.st0{fill:#FFFFFF;}
	.st1{fill:#3AA47D;}
	.st2{fill:#373E49;}
	.st3{fill:url(#SVGID_1_);}
	.st4{fill:none;stroke:#FFFFFF;stroke-width:0.9001;stroke-miterlimit:10;}
	.st5{fill:#2F5597;}
	.st6{fill:#7F6000;}
	.st7{fill:#B5B5B5;}
	.st8{fill:none;stroke:#ADADAD;stroke-width:9.554537e-02;stroke-miterlimit:10;}
	.st9{fill:#525252;}
	.st10{fill:#9C9C9C;}
	.st11{fill:#424242;}
	.st12{fill:#006AFF;}
	.st13{fill:#C96522;}
	.st14{fill:#C5E0B4;}
	.st15{fill:none;stroke:#FF0000;stroke-width:0.637;stroke-miterlimit:10;}
	.st16{fill:none;stroke:#0066FF;stroke-width:0.637;stroke-miterlimit:10;}
	.st17{fill:#0066FF;}
	.st18{fill:none;stroke:#FFC000;stroke-width:0.637;stroke-miterlimit:10;}
	.st19{fill:#FFC000;}
	.st20{fill:none;stroke:#00B050;stroke-width:0.637;stroke-miterlimit:10;}
	.st21{fill:none;stroke:#9DC3E6;stroke-width:0.637;stroke-miterlimit:10;}
	.st22{fill:#9DC3E6;}
	.st23{fill:url(#SVGID_2_);}
	.st24{fill:none;stroke:#FF2727;stroke-width:1.32;stroke-linecap:round;stroke-miterlimit:10;}
	.st25{fill:none;stroke:#2881FF;stroke-width:1.32;stroke-miterlimit:10;}
	.st26{fill:none;stroke:#5B7AAF;stroke-width:1.32;stroke-miterlimit:10;}
	.st27{fill:none;stroke:#BDD7EF;stroke-width:1.32;stroke-miterlimit:10;}
	.st28{fill:none;stroke:#2CC472;stroke-width:1.32;stroke-linecap:round;stroke-miterlimit:10;}
	.st29{fill:none;stroke:#FFC000;stroke-width:1.32;stroke-miterlimit:10;}
	.st30{fill:none;stroke:#21BF69;stroke-width:1.32;stroke-linecap:round;stroke-miterlimit:10;}
	.st31{fill:none;stroke:#A2883A;stroke-width:1.32;stroke-miterlimit:10;}
	.st32{fill:none;stroke:#997F2C;stroke-width:1.32;stroke-miterlimit:10;}
	.st33{fill:none;stroke:#FF5656;stroke-width:1.32;stroke-linecap:round;stroke-miterlimit:10;}
	.st34{fill:url(#SVGID_3_);}
	.st35{fill:none;stroke:#FF2727;stroke-width:0.9775;stroke-linecap:round;stroke-miterlimit:10;}
	.st36{fill:none;stroke:#2881FF;stroke-width:0.9775;stroke-miterlimit:10;}
	.st37{fill:none;stroke:#5B7AAF;stroke-width:0.9775;stroke-miterlimit:10;}
	.st38{fill:none;stroke:#BDD7EF;stroke-width:0.9775;stroke-miterlimit:10;}
	.st39{fill:none;stroke:#2CC472;stroke-width:0.9775;stroke-linecap:round;stroke-miterlimit:10;}
	.st40{fill:none;stroke:#FFC000;stroke-width:0.9775;stroke-miterlimit:10;}
	.st41{fill:none;stroke:#C96522;stroke-miterlimit:10;}
</style>
<g id="Layer_2">
</g>
<g id="Layer_4">
</g>
<g id="Layer_5">
	<g id="Layer_5_1_">
		<g>
			<rect x="14.9" y="69.3" class="st5" width="4.4" height="1.4"/>
			<rect x="20.5" y="69.3" class="st5" width="4.4" height="1.4"/>
			<rect x="26" y="69.3" class="st5" width="4.4" height="1.4"/>
			<rect x="31.6" y="69.3" class="st5" width="4.4" height="1.4"/>
			<rect x="37.1" y="69.3" class="st5" width="4.4" height="1.4"/>
			<rect x="42.7" y="69.3" class="st5" width="4.4" height="1.4"/>
			<rect x="48.2" y="69.3" class="st5" width="4.4" height="1.4"/>
			<rect x="53.8" y="69.3" class="st5" width="4.4" height="1.4"/>
			<rect x="59.4" y="69.3" class="st5" width="4.4" height="1.4"/>
			<rect x="64.9" y="69.3" class="st5" width="4.4" height="1.4"/>
			<rect x="70.5" y="69.3" class="st5" width="4.4" height="1.4"/>
			<rect x="76" y="69.3" class="st5" width="4.4" height="1.4"/>
			<rect x="81.6" y="69.3" class="st5" width="4.4" height="1.4"/>
			<rect x="87.2" y="69.3" class="st5" width="4.4" height="1.4"/>
			<g>
				<rect x="61.5" y="61.7" class="st6" width="4.4" height="1.4"/>
				<rect x="67.1" y="61.7" class="st6" width="4.4" height="1.4"/>
				<rect x="72.6" y="61.7" class="st6" width="4.4" height="1.4"/>
				<rect x="78.1" y="61.7" class="st6" width="4.4" height="1.4"/>
				<rect x="83.7" y="61.7" class="st6" width="4.4" height="1.4"/>
				<rect x="89.2" y="61.7" class="st6" width="4.4" height="1.4"/>
				<rect x="94.7" y="61.7" class="st6" width="4.4" height="1.4"/>
				<rect x="100.3" y="61.7" class="st6" width="4.4" height="1.4"/>
				<rect x="105.8" y="61.7" class="st6" width="4.4" height="1.4"/>
				<rect x="111.3" y="61.7" class="st6" width="4.4" height="1.4"/>
				<rect x="116.9" y="61.7" class="st6" width="4.4" height="1.4"/>
				<rect x="122.4" y="61.7" class="st6" width="4.4" height="1.4"/>
				<rect x="127.9" y="61.7" class="st6" width="4.4" height="1.4"/>
				<rect x="133.5" y="61.7" class="st6" width="4.4" height="1.4"/>
				<rect x="139" y="61.7" class="st6" width="4.4" height="1.4"/>
				<rect x="144.5" y="61.7" class="st6" width="4.4" height="1.4"/>
				<g>
					<polyline class="st8" points="13.1,65.3 13.7,65.9 13.7,66.5 13.2,67.1 					"/>
					<polyline class="st8" points="14.9,65.3 15.5,65.9 15.5,66.5 14.9,67.1 					"/>
					<rect x="12.4" y="65.9" class="st9" width="1.5" height="0.6"/>
					<rect x="14.1" y="65.9" class="st9" width="1.5" height="0.6"/>
				</g>
				<g>
					<polyline class="st8" points="16.3,65.3 16.9,65.9 16.9,66.5 16.3,67.1 					"/>
					<polyline class="st8" points="18,65.3 18.6,65.9 18.6,66.5 18,67.1 					"/>
					<rect x="15.5" y="65.9" class="st9" width="1.5" height="0.6"/>
					<rect x="17.2" y="65.9" class="st9" width="1.5" height="0.6"/>
				</g>
				<g>
					<polyline class="st8" points="19.4,65.3 20,65.9 20,66.5 19.4,67.1 					"/>
					<polyline class="st8" points="21.2,65.3 21.7,65.9 21.7,66.5 21.2,67.1 					"/>
					<rect x="18.7" y="65.9" class="st9" width="1.5" height="0.6"/>
					<rect x="20.3" y="65.9" class="st9" width="1.5" height="0.6"/>
				</g>
				<g>
					<polyline class="st8" points="22.6,65.3 23.1,65.9 23.1,66.5 22.6,67.1 					"/>
					<polyline class="st8" points="24.3,65.3 24.9,65.9 24.9,66.5 24.3,67.1 					"/>
					<rect x="21.8" y="65.9" class="st9" width="1.5" height="0.6"/>
					<rect x="23.5" y="65.9" class="st9" width="1.5" height="0.6"/>
				</g>
				<g>
					<polyline class="st8" points="25.7,65.3 26.3,65.9 26.3,66.5 25.7,67.1 					"/>
					<polyline class="st8" points="27.4,65.3 28,65.9 28,66.5 27.4,67.1 					"/>
					<rect x="24.9" y="65.9" class="st9" width="1.5" height="0.6"/>
					<rect x="26.6" y="65.9" class="st9" width="1.5" height="0.6"/>
				</g>
				<g>
					<polyline class="st8" points="28.8,65.3 29.4,65.9 29.4,66.5 28.8,67.1 					"/>
					<polyline class="st8" points="30.6,65.3 31.2,65.9 31.2,66.5 30.6,67.1 					"/>
					<rect x="28.1" y="65.9" class="st9" width="1.5" height="0.6"/>
					<rect x="29.8" y="65.9" class="st9" width="1.5" height="0.6"/>
				</g>
				<g>
					<polyline class="st8" points="32,65.3 32.5,65.9 32.5,66.5 32,67.1 					"/>
					<polyline class="st8" points="33.7,65.3 34.3,65.9 34.3,66.5 33.7,67.1 					"/>
					<rect x="31.2" y="65.9" class="st9" width="1.5" height="0.6"/>
					<rect x="32.9" y="65.9" class="st9" width="1.5" height="0.6"/>
				</g>
				<g>
					<polyline class="st8" points="35.1,65.3 35.7,65.9 35.7,66.5 35.1,67.1 					"/>
					<polyline class="st8" points="36.8,65.3 37.4,65.9 37.4,66.5 36.9,67.1 					"/>
					<rect x="34.3" y="65.9" class="st9" width="1.5" height="0.6"/>
					<rect x="36" y="65.9" class="st9" width="1.5" height="0.6"/>
				</g>
				<g>
					<polyline class="st8" points="38.2,65.3 38.8,65.9 38.8,66.5 38.2,67.1 					"/>
					<polyline class="st8" points="40,65.3 40.6,65.9 40.6,66.5 40,67.1 					"/>
					<rect x="37.5" y="65.9" class="st9" width="1.5" height="0.6"/>
					<rect x="39.2" y="65.9" class="st9" width="1.5" height="0.6"/>
				</g>
				<g>
					<polyline class="st8" points="41.4,65.3 41.9,65.9 41.9,66.5 41.4,67.1 					"/>
					<polyline class="st8" points="43.1,65.3 43.7,65.9 43.7,66.5 43.1,67.1 					"/>
					<rect x="40.6" y="65.9" class="st9" width="1.5" height="0.6"/>
					<rect x="42.3" y="65.9" class="st9" width="1.5" height="0.6"/>
				</g>
				<g>
					<polyline class="st8" points="44.5,65.3 45.1,65.9 45.1,66.5 44.5,67.1 					"/>
					<polyline class="st8" points="46.3,65.3 46.8,65.9 46.8,66.5 46.3,67.1 					"/>
					<rect x="43.7" y="65.9" class="st9" width="1.5" height="0.6"/>
					<rect x="45.4" y="65.9" class="st9" width="1.5" height="0.6"/>
				</g>
				<g>
					<polyline class="st8" points="47.6,65.3 48.2,65.9 48.2,66.5 47.6,67.1 					"/>
					<polyline class="st8" points="49.4,65.3 50,65.9 50,66.5 49.4,67.1 					"/>
					<rect x="46.9" y="65.9" class="st9" width="1.5" height="0.6"/>
					<rect x="48.6" y="65.9" class="st9" width="1.5" height="0.6"/>
				</g>
				<g>
					<polyline class="st8" points="50.8,65.3 51.3,65.9 51.3,66.5 50.8,67.1 					"/>
					<polyline class="st8" points="52.5,65.3 53.1,65.9 53.1,66.5 52.5,67.1 					"/>
					<rect x="50" y="65.9" class="st9" width="1.5" height="0.6"/>
					<rect x="51.7" y="65.9" class="st9" width="1.5" height="0.6"/>
				</g>
				<g>
					<polyline class="st8" points="53.9,65.3 54.5,65.9 54.5,66.5 53.9,67.1 					"/>
					<polyline class="st8" points="55.7,65.3 56.2,65.9 56.2,66.5 55.7,67.1 					"/>
					<rect x="53.1" y="65.9" class="st9" width="1.5" height="0.6"/>
					<rect x="54.8" y="65.9" class="st9" width="1.5" height="0.6"/>
				</g>
				<g>
					<polyline class="st8" points="57,65.3 57.6,65.9 57.6,66.5 57,67.1 					"/>
					<polyline class="st8" points="58.8,65.3 59.4,65.9 59.4,66.5 58.8,67.1 					"/>
					<rect x="56.3" y="65.9" class="st9" width="1.5" height="0.6"/>
					<rect x="58" y="65.9" class="st9" width="1.5" height="0.6"/>
				</g>
				<g>
					<polyline class="st8" points="60.2,65.3 60.8,65.9 60.8,66.5 60.2,67.1 					"/>
					<polyline class="st8" points="61.9,65.3 62.5,65.9 62.5,66.5 61.9,67.1 					"/>
					<rect x="59.4" y="65.9" class="st9" width="1.5" height="0.6"/>
					<rect x="61.1" y="65.9" class="st9" width="1.5" height="0.6"/>
				</g>
				<g>
					<polyline class="st8" points="63.3,65.3 63.9,65.9 63.9,66.5 63.3,67.1 					"/>
					<polyline class="st8" points="65.1,65.3 65.6,65.9 65.6,66.5 65.1,67.1 					"/>
					<rect x="62.6" y="65.9" class="st9" width="1.5" height="0.6"/>
					<rect x="64.2" y="65.9" class="st9" width="1.5" height="0.6"/>
				</g>
				<g>
					<polyline class="st8" points="66.4,65.3 67,65.9 67,66.5 66.5,67.1 					"/>
					<polyline class="st8" points="68.2,65.3 68.8,65.9 68.8,66.5 68.2,67.1 					"/>
					<rect x="65.7" y="65.9" class="st9" width="1.5" height="0.6"/>
					<rect x="67.4" y="65.9" class="st9" width="1.5" height="0.6"/>
				</g>
				<g>
					<polyline class="st8" points="69.6,65.3 70.2,65.9 70.2,66.5 69.6,67.1 					"/>
					<polyline class="st8" points="71.3,65.3 71.9,65.9 71.9,66.5 71.3,67.1 					"/>
					<rect x="68.8" y="65.9" class="st9" width="1.5" height="0.6"/>
					<rect x="70.5" y="65.9" class="st9" width="1.5" height="0.6"/>
				</g>
				<g>
					<polyline class="st8" points="72.7,65.3 73.3,65.9 73.3,66.5 72.7,67.1 					"/>
					<polyline class="st8" points="74.5,65.3 75,65.9 75,66.5 74.5,67.1 					"/>
					<rect x="72" y="65.9" class="st9" width="1.5" height="0.6"/>
					<rect x="73.6" y="65.9" class="st9" width="1.5" height="0.6"/>
				</g>
				<g>
					<polyline class="st8" points="75.9,65.3 76.4,65.9 76.4,66.5 75.9,67.1 					"/>
					<polyline class="st8" points="77.6,65.3 78.2,65.9 78.2,66.5 77.6,67.1 					"/>
					<rect x="75.1" y="65.9" class="st9" width="1.5" height="0.6"/>
					<rect x="76.8" y="65.9" class="st9" width="1.5" height="0.6"/>
				</g>
				<g>
					<polyline class="st8" points="79,65.3 79.6,65.9 79.6,66.5 79,67.1 					"/>
					<polyline class="st8" points="80.7,65.3 81.3,65.9 81.3,66.5 80.7,67.1 					"/>
					<rect x="78.2" y="65.9" class="st9" width="1.5" height="0.6"/>
					<rect x="79.9" y="65.9" class="st9" width="1.5" height="0.6"/>
				</g>
				<g>
					<polyline class="st8" points="82.1,65.3 82.7,65.9 82.7,66.5 82.1,67.1 					"/>
					<polyline class="st8" points="83.9,65.3 84.4,65.9 84.4,66.5 83.9,67.1 					"/>
					<rect x="81.4" y="65.9" class="st9" width="1.5" height="0.6"/>
					<rect x="83" y="65.9" class="st9" width="1.5" height="0.6"/>
				</g>
				<g>
					<polyline class="st8" points="85.3,65.3 85.8,65.9 85.8,66.5 85.3,67.1 					"/>
					<polyline class="st8" points="87,65.3 87.6,65.9 87.6,66.5 87,67.1 					"/>
					<rect x="84.5" y="65.9" class="st9" width="1.5" height="0.6"/>
					<rect x="86.2" y="65.9" class="st9" width="1.5" height="0.6"/>
				</g>
				<g>
					<polyline class="st8" points="88.4,65.3 89,65.9 89,66.5 88.4,67.1 					"/>
					<polyline class="st8" points="90.1,65.3 90.7,65.9 90.7,66.5 90.1,67.1 					"/>
					<rect x="87.6" y="65.9" class="st9" width="1.5" height="0.6"/>
					<rect x="89.3" y="65.9" class="st9" width="1.5" height="0.6"/>
				</g>
				<g>
					<polyline class="st8" points="91.5,65.3 92.1,65.9 92.1,66.5 91.5,67.1 					"/>
					<polyline class="st8" points="93.3,65.3 93.9,65.9 93.9,66.5 93.3,67.1 					"/>
					<rect x="90.8" y="65.9" class="st9" width="1.5" height="0.6"/>
					<rect x="92.5" y="65.9" class="st9" width="1.5" height="0.6"/>
				</g>
				<g>
					<polyline class="st8" points="94.7,65.3 95.2,65.9 95.2,66.5 94.7,67.1 					"/>
					<polyline class="st8" points="96.4,65.3 97,65.9 97,66.5 96.4,67.1 					"/>
					<rect x="93.9" y="65.9" class="st9" width="1.5" height="0.6"/>
					<rect x="95.6" y="65.9" class="st9" width="1.5" height="0.6"/>
				</g>
				<g>
					<polyline class="st8" points="97.8,65.3 98.4,65.9 98.4,66.5 97.8,67.1 					"/>
					<polyline class="st8" points="99.5,65.3 100.1,65.9 100.1,66.5 99.6,67.1 					"/>
					<rect x="97" y="65.9" class="st9" width="1.5" height="0.6"/>
					<rect x="98.7" y="65.9" class="st9" width="1.5" height="0.6"/>
				</g>
				<g>
					<polyline class="st8" points="100.9,65.3 101.5,65.9 101.5,66.5 100.9,67.1 					"/>
					<polyline class="st8" points="102.7,65.3 103.3,65.9 103.3,66.5 102.7,67.1 					"/>
					<rect x="100.2" y="65.9" class="st9" width="1.5" height="0.6"/>
					<rect x="101.9" y="65.9" class="st9" width="1.5" height="0.6"/>
				</g>
				<g>
					<polyline class="st8" points="104.1,65.3 104.6,65.9 104.6,66.5 104.1,67.1 					"/>
					<polyline class="st8" points="105.8,65.3 106.4,65.9 106.4,66.5 105.8,67.1 					"/>
					<rect x="103.3" y="65.9" class="st9" width="1.5" height="0.6"/>
					<rect x="105" y="65.9" class="st9" width="1.5" height="0.6"/>
				</g>
				<g>
					<polyline class="st8" points="107.2,65.3 107.8,65.9 107.8,66.5 107.2,67.1 					"/>
					<polyline class="st8" points="109,65.3 109.5,65.9 109.5,66.5 109,67.1 					"/>
					<rect x="106.4" y="65.9" class="st9" width="1.5" height="0.6"/>
					<rect x="108.1" y="65.9" class="st9" width="1.5" height="0.6"/>
				</g>
				<g>
					<polyline class="st8" points="110.3,65.3 110.9,65.9 110.9,66.5 110.3,67.1 					"/>
					<polyline class="st8" points="112.1,65.3 112.7,65.9 112.7,66.5 112.1,67.1 					"/>
					<rect x="109.6" y="65.9" class="st9" width="1.5" height="0.6"/>
					<rect x="111.3" y="65.9" class="st9" width="1.5" height="0.6"/>
				</g>
				<g>
					<polyline class="st8" points="113.5,65.3 114,65.9 114,66.5 113.5,67.1 					"/>
					<polyline class="st8" points="115.2,65.3 115.8,65.9 115.8,66.5 115.2,67.1 					"/>
					<rect x="112.7" y="65.9" class="st9" width="1.5" height="0.6"/>
					<rect x="114.4" y="65.9" class="st9" width="1.5" height="0.6"/>
				</g>
				<g>
					<polyline class="st8" points="116.6,65.3 117.2,65.9 117.2,66.5 116.6,67.1 					"/>
					<polyline class="st8" points="118.4,65.3 118.9,65.9 118.9,66.5 118.4,67.1 					"/>
					<rect x="115.9" y="65.9" class="st9" width="1.5" height="0.6"/>
					<rect x="117.5" y="65.9" class="st9" width="1.5" height="0.6"/>
				</g>
				<g>
					<polyline class="st8" points="119.7,65.3 120.3,65.9 120.3,66.5 119.7,67.1 					"/>
					<polyline class="st8" points="121.5,65.3 122.1,65.9 122.1,66.5 121.5,67.1 					"/>
					<rect x="119" y="65.9" class="st9" width="1.5" height="0.6"/>
					<rect x="120.7" y="65.9" class="st9" width="1.5" height="0.6"/>
				</g>
				<g>
					<polyline class="st8" points="122.9,65.3 123.5,65.9 123.5,66.5 122.9,67.1 					"/>
					<polyline class="st8" points="124.6,65.3 125.2,65.9 125.2,66.5 124.6,67.1 					"/>
					<rect x="122.1" y="65.9" class="st9" width="1.5" height="0.6"/>
					<rect x="123.8" y="65.9" class="st9" width="1.5" height="0.6"/>
				</g>
				<g>
					<polyline class="st8" points="126,65.3 126.6,65.9 126.6,66.5 126,67.1 					"/>
					<polyline class="st8" points="127.8,65.3 128.3,65.9 128.3,66.5 127.8,67.1 					"/>
					<rect x="125.3" y="65.9" class="st9" width="1.5" height="0.6"/>
					<rect x="126.9" y="65.9" class="st9" width="1.5" height="0.6"/>
				</g>
				<g>
					<polyline class="st8" points="129.1,65.3 129.7,65.9 129.7,66.5 129.2,67.1 					"/>
					<polyline class="st8" points="130.9,65.3 131.5,65.9 131.5,66.5 130.9,67.1 					"/>
					<rect x="128.4" y="65.9" class="st9" width="1.5" height="0.6"/>
					<rect x="130.1" y="65.9" class="st9" width="1.5" height="0.6"/>
				</g>
				<g>
					<polyline class="st8" points="132.3,65.3 132.9,65.9 132.9,66.5 132.3,67.1 					"/>
					<polyline class="st8" points="134,65.3 134.6,65.9 134.6,66.5 134,67.1 					"/>
					<rect x="131.5" y="65.9" class="st9" width="1.5" height="0.6"/>
					<rect x="133.2" y="65.9" class="st9" width="1.5" height="0.6"/>
				</g>
				<g>
					<polyline class="st8" points="135.4,65.3 136,65.9 136,66.5 135.4,67.1 					"/>
					<polyline class="st8" points="137.2,65.3 137.7,65.9 137.7,66.5 137.2,67.1 					"/>
					<rect x="134.7" y="65.9" class="st9" width="1.5" height="0.6"/>
					<rect x="136.3" y="65.9" class="st9" width="1.5" height="0.6"/>
				</g>
				<g>
					<polyline class="st8" points="138.6,65.3 139.1,65.9 139.1,66.5 138.6,67.1 					"/>
					<polyline class="st8" points="140.3,65.3 140.9,65.9 140.9,66.5 140.3,67.1 					"/>
					<rect x="137.8" y="65.9" class="st9" width="1.5" height="0.6"/>
					<rect x="139.5" y="65.9" class="st9" width="1.5" height="0.6"/>
				</g>
				<g>
					<polyline class="st8" points="141.7,65.3 142.3,65.9 142.3,66.5 141.7,67.1 					"/>
					<polyline class="st8" points="143.4,65.3 144,65.9 144,66.5 143.4,67.1 					"/>
					<rect x="140.9" y="65.9" class="st9" width="1.5" height="0.6"/>
					<rect x="142.6" y="65.9" class="st9" width="1.5" height="0.6"/>
				</g>
				<g>
					<polyline class="st8" points="144.8,65.3 145.4,65.9 145.4,66.5 144.8,67.1 					"/>
					<polyline class="st8" points="146.6,65.3 147.2,65.9 147.2,66.5 146.6,67.1 					"/>
					<rect x="144.1" y="65.9" class="st9" width="1.5" height="0.6"/>
					<rect x="145.7" y="65.9" class="st9" width="1.5" height="0.6"/>
				</g>
				<g>
					<polyline class="st8" points="148,65.3 148.5,65.9 148.5,66.5 148,67.1 					"/>
					<polyline class="st8" points="149.7,65.3 150.3,65.9 150.3,66.5 149.7,67.1 					"/>
					<rect x="147.2" y="65.9" class="st9" width="1.5" height="0.6"/>
					<rect x="148.9" y="65.9" class="st9" width="1.5" height="0.6"/>
				</g>
				<g>
					<polyline class="st8" points="151.1,65.3 151.7,65.9 151.7,66.5 151.1,67.1 					"/>
					<polyline class="st8" points="152.8,65.3 153.4,65.9 153.4,66.5 152.8,67.1 					"/>
					<rect x="150.3" y="65.9" class="st9" width="1.5" height="0.6"/>
					<rect x="152" y="65.9" class="st9" width="1.5" height="0.6"/>
				</g>
				<g>
					<polyline class="st8" points="154.2,65.3 154.8,65.9 154.8,66.5 154.2,67.1 					"/>
					<polyline class="st8" points="156,65.3 156.6,65.9 156.6,66.5 156,67.1 					"/>
					<rect x="153.5" y="65.9" class="st9" width="1.5" height="0.6"/>
					<rect x="155.2" y="65.9" class="st9" width="1.5" height="0.6"/>
				</g>
				<g>
					<polyline class="st8" points="157.4,65.3 157.9,65.9 157.9,66.5 157.4,67.1 					"/>
					<polyline class="st8" points="159.1,65.3 159.7,65.9 159.7,66.5 159.1,67.1 					"/>
					<rect x="156.6" y="65.9" class="st9" width="1.5" height="0.6"/>
					<rect x="158.3" y="65.9" class="st9" width="1.5" height="0.6"/>
				</g>
				<g>
					<polyline class="st8" points="160.5,65.3 161.1,65.9 161.1,66.5 160.5,67.1 					"/>
					<polyline class="st8" points="162.2,65.3 162.8,65.9 162.8,66.5 162.3,67.1 					"/>
					<rect x="159.7" y="65.9" class="st9" width="1.5" height="0.6"/>
					<rect x="161.4" y="65.9" class="st9" width="1.5" height="0.6"/>
				</g>
				<g>
					<polyline class="st8" points="163.6,65.3 164.2,65.9 164.2,66.5 163.6,67.1 					"/>
					<polyline class="st8" points="165.4,65.3 166,65.9 166,66.5 165.4,67.1 					"/>
					<rect x="162.9" y="65.9" class="st9" width="1.5" height="0.6"/>
					<rect x="164.6" y="65.9" class="st9" width="1.5" height="0.6"/>
				</g>
				<g>
					<polyline class="st8" points="166.8,65.3 167.3,65.9 167.3,66.5 166.8,67.1 					"/>
					<polyline class="st8" points="168.5,65.3 169.1,65.9 169.1,66.5 168.5,67.1 					"/>
					<rect x="166" y="65.9" class="st9" width="1.5" height="0.6"/>
					<rect x="167.7" y="65.9" class="st9" width="1.5" height="0.6"/>
				</g>
			</g>
			<rect x="32.7" y="64.5" class="st10" width="0.8" height="3.4"/>
			<rect x="35.4" y="64.5" class="st10" width="2.1" height="3.4"/>
			<rect x="50.9" y="64.5" class="st10" width="2.2" height="3.4"/>
			<rect x="54.9" y="64.5" class="st10" width="2.1" height="3.4"/>
			<rect x="58.9" y="64.5" class="st10" width="1.8" height="3.4"/>
			<rect x="62.9" y="64.5" class="st10" width="1.7" height="3.4"/>
			<rect x="66.9" y="64.5" class="st10" width="1.8" height="3.4"/>
			<rect x="70.5" y="64.5" class="st10" width="2" height="3.4"/>
			<rect x="74.4" y="64.5" class="st10" width="2.2" height="3.4"/>
			<rect x="78.2" y="64.5" class="st10" width="2.2" height="3.4"/>
			<rect x="82.3" y="64.5" class="st10" width="1.9" height="3.4"/>
			<rect x="86.3" y="64.5" class="st10" width="1.8" height="3.4"/>
			<rect x="90.3" y="64.5" class="st10" width="1.8" height="3.4"/>
			<rect x="97.8" y="64.5" class="st10" width="2.3" height="3.4"/>
			<rect x="109.6" y="64.5" class="st10" width="1.9" height="3.4"/>
			<rect x="113.5" y="64.5" class="st10" width="1.9" height="3.4"/>
			<rect x="121.3" y="64.5" class="st10" width="1.9" height="3.4"/>
			<rect x="125.2" y="64.5" class="st10" width="1.9" height="3.4"/>
			<rect x="129.1" y="64.5" class="st10" width="1.8" height="3.4"/>
			<rect x="135" y="64.5" class="st11" width="2" height="3.4"/>
			<rect x="138.9" y="64.5" class="st11" width="2" height="3.4"/>
			<rect x="133" y="64.5" class="st10" width="2" height="3.4"/>
			<rect x="137" y="64.5" class="st10" width="2" height="3.4"/>
			<rect x="117.3" y="64.5" class="st10" width="2.1" height="3.4"/>
			<rect x="93.8" y="64.5" class="st10" width="2.3" height="3.4"/>
			<rect x="101.9" y="64.5" class="st10" width="5.6" height="3.4"/>
			<rect x="43.1" y="64.5" class="st10" width="2.1" height="3.4"/>
			<rect x="47.1" y="64.5" class="st10" width="2.1" height="3.4"/>
			<rect x="39.4" y="64.5" class="st10" width="1.7" height="3.4"/>
			<rect x="33.5" y="64.5" class="st11" width="1.9" height="3.4"/>
			<rect x="41.2" y="64.5" class="st11" width="1.9" height="3.4"/>
			<rect x="37.5" y="64.5" class="st11" width="1.9" height="3.4"/>
			<rect x="45.2" y="64.5" class="st11" width="1.9" height="3.4"/>
			<rect x="53.1" y="64.5" class="st11" width="1.8" height="3.4"/>
			<rect x="57" y="64.5" class="st11" width="1.9" height="3.4"/>
			<rect x="60.6" y="64.5" class="st11" width="2.3" height="3.4"/>
			<rect x="64.7" y="64.5" class="st11" width="2.3" height="3.4"/>
			<rect x="68.7" y="64.5" class="st11" width="1.8" height="3.4"/>
			<rect x="72.6" y="64.5" class="st11" width="1.8" height="3.4"/>
			<rect x="76.6" y="64.5" class="st11" width="1.7" height="3.4"/>
			<rect x="80.4" y="64.5" class="st11" width="1.9" height="3.4"/>
			<rect x="84.1" y="64.5" class="st11" width="2.2" height="3.4"/>
			<rect x="92.1" y="64.5" class="st11" width="1.7" height="3.4"/>
			<rect x="96" y="64.5" class="st11" width="1.8" height="3.4"/>
			<rect x="100.1" y="64.5" class="st11" width="1.8" height="3.4"/>
			<rect x="107.5" y="64.5" class="st11" width="2.2" height="3.4"/>
			<rect x="111.6" y="64.5" class="st11" width="1.9" height="3.4"/>
			<rect x="115.4" y="64.5" class="st11" width="1.9" height="3.4"/>
			<rect x="119.4" y="64.5" class="st11" width="1.9" height="3.4"/>
			<rect x="127.1" y="64.5" class="st11" width="2.2" height="3.4"/>
			<rect x="130.9" y="64.5" class="st11" width="2.2" height="3.4"/>
			<rect x="123.2" y="64.5" class="st11" width="2.1" height="3.4"/>
			<rect x="88" y="64.5" class="st11" width="2.3" height="3.4"/>
			<rect x="49.2" y="64.5" class="st11" width="1.8" height="3.4"/>
			<g>
				<path class="st12" d="M6.3,47.1H2.7v3.8H1.6v-8.5h5.3v0.9H2.7v2.9h3.6L6.3,47.1L6.3,47.1z"/>
				<path class="st12" d="M11.2,50.8h-1.1v-5.5l-2.2,0.8v-1L11,44h0.2V50.8z"/>
			</g>
			<g>
				<path class="st13" d="M47.8,47.1h-3.6v3.8H43v-8.5h5.3v0.9h-4.2v2.9h3.6v0.9H47.8z"/>
				<path class="st13" d="M54.6,50.8h-5.2V50l3-2.7c0.5-0.4,0.8-0.8,0.8-1.2v-0.3c0-0.3-0.1-0.6-0.4-0.8s-0.6-0.3-1-0.3
					c-0.5,0-0.9,0.1-1.2,0.4s-0.4,0.6-0.4,1.1h-1.1c0-0.4,0.1-0.8,0.4-1.2s0.6-0.7,1-0.9s0.9-0.3,1.4-0.3c0.7,0,1.3,0.2,1.8,0.5
					s0.7,0.8,0.7,1.4c0,0.7-0.4,1.4-1.2,2.1l-2.2,2h3.7L54.6,50.8L54.6,50.8z"/>
			</g>
			<g>
				<path d="M171.1,65.4c0-0.8,0.2-1.5,0.6-2s0.9-0.7,1.5-0.7s1.1,0.2,1.5,0.7v-0.6h0.8V68c0,0.7-0.2,1.2-0.6,1.6
					c-0.4,0.4-1,0.6-1.6,0.6c-0.4,0-0.8-0.1-1.1-0.2s-0.6-0.4-0.8-0.7l0.5-0.5c0.4,0.5,0.9,0.7,1.4,0.7c0.4,0,0.8-0.1,1-0.4
					c0.2-0.2,0.4-0.6,0.4-1v-0.5c-0.4,0.4-0.9,0.6-1.5,0.6s-1.1-0.2-1.5-0.7C171.3,66.9,171.1,66.3,171.1,65.4z M172,65.5
					c0,0.6,0.1,1.1,0.4,1.4s0.6,0.5,1,0.5c0.6,0,1-0.3,1.3-0.8v-2.4c-0.3-0.5-0.7-0.8-1.2-0.8c-0.4,0-0.8,0.2-1,0.5
					S172,64.8,172,65.5z"/>
				<path d="M177.1,68.1V61h2c0.6,0,1.2,0.1,1.6,0.4s0.8,0.7,1.1,1.2s0.4,1.1,0.4,1.7v0.5c0,0.7-0.1,1.3-0.4,1.8
					c-0.3,0.5-0.6,0.9-1.1,1.2c-0.5,0.3-1,0.4-1.7,0.4h-1.9V68.1z M178,61.7v5.6h1c0.7,0,1.3-0.2,1.7-0.7c0.4-0.4,0.6-1.1,0.6-1.9
					v-0.4c0-0.8-0.2-1.4-0.6-1.9c-0.4-0.4-0.9-0.7-1.6-0.7H178z"/>
				<path d="M189.1,68.1h-0.9l-3.6-5.5v5.5h-0.9V61h0.9l3.6,5.5V61h0.9V68.1z"/>
				<path d="M194.7,66.2h-3l-0.7,1.9h-1l2.7-7.1h0.8l2.7,7.1h-1L194.7,66.2z M192,65.5h2.4l-1.2-3.3L192,65.5z"/>
			</g>
			<rect x="0.8" y="78.9" class="st14" width="59.3" height="13.8"/>
			<g>
				<path d="M10.1,87.3h-3l-0.7,1.9h-1l2.7-7.1h0.8l2.7,7.1h-1L10.1,87.3z M7.4,86.5h2.4l-1.2-3.3L7.4,86.5z"/>
				<path d="M13.7,83.9v0.6c0.4-0.5,0.9-0.7,1.6-0.7s1.2,0.3,1.5,0.8c0.2-0.3,0.4-0.5,0.7-0.6c0.3-0.2,0.6-0.2,1-0.2
					c1.2,0,1.7,0.6,1.8,1.8v3.5h-0.9v-3.5c0-0.4-0.1-0.7-0.3-0.8c-0.2-0.2-0.5-0.3-0.9-0.3c-0.3,0-0.6,0.1-0.8,0.3
					C17.2,85,17,85.3,17,85.6v3.5h-0.9v-3.5c0-0.8-0.4-1.2-1.1-1.2c-0.6,0-1,0.3-1.2,0.8v3.9h-0.9v-5.3L13.7,83.9L13.7,83.9z"/>
				<path d="M26.4,86.6c0,0.8-0.2,1.5-0.6,1.9c-0.4,0.5-0.9,0.7-1.5,0.7s-1.1-0.2-1.5-0.6v2.5h-0.9v-7.3h0.8v0.6
					c0.4-0.5,0.9-0.7,1.5-0.7s1.1,0.2,1.5,0.7C26.2,85,26.4,85.6,26.4,86.6L26.4,86.6z M25.5,86.5c0-0.6-0.1-1.1-0.4-1.4
					s-0.6-0.5-1-0.5c-0.5,0-1,0.2-1.2,0.7v2.5c0.3,0.5,0.7,0.7,1.2,0.7c0.4,0,0.8-0.2,1-0.5C25.4,87.6,25.5,87.1,25.5,86.5z"/>
				<path d="M28.8,89.1h-0.9v-7.5h0.9V89.1z"/>
				<path d="M30.6,82.5c0-0.1,0-0.3,0.1-0.4s0.2-0.2,0.4-0.2s0.3,0.1,0.4,0.2s0.1,0.2,0.1,0.4s0,0.3-0.1,0.4S31.3,83,31.1,83
					s-0.3,0-0.4-0.1C30.7,82.7,30.6,82.6,30.6,82.5z M31.6,89.1h-0.9v-5.3h0.9V89.1z"/>
				<path d="M35.5,88.5c0.3,0,0.6-0.1,0.8-0.3s0.4-0.4,0.4-0.7h0.9c0,0.3-0.1,0.6-0.3,0.9s-0.4,0.5-0.8,0.7c-0.3,0.2-0.7,0.2-1,0.2
					c-0.7,0-1.3-0.2-1.7-0.7c-0.4-0.5-0.6-1.1-0.6-2v-0.2c0-0.5,0.1-1,0.3-1.4s0.5-0.7,0.8-0.9c0.4-0.2,0.8-0.3,1.3-0.3
					c0.6,0,1.1,0.2,1.5,0.5c0.4,0.4,0.6,0.8,0.6,1.4h-0.9c0-0.3-0.2-0.6-0.4-0.8c-0.2-0.2-0.5-0.3-0.9-0.3c-0.5,0-0.8,0.2-1.1,0.5
					c-0.3,0.3-0.4,0.8-0.4,1.4v0.2c0,0.6,0.1,1.1,0.4,1.4C34.6,88.3,35,88.5,35.5,88.5z"/>
				<path d="M38.6,86.4c0-0.5,0.1-1,0.3-1.4c0.2-0.4,0.5-0.7,0.8-1c0.4-0.2,0.8-0.3,1.2-0.3c0.7,0,1.3,0.2,1.7,0.7
					c0.4,0.5,0.7,1.2,0.7,2v0.1c0,0.5-0.1,1-0.3,1.4c-0.2,0.4-0.5,0.7-0.8,1c-0.4,0.2-0.8,0.3-1.3,0.3c-0.7,0-1.3-0.2-1.7-0.7
					C38.9,88,38.6,87.3,38.6,86.4L38.6,86.4z M39.6,86.6c0,0.6,0.1,1.1,0.4,1.4c0.3,0.4,0.6,0.5,1.1,0.5s0.8-0.2,1.1-0.5
					c0.3-0.4,0.4-0.9,0.4-1.5s-0.1-1-0.4-1.4s-0.6-0.5-1.1-0.5c-0.4,0-0.8,0.2-1.1,0.5C39.7,85.4,39.6,85.9,39.6,86.6z"/>
				<path d="M45.8,83.9v0.7c0.4-0.5,0.9-0.8,1.6-0.8c1.1,0,1.7,0.6,1.7,1.9v3.5h-0.9v-3.5c0-0.4-0.1-0.7-0.3-0.8
					c-0.2-0.2-0.4-0.3-0.8-0.3c-0.3,0-0.5,0.1-0.8,0.2s-0.4,0.4-0.5,0.6v3.8h-0.9v-5.3L45.8,83.9L45.8,83.9z"/>
				<path d="M53.6,89.1h-0.9v-6l-1.8,0.7V83l2.6-1h0.1L53.6,89.1L53.6,89.1z"/>
			</g>
			<rect x="136" y="36.7" class="st14" width="59.3" height="14.1"/>
			<g>
				<path d="M145.4,45.3h-3l-0.7,1.9h-1l2.7-7.1h0.8l2.7,7.1h-1L145.4,45.3z M142.7,44.5h2.4l-1.2-3.3L142.7,44.5z"/>
				<path d="M149,41.9v0.6c0.4-0.5,0.9-0.7,1.6-0.7c0.7,0,1.2,0.3,1.5,0.8c0.2-0.3,0.4-0.5,0.7-0.6c0.3-0.2,0.6-0.2,1-0.2
					c1.2,0,1.7,0.6,1.8,1.8v3.5h-0.9v-3.5c0-0.4-0.1-0.7-0.3-0.8c-0.2-0.2-0.5-0.3-0.9-0.3c-0.3,0-0.6,0.1-0.8,0.3s-0.4,0.5-0.4,0.8
					v3.5h-0.9v-3.5c0-0.8-0.4-1.2-1.1-1.2c-0.6,0-1,0.3-1.2,0.8v3.9h-0.9v-5.3h0.8V41.9z"/>
				<path d="M161.7,44.6c0,0.8-0.2,1.5-0.6,1.9s-0.9,0.7-1.5,0.7s-1.1-0.2-1.5-0.6v2.5h-0.9v-7.3h0.8v0.6c0.4-0.5,0.9-0.7,1.5-0.7
					s1.1,0.2,1.5,0.7C161.5,43,161.7,43.6,161.7,44.6L161.7,44.6z M160.8,44.5c0-0.6-0.1-1.1-0.4-1.4s-0.6-0.5-1-0.5
					c-0.5,0-1,0.2-1.2,0.7v2.5c0.3,0.5,0.7,0.7,1.2,0.7c0.4,0,0.8-0.2,1-0.5C160.6,45.6,160.8,45.1,160.8,44.5z"/>
				<path d="M164.1,47.1h-0.9v-7.5h0.9V47.1z"/>
				<path d="M165.9,40.5c0-0.1,0-0.3,0.1-0.4c0.1-0.1,0.2-0.2,0.4-0.2s0.3,0.1,0.4,0.2s0.1,0.2,0.1,0.4s0,0.3-0.1,0.4
					s-0.2,0.1-0.4,0.1s-0.3,0-0.4-0.1C165.9,40.7,165.9,40.6,165.9,40.5z M166.8,47.1h-0.9v-5.3h0.9V47.1z"/>
				<path d="M170.7,46.5c0.3,0,0.6-0.1,0.8-0.3s0.4-0.4,0.4-0.7h0.9c0,0.3-0.1,0.6-0.3,0.9s-0.4,0.5-0.8,0.7c-0.3,0.2-0.7,0.2-1,0.2
					c-0.7,0-1.3-0.2-1.7-0.7s-0.6-1.1-0.6-2v-0.2c0-0.5,0.1-1,0.3-1.4s0.5-0.7,0.8-0.9c0.4-0.2,0.8-0.3,1.3-0.3
					c0.6,0,1.1,0.2,1.5,0.5c0.4,0.4,0.6,0.8,0.6,1.4H172c0-0.3-0.2-0.6-0.4-0.8s-0.5-0.3-0.9-0.3c-0.5,0-0.8,0.2-1.1,0.5
					s-0.4,0.8-0.4,1.4v0.2c0,0.6,0.1,1.1,0.4,1.4S170.2,46.5,170.7,46.5z"/>
				<path d="M173.9,44.4c0-0.5,0.1-1,0.3-1.4s0.5-0.7,0.8-1c0.4-0.2,0.8-0.3,1.2-0.3c0.7,0,1.3,0.2,1.7,0.7s0.7,1.2,0.7,2v0.1
					c0,0.5-0.1,1-0.3,1.4s-0.5,0.7-0.8,1c-0.4,0.2-0.8,0.3-1.3,0.3c-0.7,0-1.3-0.2-1.7-0.7C174.1,46,173.9,45.3,173.9,44.4
					L173.9,44.4z M174.8,44.6c0,0.6,0.1,1.1,0.4,1.4c0.3,0.4,0.6,0.5,1.1,0.5s0.8-0.2,1.1-0.5s0.4-0.9,0.4-1.5s-0.1-1-0.4-1.4
					c-0.3-0.4-0.6-0.5-1.1-0.5c-0.4,0-0.8,0.2-1.1,0.5S174.8,43.9,174.8,44.6z"/>
				<path d="M181,41.9v0.7c0.4-0.5,0.9-0.8,1.6-0.8c1.1,0,1.7,0.6,1.7,1.9v3.5h-0.9v-3.5c0-0.4-0.1-0.7-0.3-0.8
					c-0.2-0.2-0.4-0.3-0.8-0.3c-0.3,0-0.5,0.1-0.8,0.2s-0.4,0.4-0.5,0.6v3.8h-0.9v-5.3C180.1,41.9,181,41.9,181,41.9z"/>
				<path d="M190.5,47.1h-4.7v-0.6l2.5-2.7c0.4-0.4,0.6-0.7,0.8-1c0.1-0.3,0.2-0.5,0.2-0.8c0-0.4-0.1-0.7-0.3-0.9s-0.5-0.4-0.9-0.4
					s-0.8,0.1-1,0.4c-0.2,0.3-0.4,0.6-0.4,1.1h-0.9c0-0.7,0.2-1.2,0.6-1.6c0.4-0.4,1-0.6,1.7-0.6s1.2,0.2,1.6,0.5s0.6,0.8,0.6,1.4
					c0,0.7-0.4,1.5-1.3,2.5l-1.9,2.1h3.6v0.6H190.5z"/>
			</g>
			<g>
				<g>
					<path class="st12" d="M103.9,82.9h-2v3.5h-1.1v-8.5h2.8c1,0,1.7,0.2,2.2,0.7s0.8,1.1,0.8,1.9c0,0.5-0.1,1-0.4,1.4
						s-0.7,0.7-1.2,0.9l2,3.6v0.1h-1.2L103.9,82.9z M101.9,81.9h1.7c0.6,0,1-0.1,1.3-0.4s0.5-0.7,0.5-1.2s-0.2-0.9-0.5-1.2
						s-0.8-0.4-1.4-0.4h-1.7v3.2H101.9z"/>
					<path class="st12" d="M111.1,86.3H110v-5.5l-2.2,0.8v-1l3.1-1.2h0.2V86.3z"/>
					<path class="st12" d="M117.8,87.2h-5.4v-0.9h5.4V87.2z"/>
				</g>
			</g>
			<g>
				<g>
					<path class="st13" d="M165.4,82.9h-2v3.5h-1.1v-8.5h2.8c1,0,1.7,0.2,2.2,0.7s0.8,1.1,0.8,1.9c0,0.5-0.1,1-0.4,1.4
						s-0.7,0.7-1.2,0.9l2,3.6v0.1h-1.2L165.4,82.9z M163.4,81.9h1.7c0.6,0,1-0.1,1.3-0.4s0.5-0.7,0.5-1.2s-0.2-0.9-0.5-1.2
						s-0.8-0.4-1.4-0.4h-1.7v3.2H163.4z"/>
					<path class="st13" d="M174.6,86.3h-5.2v-0.8l3-2.7c0.5-0.4,0.8-0.8,0.8-1.2v-0.3c0-0.3-0.1-0.6-0.4-0.8s-0.6-0.3-1-0.3
						c-0.5,0-0.9,0.1-1.2,0.4s-0.4,0.6-0.4,1.1h-1.1c0-0.4,0.1-0.8,0.4-1.2s0.6-0.7,1-0.9s0.9-0.3,1.4-0.3c0.7,0,1.3,0.2,1.8,0.5
						s0.7,0.8,0.7,1.4c0,0.7-0.4,1.4-1.2,2.1l-2.2,2h3.7L174.6,86.3L174.6,86.3z"/>
				</g>
			</g>
			<line class="st15" x1="11.2" y1="56.4" x2="16.7" y2="62.7"/>
			<g>
				<g>
					<line class="st16" x1="16.3" y1="62.6" x2="25.7" y2="62.6"/>
					<g>
						<polygon class="st17" points="30.2,62.6 23.8,65.2 25.3,62.6 23.8,60 						"/>
					</g>
				</g>
			</g>
			<line class="st15" x1="53.8" y1="53.2" x2="62" y2="58.2"/>
			<g>
				<g>
					<line class="st18" x1="61.7" y1="58.1" x2="68.8" y2="58.1"/>
					<g>
						<polygon class="st19" points="73.3,58.1 67,60.7 68.5,58.1 67,55.5 						"/>
					</g>
				</g>
			</g>
			<line class="st18" x1="95.7" y1="76.3" x2="92.5" y2="74.3"/>
			<line class="st20" x1="98.8" y1="78.1" x2="95.5" y2="76.2"/>
			<g>
				<g>
					<line class="st21" x1="92.8" y1="74.4" x2="85.7" y2="74.4"/>
					<g>
						<polygon class="st22" points="81.2,74.4 87.5,71.8 86,74.4 87.5,77 						"/>
					</g>
				</g>
			</g>
			<g>
				<g>
					<line class="st18" x1="151.9" y1="71" x2="144.7" y2="71"/>
					<g>
						<polygon class="st19" points="140.2,71 146.6,68.4 145.1,71 146.6,73.6 						"/>
					</g>
				</g>
			</g>
			<line class="st15" x1="159.7" y1="75.9" x2="151.6" y2="70.9"/>
			
				<linearGradient id="SVGID_1_" gradientUnits="userSpaceOnUse" x1="-1168.7499" y1="-1193.5874" x2="-1130.0498" y2="-1193.5874" gradientTransform="matrix(0 -1 -1 0 -1095.7374 -998.6498)">
				<stop  offset="0" style="stop-color:#1C3952"/>
				<stop  offset="1" style="stop-color:#15CD94"/>
			</linearGradient>
			<rect x="0.4" y="131.4" class="st3" width="194.9" height="38.7"/>
			<g>
				<path class="st0" d="M39.8,141.4h-2.3v6.3h-0.9v-6.3h-2.3v-0.8h5.5L39.8,141.4L39.8,141.4z"/>
				<path class="st0" d="M44.3,147.7c-0.1-0.1-0.1-0.3-0.1-0.6c-0.4,0.4-0.9,0.7-1.5,0.7c-0.5,0-0.9-0.1-1.3-0.4
					c-0.3-0.3-0.5-0.7-0.5-1.1c0-0.5,0.2-1,0.6-1.3s1-0.5,1.8-0.5h0.9v-0.4c0-0.3-0.1-0.6-0.3-0.8c-0.2-0.2-0.5-0.3-0.8-0.3
					s-0.6,0.1-0.8,0.2c-0.2,0.2-0.3,0.4-0.3,0.6h-1c0-0.3,0.1-0.5,0.3-0.8c0.2-0.2,0.4-0.4,0.8-0.6c0.3-0.1,0.7-0.2,1.1-0.2
					c0.6,0,1.1,0.2,1.4,0.5s0.5,0.7,0.5,1.3v2.4c0,0.5,0.1,0.9,0.2,1.2v0.1L44.3,147.7L44.3,147.7z M42.8,147c0.3,0,0.6-0.1,0.8-0.2
					s0.4-0.3,0.6-0.6v-1.1h-0.7c-1.1,0-1.7,0.3-1.7,1c0,0.3,0.1,0.5,0.3,0.7C42.2,146.9,42.5,147,42.8,147z"/>
				<path class="st0" d="M49.3,143.2c-0.1,0-0.3,0-0.4,0c-0.6,0-1,0.3-1.2,0.8v3.8h-0.9v-5.3h0.9v0.6c0.3-0.5,0.7-0.7,1.3-0.7
					c0.2,0,0.3,0,0.4,0.1L49.3,143.2L49.3,143.2z"/>
				<path class="st0" d="M50.2,145c0-0.8,0.2-1.5,0.6-2s0.9-0.7,1.5-0.7s1.1,0.2,1.5,0.7v-0.6h0.8v5.2c0,0.7-0.2,1.2-0.6,1.6
					c-0.4,0.4-0.9,0.6-1.6,0.6c-0.4,0-0.8-0.1-1.1-0.2c-0.4-0.2-0.6-0.4-0.8-0.7l0.5-0.5c0.4,0.5,0.9,0.7,1.4,0.7
					c0.4,0,0.8-0.1,1-0.4c0.2-0.2,0.4-0.6,0.4-1v-0.5c-0.4,0.4-0.9,0.6-1.5,0.6s-1.1-0.2-1.5-0.7C50.4,146.6,50.2,145.9,50.2,145z
					 M51.1,145.1c0,0.6,0.1,1.1,0.4,1.4c0.2,0.3,0.6,0.5,1,0.5c0.6,0,1-0.3,1.3-0.8v-2.4c-0.3-0.5-0.7-0.8-1.2-0.8
					c-0.4,0-0.8,0.2-1,0.5C51.3,144,51.1,144.5,51.1,145.1z"/>
				<path class="st0" d="M58.6,147.8c-0.7,0-1.3-0.2-1.7-0.7c-0.4-0.5-0.7-1.1-0.7-1.9V145c0-0.5,0.1-1,0.3-1.4
					c0.2-0.4,0.5-0.7,0.8-1c0.4-0.2,0.7-0.3,1.2-0.3c0.7,0,1.2,0.2,1.6,0.7s0.6,1.1,0.6,1.9v0.4H57c0,0.5,0.2,0.9,0.5,1.3
					c0.3,0.3,0.7,0.5,1.1,0.5c0.3,0,0.6-0.1,0.8-0.2c0.2-0.1,0.4-0.3,0.6-0.5l0.6,0.4C60.1,147.5,59.4,147.8,58.6,147.8z
					 M58.5,143.1c-0.4,0-0.7,0.1-0.9,0.4c-0.2,0.3-0.4,0.6-0.5,1.1h2.6v-0.1c0-0.5-0.1-0.8-0.4-1.1
					C59.1,143.2,58.8,143.1,58.5,143.1z"/>
				<path class="st0" d="M63.2,141.1v1.3h1v0.7h-1v3.3c0,0.2,0,0.4,0.1,0.5s0.2,0.2,0.4,0.2c0.1,0,0.2,0,0.4-0.1v0.7
					c-0.2,0.1-0.5,0.1-0.7,0.1c-0.4,0-0.7-0.1-0.9-0.4s-0.3-0.6-0.3-1v-3.3h-1v-0.7h1v-1.3H63.2z"/>
				<path class="st0" d="M71.1,144.8h-1.7v2.9h-0.9v-7.1h2.4c0.8,0,1.4,0.2,1.8,0.5c0.4,0.4,0.6,0.9,0.6,1.6c0,0.4-0.1,0.8-0.4,1.2
					c-0.2,0.3-0.6,0.6-1,0.7l1.7,3v0.1h-1L71.1,144.8z M69.4,144.1h1.4c0.5,0,0.8-0.1,1.1-0.4c0.3-0.2,0.4-0.6,0.4-1s-0.1-0.8-0.4-1
					s-0.6-0.4-1.1-0.4h-1.4V144.1z"/>
				<path class="st0" d="M77,147.8c-0.7,0-1.3-0.2-1.7-0.7c-0.4-0.5-0.7-1.1-0.7-1.9V145c0-0.5,0.1-1,0.3-1.4c0.2-0.4,0.5-0.7,0.8-1
					c0.4-0.2,0.8-0.3,1.2-0.3c0.7,0,1.2,0.2,1.6,0.7s0.6,1.1,0.6,1.9v0.4h-3.6c0,0.5,0.2,0.9,0.5,1.3c0.3,0.3,0.7,0.5,1.1,0.5
					c0.3,0,0.6-0.1,0.8-0.2c0.2-0.1,0.4-0.3,0.6-0.5l0.6,0.4C78.5,147.5,77.9,147.8,77,147.8z M76.9,143.1c-0.4,0-0.7,0.1-0.9,0.4
					c-0.2,0.3-0.4,0.6-0.5,1.1h2.6v-0.1c0-0.5-0.2-0.8-0.4-1.1C77.6,143.2,77.3,143.1,76.9,143.1z"/>
				<path class="st0" d="M80.2,145c0-0.8,0.2-1.5,0.6-2s0.9-0.7,1.5-0.7s1.1,0.2,1.5,0.7v-0.6h0.8v5.2c0,0.7-0.2,1.2-0.6,1.6
					c-0.4,0.4-1,0.6-1.6,0.6c-0.4,0-0.8-0.1-1.1-0.2c-0.4-0.2-0.6-0.4-0.8-0.7l0.5-0.5c0.4,0.5,0.9,0.7,1.4,0.7c0.4,0,0.8-0.1,1-0.4
					c0.2-0.2,0.4-0.6,0.4-1v-0.5c-0.4,0.4-0.9,0.6-1.5,0.6s-1.1-0.2-1.5-0.7C80.4,146.6,80.2,145.9,80.2,145z M81.1,145.1
					c0,0.6,0.1,1.1,0.4,1.4c0.2,0.3,0.6,0.5,1,0.5c0.6,0,1-0.3,1.3-0.8v-2.4c-0.3-0.5-0.7-0.8-1.2-0.8c-0.4,0-0.8,0.2-1,0.5
					C81.2,144,81.1,144.5,81.1,145.1z"/>
				<path class="st0" d="M86.3,141c0-0.1,0-0.3,0.1-0.4c0.1-0.1,0.2-0.2,0.4-0.2s0.3,0.1,0.4,0.2c0.1,0.1,0.1,0.2,0.1,0.4
					s0,0.3-0.1,0.4c-0.1,0.1-0.2,0.1-0.4,0.1s-0.3,0-0.4-0.1C86.4,141.3,86.3,141.2,86.3,141z M87.3,147.7h-0.9v-5.3h0.9V147.7z"/>
				<path class="st0" d="M88.8,145c0-0.5,0.1-1,0.3-1.4s0.5-0.7,0.8-1c0.4-0.2,0.8-0.3,1.2-0.3c0.7,0,1.3,0.2,1.7,0.7s0.7,1.2,0.7,2
					v0.1c0,0.5-0.1,1-0.3,1.4s-0.5,0.7-0.8,1c-0.4,0.2-0.8,0.3-1.3,0.3c-0.7,0-1.3-0.2-1.7-0.7S88.8,145.9,88.8,145L88.8,145z
					 M89.7,145.1c0,0.6,0.1,1.1,0.4,1.4c0.3,0.4,0.6,0.5,1.1,0.5s0.8-0.2,1.1-0.5c0.3-0.4,0.4-0.9,0.4-1.5s-0.1-1-0.4-1.4
					c-0.3-0.4-0.6-0.5-1.1-0.5c-0.4,0-0.8,0.2-1.1,0.5C89.9,144,89.7,144.5,89.7,145.1z"/>
				<path class="st0" d="M95.9,142.4v0.7c0.4-0.5,0.9-0.8,1.6-0.8c1.1,0,1.7,0.6,1.7,1.9v3.5h-0.9v-3.5c0-0.4-0.1-0.7-0.3-0.8
					c-0.2-0.2-0.4-0.3-0.8-0.3c-0.3,0-0.6,0.1-0.8,0.2c-0.2,0.2-0.4,0.4-0.5,0.6v3.8H95v-5.3L95.9,142.4L95.9,142.4z"/>
				<path class="st0" d="M104,146.3c0-0.2-0.1-0.4-0.3-0.6c-0.2-0.1-0.5-0.3-1-0.3c-0.5-0.1-0.8-0.2-1.1-0.4s-0.5-0.3-0.6-0.5
					s-0.2-0.4-0.2-0.7c0-0.4,0.2-0.8,0.5-1.1c0.4-0.3,0.8-0.4,1.4-0.4c0.6,0,1.1,0.2,1.5,0.5s0.6,0.7,0.6,1.2h-0.9
					c0-0.2-0.1-0.5-0.3-0.6c-0.2-0.2-0.5-0.3-0.8-0.3s-0.6,0.1-0.8,0.2c-0.2,0.1-0.3,0.3-0.3,0.6c0,0.2,0.1,0.4,0.3,0.5
					s0.5,0.2,0.9,0.3c0.5,0.1,0.8,0.2,1.1,0.4c0.3,0.1,0.5,0.3,0.6,0.5s0.2,0.4,0.2,0.7c0,0.5-0.2,0.9-0.6,1.1
					c-0.4,0.3-0.9,0.4-1.5,0.4c-0.4,0-0.8-0.1-1.1-0.2c-0.3-0.1-0.6-0.4-0.8-0.6c-0.2-0.3-0.3-0.6-0.3-0.9h0.9
					c0,0.3,0.1,0.5,0.4,0.7c0.2,0.2,0.5,0.3,0.9,0.3c0.3,0,0.6-0.1,0.8-0.2C103.9,146.7,104,146.5,104,146.3z"/>
				<path class="st0" d="M108.9,145c0-0.5,0.1-1,0.3-1.4s0.5-0.7,0.8-1c0.4-0.2,0.8-0.3,1.2-0.3c0.7,0,1.3,0.2,1.7,0.7
					s0.7,1.2,0.7,2v0.1c0,0.5-0.1,1-0.3,1.4s-0.5,0.7-0.8,1c-0.4,0.2-0.8,0.3-1.3,0.3c-0.7,0-1.3-0.2-1.7-0.7S108.9,145.9,108.9,145
					L108.9,145z M109.8,145.1c0,0.6,0.1,1.1,0.4,1.4c0.3,0.4,0.6,0.5,1.1,0.5s0.8-0.2,1.1-0.5c0.3-0.4,0.4-0.9,0.4-1.5
					s-0.1-1-0.4-1.4c-0.3-0.4-0.6-0.5-1.1-0.5c-0.4,0-0.8,0.2-1.1,0.5C110,144,109.8,144.5,109.8,145.1z"/>
				<path class="st0" d="M115.6,147.7v-4.6h-0.8v-0.7h0.8v-0.5c0-0.6,0.2-1,0.5-1.3s0.7-0.5,1.3-0.5c0.2,0,0.4,0,0.6,0.1v0.7
					c-0.2,0-0.3,0-0.5,0c-0.3,0-0.5,0.1-0.7,0.3s-0.2,0.4-0.2,0.7v0.6h1.1v0.7h-1.1v4.6h-1V147.7z"/>
				<path class="st0" d="M122.9,147.7H122v-7.1h0.9V147.7z"/>
				<path class="st0" d="M125.6,142.4v0.7c0.4-0.5,0.9-0.8,1.6-0.8c1.1,0,1.7,0.6,1.7,1.9v3.5H128v-3.5c0-0.4-0.1-0.7-0.3-0.8
					c-0.2-0.2-0.4-0.3-0.8-0.3c-0.3,0-0.6,0.1-0.8,0.2c-0.2,0.2-0.4,0.4-0.5,0.6v3.8h-0.9v-5.3L125.6,142.4L125.6,142.4z"/>
				<path class="st0" d="M131.8,141.1v1.3h1v0.7h-1v3.3c0,0.2,0,0.4,0.1,0.5s0.2,0.2,0.4,0.2c0.1,0,0.2,0,0.4-0.1v0.7
					c-0.2,0.1-0.5,0.1-0.7,0.1c-0.4,0-0.7-0.1-0.9-0.4s-0.3-0.6-0.3-1v-3.3h-1v-0.7h1v-1.3H131.8z"/>
				<path class="st0" d="M136.4,147.8c-0.7,0-1.3-0.2-1.7-0.7s-0.7-1.1-0.7-1.9V145c0-0.5,0.1-1,0.3-1.4s0.5-0.7,0.8-1
					c0.4-0.2,0.7-0.3,1.2-0.3c0.7,0,1.2,0.2,1.6,0.7c0.4,0.5,0.6,1.1,0.6,1.9v0.4h-3.6c0,0.5,0.2,0.9,0.5,1.3
					c0.3,0.3,0.7,0.5,1.1,0.5c0.3,0,0.6-0.1,0.8-0.2c0.2-0.1,0.4-0.3,0.6-0.5l0.6,0.4C137.9,147.5,137.3,147.8,136.4,147.8z
					 M136.3,143.1c-0.4,0-0.7,0.1-0.9,0.4c-0.2,0.3-0.4,0.6-0.5,1.1h2.6v-0.1c0-0.5-0.1-0.8-0.4-1.1
					C136.9,143.2,136.6,143.1,136.3,143.1z"/>
				<path class="st0" d="M142.3,143.2c-0.1,0-0.3,0-0.4,0c-0.6,0-1,0.3-1.2,0.8v3.8h-0.9v-5.3h0.9v0.6c0.3-0.5,0.7-0.7,1.3-0.7
					c0.2,0,0.3,0,0.4,0.1L142.3,143.2L142.3,143.2z"/>
				<path class="st0" d="M145.7,147.8c-0.7,0-1.3-0.2-1.7-0.7s-0.7-1.1-0.7-1.9V145c0-0.5,0.1-1,0.3-1.4s0.5-0.7,0.8-1
					c0.4-0.2,0.7-0.3,1.2-0.3c0.7,0,1.2,0.2,1.6,0.7c0.4,0.5,0.6,1.1,0.6,1.9v0.4h-3.6c0,0.5,0.2,0.9,0.5,1.3
					c0.3,0.3,0.7,0.5,1.1,0.5c0.3,0,0.6-0.1,0.8-0.2c0.2-0.1,0.4-0.3,0.6-0.5l0.6,0.4C147.2,147.5,146.6,147.8,145.7,147.8z
					 M145.6,143.1c-0.4,0-0.7,0.1-0.9,0.4c-0.2,0.3-0.4,0.6-0.5,1.1h2.6v-0.1c0-0.5-0.1-0.8-0.4-1.1
					C146.2,143.2,145.9,143.1,145.6,143.1z"/>
				<path class="st0" d="M152.2,146.3c0-0.2-0.1-0.4-0.3-0.6c-0.2-0.1-0.5-0.3-1-0.3c-0.5-0.1-0.8-0.2-1.1-0.4s-0.5-0.3-0.6-0.5
					s-0.2-0.4-0.2-0.7c0-0.4,0.2-0.8,0.5-1.1c0.4-0.3,0.8-0.4,1.4-0.4c0.6,0,1.1,0.2,1.5,0.5s0.6,0.7,0.6,1.2h-0.9
					c0-0.2-0.1-0.5-0.3-0.6c-0.2-0.2-0.5-0.3-0.8-0.3s-0.6,0.1-0.8,0.2c-0.2,0.1-0.3,0.3-0.3,0.6c0,0.2,0.1,0.4,0.3,0.5
					s0.5,0.2,0.9,0.3c0.5,0.1,0.8,0.2,1.1,0.4c0.3,0.1,0.5,0.3,0.6,0.5s0.2,0.4,0.2,0.7c0,0.5-0.2,0.9-0.6,1.1
					c-0.4,0.3-0.9,0.4-1.5,0.4c-0.4,0-0.8-0.1-1.1-0.2c-0.3-0.1-0.6-0.4-0.8-0.6c-0.2-0.3-0.3-0.6-0.3-0.9h0.9
					c0,0.3,0.1,0.5,0.4,0.7c0.2,0.2,0.5,0.3,0.9,0.3c0.3,0,0.6-0.1,0.8-0.2C152.1,146.7,152.2,146.5,152.2,146.3z"/>
				<path class="st0" d="M155.8,141.1v1.3h1v0.7h-1v3.3c0,0.2,0,0.4,0.1,0.5s0.2,0.2,0.4,0.2c0.1,0,0.2,0,0.4-0.1v0.7
					c-0.2,0.1-0.5,0.1-0.7,0.1c-0.4,0-0.7-0.1-0.9-0.4s-0.3-0.6-0.3-1v-3.3h-1v-0.7h1v-1.3H155.8z"/>
			</g>
			<g>
				<g>
					<path class="st0" d="M23.6,149.1h-5.7v-1l2.8-3.1c0.4-0.5,0.7-0.8,0.9-1.1s0.3-0.6,0.3-0.9c0-0.4-0.1-0.7-0.3-1
						s-0.5-0.4-0.9-0.4c-0.5,0-0.8,0.1-1.1,0.4s-0.4,0.7-0.4,1.2h-1.4c0-0.5,0.1-1,0.4-1.4s0.6-0.7,1-1s0.9-0.3,1.5-0.3
						c0.8,0,1.5,0.2,2,0.6s0.7,1,0.7,1.7c0,0.4-0.1,0.9-0.4,1.3s-0.6,1-1.2,1.6l-2.1,2.2h4L23.6,149.1L23.6,149.1z"/>
				</g>
				<circle class="st4" cx="20.7" cy="144.9" r="8.1"/>
			</g>
		</g>
	</g>
</g>
</svg>
