<?xml version="1.0" encoding="utf-8"?>
<!-- Generator: Adobe Illustrator 21.1.0, SVG Export Plug-In . SVG Version: 6.00 Build 0)  -->
<!DOCTYPE svg PUBLIC "-//W3C//DTD SVG 1.1//EN" "http://www.w3.org/Graphics/SVG/1.1/DTD/svg11.dtd">
<svg version="1.1" xmlns="http://www.w3.org/2000/svg" xmlns:xlink="http://www.w3.org/1999/xlink" x="0px" y="0px"
	 viewBox="0 0 194.9 170.4" style="enable-background:new 0 0 194.9 170.4;" xml:space="preserve">
<style type="text/css">
	.st0{fill:#FFFFFF;}
	.st1{fill:#3AA47D;}
	.st2{fill:#373E49;}
	.st3{fill:url(#SVGID_1_);}
	.st4{fill:none;stroke:#FFFFFF;stroke-width:0.9001;stroke-miterlimit:10;}
	.st5{fill:#2F5597;}
	.st6{fill:#7F6000;}
	.st7{fill:#B5B5B5;}
	.st8{fill:none;stroke:#ADADAD;stroke-width:9.554537e-02;stroke-miterlimit:10;}
	.st9{fill:#525252;}
	.st10{fill:#9C9C9C;}
	.st11{fill:#424242;}
	.st12{fill:#006AFF;}
	.st13{fill:#C96522;}
	.st14{fill:#C5E0B4;}
	.st15{fill:none;stroke:#FF0000;stroke-width:0.637;stroke-miterlimit:10;}
	.st16{fill:none;stroke:#0066FF;stroke-width:0.637;stroke-miterlimit:10;}
	.st17{fill:#0066FF;}
	.st18{fill:none;stroke:#FFC000;stroke-width:0.637;stroke-miterlimit:10;}
	.st19{fill:#FFC000;}
	.st20{fill:none;stroke:#00B050;stroke-width:0.637;stroke-miterlimit:10;}
	.st21{fill:none;stroke:#9DC3E6;stroke-width:0.637;stroke-miterlimit:10;}
	.st22{fill:#9DC3E6;}
	.st23{fill:url(#SVGID_2_);}
	.st24{fill:none;stroke:#FF2727;stroke-width:1.32;stroke-linecap:round;stroke-miterlimit:10;}
	.st25{fill:none;stroke:#2881FF;stroke-width:1.32;stroke-miterlimit:10;}
	.st26{fill:none;stroke:#5B7AAF;stroke-width:1.32;stroke-miterlimit:10;}
	.st27{fill:none;stroke:#BDD7EF;stroke-width:1.32;stroke-miterlimit:10;}
	.st28{fill:none;stroke:#2CC472;stroke-width:1.32;stroke-linecap:round;stroke-miterlimit:10;}
	.st29{fill:none;stroke:#FFC000;stroke-width:1.32;stroke-miterlimit:10;}
	.st30{fill:none;stroke:#21BF69;stroke-width:1.32;stroke-linecap:round;stroke-miterlimit:10;}
	.st31{fill:none;stroke:#A2883A;stroke-width:1.32;stroke-miterlimit:10;}
	.st32{fill:none;stroke:#997F2C;stroke-width:1.32;stroke-miterlimit:10;}
	.st33{fill:none;stroke:#FF5656;stroke-width:1.32;stroke-linecap:round;stroke-miterlimit:10;}
	.st34{fill:url(#SVGID_3_);}
	.st35{fill:none;stroke:#FF2727;stroke-width:0.9775;stroke-linecap:round;stroke-miterlimit:10;}
	.st36{fill:none;stroke:#2881FF;stroke-width:0.9775;stroke-miterlimit:10;}
	.st37{fill:none;stroke:#5B7AAF;stroke-width:0.9775;stroke-miterlimit:10;}
	.st38{fill:none;stroke:#BDD7EF;stroke-width:0.9775;stroke-miterlimit:10;}
	.st39{fill:none;stroke:#2CC472;stroke-width:0.9775;stroke-linecap:round;stroke-miterlimit:10;}
	.st40{fill:none;stroke:#FFC000;stroke-width:0.9775;stroke-miterlimit:10;}
	.st41{fill:none;stroke:#C96522;stroke-miterlimit:10;}
</style>
<g id="Layer_2">
</g>
<g id="Layer_4">
</g>
<g id="Layer_5">
	<g id="Layer_5_1_">
		<g>
			<rect x="16.7" y="59" class="st14" width="89.2" height="14.7"/>
			<g>
				<path d="M27.6,63.1h-2.3v6.3h-0.9v-6.3h-2.3v-0.8h5.5C27.6,62.3,27.6,63.1,27.6,63.1z"/>
				<path d="M32.1,69.4C32,69.3,32,69.1,32,68.8c-0.4,0.4-0.9,0.7-1.5,0.7c-0.5,0-0.9-0.1-1.3-0.4c-0.3-0.3-0.5-0.7-0.5-1.1
					c0-0.6,0.2-1,0.6-1.3s1-0.5,1.8-0.5H32v-0.4c0-0.3-0.1-0.6-0.3-0.8s-0.5-0.3-0.8-0.3s-0.6,0.1-0.8,0.2s-0.3,0.4-0.3,0.6h-0.9
					c0-0.3,0.1-0.5,0.3-0.8c0.2-0.2,0.4-0.4,0.8-0.6c0.3-0.1,0.7-0.2,1.1-0.2c0.6,0,1.1,0.2,1.4,0.5s0.5,0.7,0.5,1.3v2.4
					c0,0.5,0.1,0.9,0.2,1.2v0.1L32.1,69.4L32.1,69.4z M30.6,68.7c0.3,0,0.6-0.1,0.8-0.2s0.4-0.3,0.6-0.6v-1.1h-0.7
					c-1.1,0-1.7,0.3-1.7,1c0,0.3,0.1,0.5,0.3,0.7S30.3,68.7,30.6,68.7z"/>
				<path d="M37.1,64.9c-0.1,0-0.3,0-0.4,0c-0.6,0-1,0.3-1.2,0.8v3.8h-0.9v-5.3h0.9v0.6c0.3-0.5,0.7-0.7,1.3-0.7
					c0.2,0,0.3,0,0.4,0.1L37.1,64.9L37.1,64.9z"/>
				<path d="M38,66.7c0-0.8,0.2-1.5,0.6-2s0.9-0.7,1.5-0.7s1.1,0.2,1.5,0.7v-0.6h0.8v5.2c0,0.7-0.2,1.2-0.6,1.6
					c-0.4,0.4-1,0.6-1.6,0.6c-0.4,0-0.8-0.1-1.1-0.2s-0.6-0.4-0.8-0.7l0.5-0.6c0.4,0.5,0.9,0.7,1.4,0.7c0.4,0,0.8-0.1,1-0.4
					c0.2-0.2,0.4-0.6,0.4-1v-0.5c-0.4,0.4-0.9,0.6-1.5,0.6s-1.1-0.2-1.5-0.7S38,67.6,38,66.7z M38.9,66.8c0,0.6,0.1,1.1,0.4,1.4
					s0.6,0.5,1,0.5c0.6,0,1-0.3,1.3-0.8v-2.4c-0.3-0.5-0.7-0.8-1.2-0.8c-0.4,0-0.8,0.2-1,0.5S38.9,66.1,38.9,66.8z"/>
				<path d="M46.4,69.5c-0.7,0-1.3-0.2-1.7-0.7S44,67.7,44,66.9v-0.2c0-0.5,0.1-1,0.3-1.4s0.5-0.7,0.8-1c0.4-0.2,0.8-0.3,1.2-0.3
					c0.7,0,1.2,0.2,1.6,0.7s0.6,1.1,0.6,1.9V67h-3.7c0,0.5,0.2,0.9,0.5,1.3c0.3,0.3,0.7,0.5,1.1,0.5c0.3,0,0.6-0.1,0.8-0.2
					s0.4-0.3,0.6-0.5l0.6,0.4C47.9,69.2,47.2,69.5,46.4,69.5z M46.2,64.8c-0.4,0-0.7,0.1-0.9,0.4s-0.4,0.6-0.5,1.1h2.6v-0.1
					c0-0.5-0.1-0.8-0.4-1.1S46.6,64.8,46.2,64.8z"/>
				<path d="M51,62.8v1.3h1v0.7h-1v3.3c0,0.2,0,0.4,0.1,0.5s0.2,0.2,0.4,0.2c0.1,0,0.2,0,0.4-0.1v0.7c-0.2,0.1-0.5,0.1-0.7,0.1
					c-0.4,0-0.7-0.1-0.9-0.4s-0.3-0.6-0.3-1v-3.3h-1v-0.7h1v-1.3C50,62.8,51,62.8,51,62.8z"/>
				<path d="M57.2,66.6v2.8h-0.9v-7.1h2.6c0.8,0,1.4,0.2,1.8,0.6c0.4,0.4,0.7,0.9,0.7,1.6s-0.2,1.2-0.6,1.6c-0.4,0.4-1,0.6-1.9,0.6
					L57.2,66.6L57.2,66.6z M57.2,65.8h1.7c0.5,0,0.9-0.1,1.2-0.4s0.4-0.6,0.4-1s-0.1-0.8-0.4-1S59.5,63,59,63h-1.7v2.8H57.2z"/>
				<path d="M65.3,64.9c-0.1,0-0.3,0-0.4,0c-0.6,0-1,0.3-1.2,0.8v3.8h-0.9v-5.3h0.9v0.6c0.3-0.5,0.7-0.7,1.3-0.7
					c0.2,0,0.3,0,0.4,0.1L65.3,64.9L65.3,64.9z"/>
				<path d="M66.2,66.7c0-0.5,0.1-1,0.3-1.4c0.2-0.4,0.5-0.7,0.8-1c0.4-0.2,0.8-0.3,1.2-0.3c0.7,0,1.3,0.2,1.7,0.7
					c0.4,0.5,0.7,1.2,0.7,2v0.1c0,0.5-0.1,1-0.3,1.4c-0.2,0.4-0.5,0.7-0.8,1c-0.4,0.2-0.8,0.3-1.3,0.3c-0.7,0-1.3-0.2-1.7-0.7
					C66.4,68.2,66.2,67.6,66.2,66.7L66.2,66.7z M67.1,66.8c0,0.6,0.1,1.1,0.4,1.4c0.3,0.4,0.6,0.5,1.1,0.5s0.8-0.2,1.1-0.5
					s0.4-0.9,0.4-1.5s-0.1-1-0.4-1.4s-0.6-0.5-1.1-0.5c-0.4,0-0.8,0.2-1.1,0.5S67.1,66.2,67.1,66.8z"/>
				<path d="M72.2,66.7c0-0.8,0.2-1.5,0.6-2s0.9-0.7,1.5-0.7s1.1,0.2,1.5,0.6v-2.8h0.9v7.5h-0.8v-0.6c-0.4,0.4-0.9,0.7-1.5,0.7
					s-1.1-0.3-1.5-0.8C72.4,68.2,72.2,67.6,72.2,66.7L72.2,66.7z M73.1,66.8c0,0.6,0.1,1.1,0.4,1.4s0.6,0.5,1,0.5
					c0.6,0,1-0.3,1.3-0.8v-2.4c-0.3-0.5-0.7-0.7-1.2-0.7c-0.4,0-0.8,0.2-1,0.5S73.1,66.1,73.1,66.8z"/>
				<path d="M81.7,68.9c-0.4,0.4-0.9,0.6-1.5,0.6s-1-0.2-1.3-0.5s-0.4-0.8-0.4-1.5v-3.4h0.9v3.4c0,0.8,0.3,1.2,1,1.2
					s1.1-0.3,1.4-0.8v-3.8h0.9v5.3h-0.9L81.7,68.9z"/>
				<path d="M86.3,68.8c0.3,0,0.6-0.1,0.8-0.3s0.4-0.4,0.4-0.7h0.9c0,0.3-0.1,0.6-0.3,0.9s-0.4,0.5-0.8,0.7c-0.3,0.2-0.7,0.2-1,0.2
					c-0.7,0-1.3-0.2-1.7-0.7c-0.4-0.5-0.6-1.1-0.6-2v-0.2c0-0.5,0.1-1,0.3-1.4s0.5-0.7,0.8-0.9c0.4-0.2,0.8-0.3,1.3-0.3
					c0.6,0,1.1,0.2,1.5,0.5c0.4,0.4,0.6,0.8,0.6,1.4h-0.9c0-0.3-0.2-0.6-0.4-0.8c-0.2-0.2-0.5-0.3-0.9-0.3c-0.5,0-0.8,0.2-1.1,0.5
					c-0.3,0.3-0.4,0.8-0.4,1.4V67c0,0.6,0.1,1.1,0.4,1.4S85.9,68.8,86.3,68.8z"/>
				<path d="M91,62.8v1.3h1v0.7h-1v3.3c0,0.2,0,0.4,0.1,0.5s0.2,0.2,0.4,0.2c0.1,0,0.2,0,0.4-0.1v0.7c-0.2,0.1-0.5,0.1-0.7,0.1
					c-0.4,0-0.7-0.1-0.9-0.4s-0.3-0.6-0.3-1v-3.3h-1v-0.7h1v-1.3C90,62.8,91,62.8,91,62.8z"/>
				<path d="M99,69.4h-0.9v-6L96.3,64v-0.8l2.6-1H99V69.4z"/>
			</g>
			<rect x="58.4" y="89.2" class="st14" width="89.5" height="14.7"/>
			<g>
				<path d="M69.6,93.3h-2.3v6.3h-0.9v-6.3h-2.3v-0.8h5.5V93.3z"/>
				<path d="M74.1,99.6C74,99.5,74,99.3,74,99c-0.4,0.4-0.9,0.7-1.5,0.7c-0.5,0-0.9-0.1-1.3-0.4c-0.3-0.3-0.5-0.7-0.5-1.1
					c0-0.6,0.2-1,0.6-1.3s1-0.5,1.8-0.5H74V96c0-0.3-0.1-0.6-0.3-0.8s-0.5-0.3-0.8-0.3s-0.6,0.1-0.8,0.2s-0.3,0.4-0.3,0.6h-1
					c0-0.3,0.1-0.5,0.3-0.8c0.2-0.2,0.4-0.4,0.8-0.6c0.3-0.1,0.7-0.2,1.1-0.2c0.6,0,1.1,0.2,1.4,0.5s0.5,0.7,0.5,1.3v2.4
					c0,0.5,0.1,0.9,0.2,1.2v0.1C75.1,99.6,74.1,99.6,74.1,99.6z M72.6,98.9c0.3,0,0.6-0.1,0.8-0.2s0.4-0.3,0.6-0.6V97h-0.7
					c-1.1,0-1.7,0.3-1.7,1c0,0.3,0.1,0.5,0.3,0.7S72.3,98.9,72.6,98.9z"/>
				<path d="M79.2,95.1c-0.1,0-0.3,0-0.4,0c-0.6,0-1,0.3-1.2,0.8v3.8h-0.9v-5.3h0.9V95c0.3-0.5,0.7-0.7,1.3-0.7c0.2,0,0.3,0,0.4,0.1
					v0.7H79.2z"/>
				<path d="M80.1,96.9c0-0.8,0.2-1.5,0.6-2s0.9-0.7,1.5-0.7s1.1,0.2,1.5,0.7v-0.6h0.8v5.2c0,0.7-0.2,1.2-0.6,1.6s-1,0.6-1.6,0.6
					c-0.4,0-0.8-0.1-1.1-0.2c-0.4-0.2-0.6-0.4-0.8-0.7l0.5-0.5c0.4,0.5,0.9,0.7,1.4,0.7c0.4,0,0.8-0.1,1-0.4c0.2-0.2,0.4-0.6,0.4-1
					v-0.5c-0.4,0.4-0.9,0.6-1.5,0.6s-1.1-0.2-1.5-0.7C80.3,98.4,80.1,97.8,80.1,96.9z M81,97c0,0.6,0.1,1.1,0.4,1.4s0.6,0.5,1,0.5
					c0.6,0,1-0.3,1.3-0.8v-2.4c-0.3-0.5-0.7-0.8-1.2-0.8c-0.4,0-0.8,0.2-1,0.5S81,96.3,81,97z"/>
				<path d="M88.4,99.7c-0.7,0-1.3-0.2-1.7-0.7S86,97.9,86,97.1v-0.2c0-0.5,0.1-1,0.3-1.4c0.2-0.4,0.5-0.7,0.8-1
					c0.4-0.2,0.8-0.3,1.2-0.3c0.7,0,1.2,0.2,1.6,0.7s0.6,1.1,0.6,1.9v0.4h-3.6c0,0.5,0.2,0.9,0.5,1.3c0.3,0.3,0.7,0.5,1.1,0.5
					c0.3,0,0.6-0.1,0.8-0.2s0.4-0.3,0.6-0.5l0.6,0.4C90,99.4,89.3,99.7,88.4,99.7z M88.3,95c-0.4,0-0.7,0.1-0.9,0.4S87,96,86.9,96.5
					h2.6v-0.1c0-0.5-0.1-0.8-0.4-1.1S88.7,95,88.3,95z"/>
				<path d="M93.1,93v1.3h1V95h-1v3.3c0,0.2,0,0.4,0.1,0.5s0.2,0.2,0.4,0.2c0.1,0,0.2,0,0.4-0.1v0.7c-0.2,0.1-0.5,0.1-0.7,0.1
					c-0.4,0-0.7-0.1-0.9-0.4s-0.3-0.6-0.3-1V95h-1v-0.7h1V93H93.1z"/>
				<path d="M99.3,96.8v2.8h-0.9v-7.1h2.6c0.8,0,1.4,0.2,1.8,0.6s0.7,0.9,0.7,1.6s-0.2,1.2-0.6,1.6s-1,0.6-1.9,0.6L99.3,96.8
					L99.3,96.8z M99.3,96h1.7c0.5,0,0.9-0.1,1.2-0.4s0.4-0.6,0.4-1s-0.1-0.8-0.4-1s-0.6-0.4-1.1-0.4h-1.7L99.3,96L99.3,96z"/>
				<path d="M107.4,95.1c-0.1,0-0.3,0-0.4,0c-0.6,0-1,0.3-1.2,0.8v3.8h-1v-5.3h0.9V95c0.3-0.5,0.7-0.7,1.3-0.7c0.2,0,0.3,0,0.4,0.1
					C107.4,94.4,107.4,95.1,107.4,95.1z"/>
				<path d="M108.3,96.9c0-0.5,0.1-1,0.3-1.4c0.2-0.4,0.5-0.7,0.8-1c0.4-0.2,0.8-0.3,1.2-0.3c0.7,0,1.3,0.2,1.7,0.7
					c0.4,0.5,0.7,1.2,0.7,2V97c0,0.5-0.1,1-0.3,1.4c-0.2,0.4-0.5,0.7-0.8,1c-0.4,0.2-0.8,0.3-1.3,0.3c-0.7,0-1.3-0.2-1.7-0.7
					C108.5,98.4,108.3,97.8,108.3,96.9L108.3,96.9z M109.2,97c0,0.6,0.1,1.1,0.4,1.4c0.3,0.4,0.6,0.5,1.1,0.5s0.8-0.2,1.1-0.5
					s0.4-0.9,0.4-1.5s-0.1-1-0.4-1.4s-0.6-0.5-1.1-0.5c-0.4,0-0.8,0.2-1.1,0.5S109.2,96.3,109.2,97z"/>
				<path d="M114.3,96.9c0-0.8,0.2-1.5,0.6-2s0.9-0.7,1.5-0.7s1.1,0.2,1.5,0.6V92h0.9v7.5H118v-0.6c-0.4,0.4-0.9,0.7-1.5,0.7
					s-1.1-0.3-1.5-0.8C114.5,98.4,114.3,97.8,114.3,96.9L114.3,96.9z M115.2,97c0,0.6,0.1,1.1,0.4,1.4s0.6,0.5,1,0.5
					c0.6,0,1-0.3,1.3-0.8v-2.4c-0.3-0.5-0.7-0.7-1.2-0.7c-0.4,0-0.8,0.2-1,0.5S115.2,96.3,115.2,97z"/>
				<path d="M123.7,99.1c-0.4,0.4-0.9,0.6-1.5,0.6s-1-0.2-1.3-0.5s-0.4-0.8-0.4-1.5v-3.4h0.9v3.4c0,0.8,0.3,1.2,1,1.2
					s1.1-0.3,1.4-0.8v-3.8h0.9v5.3h-0.9L123.7,99.1z"/>
				<path d="M128.4,99c0.3,0,0.6-0.1,0.8-0.3s0.4-0.4,0.4-0.7h0.9c0,0.3-0.1,0.6-0.3,0.9s-0.4,0.5-0.8,0.7c-0.3,0.2-0.7,0.2-1,0.2
					c-0.7,0-1.3-0.2-1.7-0.7c-0.4-0.5-0.6-1.1-0.6-2v-0.2c0-0.5,0.1-1,0.3-1.4s0.5-0.7,0.8-0.9c0.4-0.2,0.8-0.3,1.3-0.3
					c0.6,0,1.1,0.2,1.5,0.5c0.4,0.4,0.6,0.8,0.6,1.4h-0.9c0-0.3-0.2-0.6-0.4-0.8c-0.2-0.2-0.5-0.3-0.9-0.3c-0.5,0-0.8,0.2-1.1,0.5
					c-0.3,0.3-0.4,0.8-0.4,1.4v0.2c0,0.6,0.1,1.1,0.4,1.4S127.9,99,128.4,99z"/>
				<path d="M133.1,93v1.3h1V95h-1v3.3c0,0.2,0,0.4,0.1,0.5s0.2,0.2,0.4,0.2c0.1,0,0.2,0,0.4-0.1v0.7c-0.2,0.1-0.5,0.1-0.7,0.1
					c-0.4,0-0.7-0.1-0.9-0.4s-0.3-0.6-0.3-1V95h-1v-0.7h1V93H133.1z"/>
				<path d="M142.8,99.6h-4.7V99l2.5-2.7c0.4-0.4,0.6-0.7,0.8-1c0.1-0.3,0.2-0.5,0.2-0.8c0-0.4-0.1-0.7-0.3-0.9s-0.5-0.4-0.9-0.4
					s-0.8,0.1-1,0.4s-0.4,0.6-0.4,1.1h-0.9c0-0.7,0.2-1.2,0.6-1.6c0.4-0.4,1-0.6,1.7-0.6s1.2,0.2,1.6,0.5s0.6,0.8,0.6,1.4
					c0,0.7-0.4,1.5-1.3,2.5l-1.9,2.1h3.6v0.6H142.8z"/>
			</g>
			<line class="st24" x1="17.3" y1="77.5" x2="27.3" y2="77.5"/>
			<line class="st25" x1="27.5" y1="77.5" x2="42.5" y2="77.5"/>
			<line class="st26" x1="42.2" y1="77.5" x2="102.8" y2="77.5"/>
			<line class="st27" x1="102.8" y1="77.5" x2="115.3" y2="77.5"/>
			<line class="st28" x1="119" y1="77.5" x2="130.3" y2="77.5"/>
			<line class="st29" x1="115.2" y1="77.5" x2="119.3" y2="77.5"/>
			<g>
				<line class="st30" x1="58.6" y1="107.7" x2="68.6" y2="107.7"/>
				<line class="st29" x1="68.8" y1="107.7" x2="82.7" y2="107.7"/>
				<line class="st31" x1="82.5" y1="107.7" x2="135.4" y2="107.7"/>
				<line class="st32" x1="135.3" y1="107.7" x2="149.1" y2="107.7"/>
				<line class="st33" x1="162.1" y1="107.7" x2="173.4" y2="107.7"/>
				<line class="st29" x1="149.1" y1="107.7" x2="162.1" y2="107.7"/>
			</g>
			
				<linearGradient id="SVGID_1_" gradientUnits="userSpaceOnUse" x1="-738.9675" y1="-764.0875" x2="-700.2675" y2="-764.0875" gradientTransform="matrix(0 -1 -1 0 -665.9551 -568.8676)">
				<stop  offset="0" style="stop-color:#1C3952"/>
				<stop  offset="1" style="stop-color:#15CD94"/>
			</linearGradient>
			<rect x="0.7" y="131.4" class="st3" width="194.9" height="38.7"/>
			<g>
				<path class="st0" d="M40.3,144.4h-3.1v2.5h3.6v0.8h-4.5v-7.1h4.5v0.8h-3.5v2.3h3.1L40.3,144.4L40.3,144.4z"/>
				<path class="st0" d="M42.6,147.7v-4.6h-0.8v-0.7h0.8v-0.5c0-0.6,0.2-1,0.5-1.3s0.7-0.5,1.3-0.5c0.2,0,0.4,0,0.6,0.1v0.7
					c-0.2,0-0.3,0-0.5,0c-0.3,0-0.5,0.1-0.7,0.3s-0.2,0.4-0.2,0.7v0.6h1.1v0.7h-1.1v4.6h-1V147.7z"/>
				<path class="st0" d="M46.4,147.7v-4.6h-0.8v-0.7h0.8v-0.5c0-0.6,0.2-1,0.5-1.3s0.7-0.5,1.3-0.5c0.2,0,0.4,0,0.6,0.1v0.7
					c-0.2,0-0.3,0-0.5,0c-0.3,0-0.5,0.1-0.7,0.3s-0.2,0.4-0.2,0.7v0.6h1.1v0.7h-1.1v4.6h-1V147.7z"/>
				<path class="st0" d="M49.7,141c0-0.1,0-0.3,0.1-0.4c0.1-0.1,0.2-0.2,0.4-0.2s0.3,0.1,0.4,0.2c0.1,0.1,0.1,0.2,0.1,0.4
					s0,0.3-0.1,0.4c-0.1,0.1-0.2,0.1-0.4,0.1s-0.3,0-0.4-0.1C49.8,141.3,49.7,141.2,49.7,141z M50.7,147.7h-0.9v-5.3h0.9V147.7z"/>
				<path class="st0" d="M54.6,147.1c0.3,0,0.6-0.1,0.8-0.3s0.4-0.4,0.4-0.7h0.9c0,0.3-0.1,0.6-0.3,0.9c-0.2,0.3-0.4,0.5-0.8,0.7
					c-0.3,0.2-0.7,0.2-1,0.2c-0.7,0-1.3-0.2-1.7-0.7s-0.6-1.1-0.6-2V145c0-0.5,0.1-1,0.3-1.4s0.5-0.7,0.8-0.9
					c0.4-0.2,0.8-0.3,1.3-0.3c0.6,0,1.1,0.2,1.5,0.5c0.4,0.4,0.6,0.8,0.6,1.4h-1c0-0.3-0.2-0.6-0.4-0.8s-0.5-0.3-0.9-0.3
					c-0.5,0-0.8,0.2-1.1,0.5s-0.4,0.8-0.4,1.4v0.2c0,0.6,0.1,1.1,0.4,1.4C53.7,146.9,54.1,147.1,54.6,147.1z"/>
				<path class="st0" d="M58,141c0-0.1,0-0.3,0.1-0.4c0.1-0.1,0.2-0.2,0.4-0.2s0.3,0.1,0.4,0.2c0.1,0.1,0.1,0.2,0.1,0.4
					s0,0.3-0.1,0.4c-0.1,0.1-0.2,0.1-0.4,0.1s-0.3,0-0.4-0.1C58,141.3,58,141.2,58,141z M59,147.7h-0.9v-5.3H59V147.7z"/>
				<path class="st0" d="M62.9,147.8c-0.7,0-1.3-0.2-1.7-0.7s-0.7-1.1-0.7-1.9V145c0-0.5,0.1-1,0.3-1.4s0.5-0.7,0.8-1
					c0.4-0.2,0.8-0.3,1.2-0.3c0.7,0,1.2,0.2,1.6,0.7c0.4,0.5,0.6,1.1,0.6,1.9v0.4h-3.6c0,0.5,0.2,0.9,0.5,1.3
					c0.3,0.3,0.7,0.5,1.1,0.5c0.3,0,0.6-0.1,0.8-0.2c0.2-0.1,0.4-0.3,0.6-0.5l0.6,0.4C64.5,147.5,63.8,147.8,62.9,147.8z
					 M62.8,143.1c-0.4,0-0.7,0.1-0.9,0.4c-0.2,0.3-0.4,0.6-0.5,1.1H64v-0.1c0-0.5-0.2-0.8-0.4-1.1C63.5,143.2,63.2,143.1,62.8,143.1
					z"/>
				<path class="st0" d="M67.2,142.4v0.7c0.4-0.5,0.9-0.8,1.6-0.8c1.1,0,1.7,0.6,1.7,1.9v3.5h-0.9v-3.5c0-0.4-0.1-0.7-0.3-0.8
					c-0.2-0.2-0.4-0.3-0.8-0.3c-0.3,0-0.5,0.1-0.8,0.2c-0.2,0.2-0.4,0.4-0.5,0.6v3.8h-0.9v-5.3L67.2,142.4L67.2,142.4z"/>
				<path class="st0" d="M73.4,141.1v1.3h1v0.7h-1v3.3c0,0.2,0,0.4,0.1,0.5s0.2,0.2,0.4,0.2c0.1,0,0.2,0,0.4-0.1v0.7
					c-0.2,0.1-0.5,0.1-0.7,0.1c-0.4,0-0.7-0.1-0.9-0.4s-0.3-0.6-0.3-1v-3.3h-1v-0.7h1v-1.3H73.4z"/>
				<path class="st0" d="M83.6,141.4h-2.3v6.3h-0.9v-6.3h-2.3v-0.8h5.5C83.6,140.6,83.6,141.4,83.6,141.4z"/>
				<path class="st0" d="M88.1,147.7c-0.1-0.1-0.1-0.3-0.1-0.6c-0.4,0.4-0.9,0.7-1.5,0.7c-0.5,0-0.9-0.1-1.3-0.4
					c-0.3-0.3-0.5-0.7-0.5-1.1c0-0.5,0.2-1,0.6-1.3s1-0.5,1.8-0.5H88v-0.4c0-0.3-0.1-0.6-0.3-0.8c-0.2-0.2-0.5-0.3-0.8-0.3
					s-0.6,0.1-0.8,0.2c-0.2,0.2-0.3,0.4-0.3,0.6h-1c0-0.3,0.1-0.5,0.3-0.8c0.2-0.2,0.4-0.4,0.8-0.6c0.3-0.1,0.7-0.2,1.1-0.2
					c0.6,0,1.1,0.2,1.4,0.5s0.5,0.7,0.5,1.3v2.4c0,0.5,0.1,0.9,0.2,1.2v0.1L88.1,147.7L88.1,147.7z M86.6,147c0.3,0,0.6-0.1,0.8-0.2
					s0.4-0.3,0.6-0.6v-1.1h-0.7c-1.1,0-1.7,0.3-1.7,1c0,0.3,0.1,0.5,0.3,0.7C86,146.9,86.3,147,86.6,147z"/>
				<path class="st0" d="M93.1,143.2c-0.1,0-0.3,0-0.4,0c-0.6,0-1,0.3-1.2,0.8v3.8h-0.9v-5.3h0.9v0.6c0.3-0.5,0.7-0.7,1.3-0.7
					c0.2,0,0.3,0,0.4,0.1v0.7H93.1z"/>
				<path class="st0" d="M94,145c0-0.8,0.2-1.5,0.6-2s0.9-0.7,1.5-0.7s1.1,0.2,1.5,0.7v-0.6h0.8v5.2c0,0.7-0.2,1.2-0.6,1.6
					c-0.4,0.4-0.9,0.6-1.6,0.6c-0.4,0-0.8-0.1-1.1-0.2c-0.4-0.2-0.6-0.4-0.8-0.7l0.5-0.5c0.4,0.5,0.9,0.7,1.4,0.7
					c0.4,0,0.8-0.1,1-0.4c0.2-0.2,0.4-0.6,0.4-1v-0.5c-0.4,0.4-0.9,0.6-1.5,0.6s-1.1-0.2-1.5-0.7C94.2,146.6,94,145.9,94,145z
					 M94.9,145.1c0,0.6,0.1,1.1,0.4,1.4c0.2,0.3,0.6,0.5,1,0.5c0.6,0,1-0.3,1.3-0.8v-2.4c-0.3-0.5-0.7-0.8-1.2-0.8
					c-0.4,0-0.8,0.2-1,0.5C95.1,144,94.9,144.5,94.9,145.1z"/>
				<path class="st0" d="M102.4,147.8c-0.7,0-1.3-0.2-1.7-0.7c-0.4-0.5-0.7-1.1-0.7-1.9V145c0-0.5,0.1-1,0.3-1.4
					c0.2-0.4,0.5-0.7,0.8-1c0.4-0.2,0.7-0.3,1.2-0.3c0.7,0,1.2,0.2,1.6,0.7s0.6,1.1,0.6,1.9v0.4h-3.7c0,0.5,0.2,0.9,0.5,1.3
					c0.3,0.3,0.7,0.5,1.1,0.5c0.3,0,0.6-0.1,0.8-0.2c0.2-0.1,0.4-0.3,0.6-0.5l0.6,0.4C103.9,147.5,103.2,147.8,102.4,147.8z
					 M102.2,143.1c-0.4,0-0.7,0.1-0.9,0.4c-0.2,0.3-0.4,0.6-0.5,1.1h2.6v-0.1c0-0.5-0.1-0.8-0.4-1.1
					C102.9,143.2,102.6,143.1,102.2,143.1z"/>
				<path class="st0" d="M107,141.1v1.3h1v0.7h-1v3.3c0,0.2,0,0.4,0.1,0.5s0.2,0.2,0.4,0.2c0.1,0,0.2,0,0.4-0.1v0.7
					c-0.2,0.1-0.5,0.1-0.7,0.1c-0.4,0-0.7-0.1-0.9-0.4s-0.3-0.6-0.3-1v-3.3h-1v-0.7h1v-1.3H107z"/>
				<path class="st0" d="M116.2,145.9h-3l-0.7,1.9h-1l2.7-7.1h0.8l2.7,7.1h-1L116.2,145.9z M113.5,145.1h2.4l-1.2-3.3L113.5,145.1z"
					/>
				<path class="st0" d="M119.8,142.4v0.6c0.4-0.5,0.9-0.7,1.6-0.7s1.2,0.3,1.5,0.8c0.2-0.3,0.4-0.5,0.7-0.6c0.3-0.2,0.6-0.2,1-0.2
					c1.2,0,1.7,0.6,1.8,1.8v3.5h-0.9v-3.5c0-0.4-0.1-0.7-0.3-0.8c-0.2-0.2-0.5-0.3-0.9-0.3c-0.3,0-0.6,0.1-0.8,0.3
					c-0.2,0.2-0.3,0.5-0.4,0.8v3.5h-0.9v-3.5c0-0.8-0.4-1.2-1.1-1.2c-0.6,0-1,0.3-1.2,0.8v3.9H119v-5.3L119.8,142.4L119.8,142.4z"/>
				<path class="st0" d="M132.5,145.1c0,0.8-0.2,1.5-0.6,1.9c-0.4,0.5-0.9,0.7-1.5,0.7s-1.1-0.2-1.5-0.6v2.5H128v-7.3h0.8v0.6
					c0.4-0.5,0.9-0.7,1.5-0.7s1.1,0.2,1.5,0.7C132.3,143.5,132.5,144.2,132.5,145.1L132.5,145.1z M131.6,145c0-0.6-0.1-1.1-0.4-1.4
					c-0.3-0.3-0.6-0.5-1-0.5c-0.5,0-1,0.2-1.2,0.7v2.5c0.3,0.5,0.7,0.7,1.2,0.7c0.4,0,0.8-0.2,1-0.5
					C131.5,146.2,131.6,145.7,131.6,145z"/>
				<path class="st0" d="M134.9,147.7H134v-7.5h0.9V147.7z"/>
				<path class="st0" d="M136.7,141c0-0.1,0-0.3,0.1-0.4c0.1-0.1,0.2-0.2,0.4-0.2s0.3,0.1,0.4,0.2c0.1,0.1,0.1,0.2,0.1,0.4
					s0,0.3-0.1,0.4c-0.1,0.1-0.2,0.1-0.4,0.1s-0.3,0-0.4-0.1C136.7,141.3,136.7,141.2,136.7,141z M137.7,147.7h-0.9v-5.3h0.9V147.7z
					"/>
				<path class="st0" d="M141.6,147.1c0.3,0,0.6-0.1,0.8-0.3s0.4-0.4,0.4-0.7h0.9c0,0.3-0.1,0.6-0.3,0.9c-0.2,0.3-0.4,0.5-0.8,0.7
					c-0.3,0.2-0.7,0.2-1,0.2c-0.7,0-1.3-0.2-1.7-0.7s-0.6-1.1-0.6-2V145c0-0.5,0.1-1,0.3-1.4s0.5-0.7,0.8-0.9
					c0.4-0.2,0.8-0.3,1.3-0.3c0.6,0,1.1,0.2,1.5,0.5c0.4,0.4,0.6,0.8,0.6,1.4h-1c0-0.3-0.2-0.6-0.4-0.8s-0.5-0.3-0.9-0.3
					c-0.5,0-0.8,0.2-1.1,0.5s-0.4,0.8-0.4,1.4v0.2c0,0.6,0.1,1.1,0.4,1.4C140.7,146.9,141.1,147.1,141.6,147.1z"/>
				<path class="st0" d="M144.7,145c0-0.5,0.1-1,0.3-1.4s0.5-0.7,0.8-1c0.4-0.2,0.8-0.3,1.2-0.3c0.7,0,1.3,0.2,1.7,0.7
					s0.7,1.2,0.7,2v0.1c0,0.5-0.1,1-0.3,1.4s-0.5,0.7-0.8,1c-0.4,0.2-0.8,0.3-1.3,0.3c-0.7,0-1.3-0.2-1.7-0.7S144.7,145.9,144.7,145
					L144.7,145z M145.6,145.1c0,0.6,0.1,1.1,0.4,1.4c0.3,0.4,0.6,0.5,1.1,0.5s0.8-0.2,1.1-0.5c0.3-0.4,0.4-0.9,0.4-1.5
					s-0.1-1-0.4-1.4c-0.3-0.4-0.6-0.5-1.1-0.5c-0.4,0-0.8,0.2-1.1,0.5C145.8,144,145.6,144.5,145.6,145.1z"/>
				<path class="st0" d="M151.8,142.4v0.7c0.4-0.5,0.9-0.8,1.6-0.8c1.1,0,1.7,0.6,1.7,1.9v3.5h-0.9v-3.5c0-0.4-0.1-0.7-0.3-0.8
					c-0.2-0.2-0.4-0.3-0.8-0.3c-0.3,0-0.6,0.1-0.8,0.2c-0.2,0.2-0.4,0.4-0.5,0.6v3.8h-0.9v-5.3L151.8,142.4L151.8,142.4z"/>
				<path class="st0" d="M41.5,158.8c-0.2,0.3-0.6,0.6-1,0.8s-0.9,0.3-1.5,0.3s-1.1-0.1-1.5-0.4c-0.4-0.3-0.8-0.7-1-1.2
					s-0.4-1.1-0.4-1.7V156c0-1.1,0.2-1.9,0.8-2.5c0.5-0.6,1.2-0.9,2.1-0.9c0.7,0,1.3,0.2,1.8,0.6c0.5,0.4,0.7,0.9,0.8,1.6h-0.9
					c-0.2-0.9-0.7-1.4-1.7-1.4c-0.6,0-1.1,0.2-1.4,0.7c-0.3,0.4-0.5,1.1-0.5,1.9v0.6c0,0.8,0.2,1.4,0.5,1.9c0.4,0.5,0.9,0.7,1.5,0.7
					c0.4,0,0.7,0,0.9-0.1c0.3-0.1,0.5-0.2,0.7-0.4v-1.6h-1.6v-0.8h2.6v2.5H41.5z"/>
				<path class="st0" d="M45.5,159.8c-0.7,0-1.3-0.2-1.7-0.7s-0.7-1.1-0.7-1.9V157c0-0.5,0.1-1,0.3-1.4s0.5-0.7,0.8-1
					c0.4-0.2,0.8-0.3,1.2-0.3c0.7,0,1.2,0.2,1.6,0.7c0.4,0.5,0.6,1.1,0.6,1.9v0.4H44c0,0.5,0.2,0.9,0.5,1.3c0.3,0.3,0.7,0.5,1.1,0.5
					c0.3,0,0.6-0.1,0.8-0.2c0.2-0.1,0.4-0.3,0.6-0.5l0.6,0.4C47,159.5,46.3,159.8,45.5,159.8z M45.4,155.1c-0.4,0-0.7,0.1-0.9,0.4
					c-0.2,0.3-0.4,0.6-0.5,1.1h2.6v-0.1c0-0.5-0.2-0.8-0.4-1.1C46,155.2,45.7,155.1,45.4,155.1z"/>
				<path class="st0" d="M49.7,154.4v0.7c0.4-0.5,0.9-0.8,1.6-0.8c1.1,0,1.7,0.6,1.7,1.9v3.5h-0.9v-3.5c0-0.4-0.1-0.7-0.3-0.8
					c-0.2-0.2-0.4-0.3-0.8-0.3c-0.3,0-0.5,0.1-0.8,0.2c-0.2,0.2-0.4,0.4-0.5,0.6v3.8h-0.9v-5.3L49.7,154.4L49.7,154.4z"/>
				<path class="st0" d="M56.9,159.8c-0.7,0-1.3-0.2-1.7-0.7s-0.7-1.1-0.7-1.9V157c0-0.5,0.1-1,0.3-1.4s0.5-0.7,0.8-1
					c0.4-0.2,0.8-0.3,1.2-0.3c0.7,0,1.2,0.2,1.6,0.7c0.4,0.5,0.6,1.1,0.6,1.9v0.4h-3.6c0,0.5,0.2,0.9,0.5,1.3
					c0.3,0.3,0.7,0.5,1.1,0.5c0.3,0,0.6-0.1,0.8-0.2c0.2-0.1,0.4-0.3,0.6-0.5l0.6,0.4C58.4,159.5,57.8,159.8,56.9,159.8z
					 M56.8,155.1c-0.4,0-0.7,0.1-0.9,0.4c-0.2,0.3-0.4,0.6-0.5,1.1H58v-0.1c0-0.5-0.2-0.8-0.4-1.1C57.5,155.2,57.2,155.1,56.8,155.1
					z"/>
				<path class="st0" d="M62.9,155.2c-0.1,0-0.3,0-0.4,0c-0.6,0-1,0.3-1.2,0.8v3.8h-0.9v-5.3h0.9v0.6c0.3-0.5,0.7-0.7,1.3-0.7
					c0.2,0,0.3,0,0.4,0.1L62.9,155.2L62.9,155.2z"/>
				<path class="st0" d="M67.3,159.7c-0.1-0.1-0.1-0.3-0.1-0.6c-0.4,0.4-0.9,0.7-1.5,0.7c-0.5,0-0.9-0.1-1.3-0.4
					c-0.3-0.3-0.5-0.7-0.5-1.1c0-0.5,0.2-1,0.6-1.3c0.4-0.3,1-0.5,1.8-0.5h0.9v-0.4c0-0.3-0.1-0.6-0.3-0.8c-0.2-0.2-0.5-0.3-0.8-0.3
					s-0.6,0.1-0.8,0.2c-0.2,0.2-0.3,0.4-0.3,0.6h-0.9c0-0.3,0.1-0.5,0.3-0.8c0.2-0.2,0.4-0.4,0.8-0.6c0.3-0.1,0.7-0.2,1.1-0.2
					c0.6,0,1.1,0.2,1.4,0.5s0.5,0.7,0.5,1.3v2.4c0,0.5,0.1,0.9,0.2,1.2v0.1L67.3,159.7L67.3,159.7z M65.8,159c0.3,0,0.6-0.1,0.8-0.2
					s0.4-0.3,0.6-0.6v-1.1h-0.7c-1.1,0-1.7,0.3-1.7,1c0,0.3,0.1,0.5,0.3,0.7C65.2,158.9,65.5,159,65.8,159z"/>
				<path class="st0" d="M71,153.1v1.3h1v0.7h-1v3.3c0,0.2,0,0.4,0.1,0.5s0.2,0.2,0.4,0.2c0.1,0,0.2,0,0.4-0.1v0.7
					c-0.2,0.1-0.5,0.1-0.7,0.1c-0.4,0-0.7-0.1-0.9-0.4s-0.3-0.6-0.3-1v-3.3h-1v-0.7h1v-1.3H71z"/>
				<path class="st0" d="M73.3,153c0-0.1,0-0.3,0.1-0.4c0.1-0.1,0.2-0.2,0.4-0.2s0.3,0.1,0.4,0.2c0.1,0.1,0.1,0.2,0.1,0.4
					s0,0.3-0.1,0.4c-0.1,0.1-0.2,0.1-0.4,0.1s-0.3,0-0.4-0.1C73.4,153.3,73.3,153.2,73.3,153z M74.3,159.7h-0.9v-5.3h0.9V159.7z"/>
				<path class="st0" d="M75.8,157c0-0.5,0.1-1,0.3-1.4c0.2-0.4,0.5-0.7,0.8-1c0.4-0.2,0.8-0.3,1.2-0.3c0.7,0,1.3,0.2,1.7,0.7
					s0.7,1.2,0.7,2v0.1c0,0.5-0.1,1-0.3,1.4c-0.2,0.4-0.5,0.7-0.8,1c-0.4,0.2-0.8,0.3-1.3,0.3c-0.7,0-1.3-0.2-1.7-0.7
					S75.8,157.9,75.8,157L75.8,157z M76.7,157.1c0,0.6,0.1,1.1,0.4,1.4c0.3,0.4,0.6,0.5,1.1,0.5s0.8-0.2,1.1-0.5
					c0.3-0.4,0.4-0.9,0.4-1.5s-0.1-1-0.4-1.4s-0.6-0.5-1.1-0.5c-0.4,0-0.8,0.2-1.1,0.5C76.9,156,76.7,156.5,76.7,157.1z"/>
				<path class="st0" d="M82.9,154.4v0.7c0.4-0.5,0.9-0.8,1.6-0.8c1.1,0,1.7,0.6,1.7,1.9v3.5h-0.9v-3.5c0-0.4-0.1-0.7-0.3-0.8
					c-0.2-0.2-0.4-0.3-0.8-0.3c-0.3,0-0.5,0.1-0.8,0.2c-0.2,0.2-0.4,0.4-0.5,0.6v3.8H82v-5.3L82.9,154.4L82.9,154.4z"/>
			</g>
			<g>
				<path class="st0" d="M20,144.1h0.8c0.4,0,0.8-0.1,1-0.3s0.4-0.5,0.4-1c0-0.4-0.1-0.7-0.3-0.9s-0.5-0.3-1-0.3
					c-0.4,0-0.7,0.1-0.9,0.3s-0.4,0.5-0.4,0.9h-1.4c0-0.4,0.1-0.8,0.3-1.2s0.6-0.6,1-0.8s0.9-0.3,1.4-0.3c0.9,0,1.5,0.2,2,0.6
					s0.7,1,0.7,1.8c0,0.4-0.1,0.7-0.4,1.1s-0.6,0.6-0.9,0.8c0.5,0.2,0.8,0.4,1.1,0.8s0.4,0.8,0.4,1.2c0,0.8-0.3,1.4-0.8,1.8
					s-1.2,0.7-2.1,0.7c-0.8,0-1.5-0.2-2-0.7s-0.8-1-0.8-1.7h1.4c0,0.4,0.1,0.7,0.4,0.9s0.6,0.4,1,0.4s0.8-0.1,1-0.4s0.4-0.6,0.4-1
					s-0.1-0.8-0.4-1s-0.7-0.4-1.2-0.4h-0.8L20,144.1L20,144.1z"/>
			</g>
			<circle class="st4" cx="21.2" cy="144.9" r="8.1"/>
			<rect x="3" y="27" class="st14" width="38.9" height="14.7"/>
			<g>
				<path d="M12.8,34.2C12,34,11.4,33.7,11,33.3c-0.4-0.3-0.5-0.8-0.5-1.2c0-0.6,0.2-1,0.7-1.4c0.4-0.4,1-0.5,1.7-0.5
					c0.5,0,0.9,0.1,1.3,0.3c0.4,0.2,0.7,0.4,0.9,0.8c0.2,0.3,0.3,0.7,0.3,1.1h-0.9c0-0.4-0.1-0.8-0.4-1S13.4,31,12.9,31
					s-0.8,0.1-1.1,0.3c-0.3,0.2-0.4,0.5-0.4,0.8s0.1,0.5,0.4,0.7c0.2,0.2,0.7,0.4,1.3,0.6c0.6,0.2,1.1,0.3,1.4,0.5
					c0.3,0.2,0.6,0.4,0.7,0.7c0.2,0.3,0.2,0.6,0.2,0.9c0,0.6-0.2,1-0.7,1.4s-1,0.5-1.8,0.5c-0.5,0-0.9-0.1-1.4-0.3s-0.7-0.4-1-0.8
					c-0.2-0.3-0.3-0.7-0.3-1.1h0.9c0,0.4,0.2,0.8,0.5,1s0.7,0.4,1.3,0.4c0.5,0,0.9-0.1,1.1-0.3s0.4-0.5,0.4-0.8s-0.1-0.6-0.4-0.8
					S13.4,34.4,12.8,34.2z"/>
				<path d="M17.7,32.8c0.4-0.5,0.9-0.7,1.6-0.7c1.1,0,1.7,0.6,1.7,1.9v3.5h-0.9V34c0-0.4-0.1-0.7-0.3-0.8c-0.2-0.2-0.4-0.3-0.8-0.3
					c-0.3,0-0.5,0.1-0.8,0.2s-0.4,0.4-0.5,0.6v3.8h-0.9V30h0.9V32.8z"/>
				<path d="M22.3,34.7c0-0.5,0.1-1,0.3-1.4c0.2-0.4,0.5-0.7,0.8-1c0.4-0.2,0.8-0.3,1.2-0.3c0.7,0,1.3,0.2,1.7,0.7
					c0.4,0.5,0.7,1.2,0.7,2v0.1c0,0.5-0.1,1-0.3,1.4c-0.2,0.4-0.5,0.7-0.8,1c-0.4,0.2-0.8,0.3-1.3,0.3c-0.7,0-1.3-0.2-1.7-0.7
					C22.6,36.2,22.3,35.6,22.3,34.7L22.3,34.7z M23.2,34.8c0,0.6,0.1,1.1,0.4,1.4c0.3,0.4,0.6,0.5,1.1,0.5s0.8-0.2,1.1-0.5
					s0.4-0.9,0.4-1.5s-0.1-1-0.4-1.4s-0.6-0.5-1.1-0.5c-0.4,0-0.8,0.2-1.1,0.5S23.2,34.2,23.2,34.8z"/>
				<path d="M31.1,32.9c-0.1,0-0.3,0-0.4,0c-0.6,0-1,0.3-1.2,0.8v3.8h-0.9v-5.3h0.9v0.6c0.3-0.5,0.7-0.7,1.3-0.7
					c0.2,0,0.3,0,0.4,0.1L31.1,32.9L31.1,32.9z"/>
				<path d="M33.5,30.8v1.3h1v0.7h-1v3.3c0,0.2,0,0.4,0.1,0.5s0.2,0.2,0.4,0.2c0.1,0,0.2,0,0.4-0.1v0.7c-0.2,0.1-0.5,0.1-0.7,0.1
					c-0.4,0-0.7-0.1-0.9-0.4s-0.3-0.6-0.3-1v-3.3h-1v-0.7h1v-1.3H33.5z"/>
			</g>
			<line class="st35" x1="29" y1="45.5" x2="34.5" y2="45.5"/>
			<line class="st36" x1="34.6" y1="45.5" x2="42.8" y2="45.5"/>
			<line class="st37" x1="42.6" y1="45.5" x2="75.8" y2="45.5"/>
			<line class="st38" x1="75.8" y1="45.5" x2="82.7" y2="45.5"/>
			<line class="st39" x1="84.7" y1="45.5" x2="90.9" y2="45.5"/>
			<line class="st40" x1="82.7" y1="45.5" x2="84.9" y2="45.5"/>
			<line class="st41" x1="44.2" y1="38.7" x2="80.9" y2="52.6"/>
			<line class="st41" x1="43.7" y1="53.8" x2="79.5" y2="37.8"/>
		</g>
	</g>
</g>
</svg>
