<?xml version="1.0" encoding="utf-8"?>
<!-- Generator: Adobe Illustrator 21.1.0, SVG Export Plug-In . SVG Version: 6.00 Build 0)  -->
<!DOCTYPE svg PUBLIC "-//W3C//DTD SVG 1.1//EN" "http://www.w3.org/Graphics/SVG/1.1/DTD/svg11.dtd">
<svg version="1.1" id="Layer_1" xmlns="http://www.w3.org/2000/svg" xmlns:xlink="http://www.w3.org/1999/xlink" x="0px" y="0px"
	 viewBox="0 0 890 356" style="enable-background:new 0 0 890 356;" xml:space="preserve">
<style type="text/css">
	.st0{opacity:0.749;fill:#9AC6C1;enable-background:new    ;}
	.st1{fill:url(#SVGID_1_);}
	.st2{fill:#FFFFFF;}
	.st3{fill:#F4F4F4;}
	.st4{fill:url(#SVGID_2_);}
	.st5{fill:#5B2581;}
	.st6{fill:#339966;}
	.st7{fill:#FF9933;}
	.st8{fill:#1C3E54;}
	.st9{fill:#ECAA40;}
	.st10{fill:#363F40;}
</style>
<path class="st0" d="M-0.5,197.6h242l33-22l34,22h581v158h-890V197.6z"/>
<linearGradient id="SVGID_1_" gradientUnits="userSpaceOnUse" x1="243.1939" y1="395.7328" x2="243.1939" y2="396.7328" gradientTransform="matrix(673 0 0 -58 -163295 23260)">
	<stop  offset="0" style="stop-color:#1C3E54"/>
	<stop  offset="1" style="stop-color:#15CD94"/>
</linearGradient>
<path class="st1" d="M38,249.5h643l30,28l-30,30H38V249.5z"/>
<path class="st2" d="M680.7,308.5v-60h0.9v60H680.7z M518.7,248.5h0.9v60h-0.9V248.5z M355.9,248.5h0.9v60h-0.9V248.5z M193.8,248.5
	h0.9v60h-0.9V248.5z"/>
<path class="st3" d="M140.5,291.8c-0.3,1-0.8,2-1.4,2.8c-0.6,0.8-1.3,1.4-2,1.7l-0.4-1.2c0.7-0.5,1.3-1.4,1.7-2.5s0.6-2.4,0.6-3.9
	v-0.4c0-1.5-0.2-2.8-0.6-4c-0.4-1.1-1-2-1.7-2.6l0.4-1.2c0.7,0.3,1.3,0.8,1.9,1.6c0.6,0.8,1.1,1.7,1.4,2.7c0.3,1,0.5,2.1,0.5,3.2
	v0.3C141,289.6,140.8,290.7,140.5,291.8z M135.4,286.6c-0.8,0-1.4,0.3-1.6,0.8v5.3h-2.2v-8.2h2.1l0.1,1c0.4-0.7,1-1.1,1.8-1.1
	c0.2,0,0.5,0,0.7,0.1v2.1C135.9,286.6,135.6,286.6,135.4,286.6z M127.8,287.6c0-0.5-0.1-0.8-0.3-1c-0.2-0.2-0.5-0.3-1-0.3
	c-0.6,0-1.1,0.2-1.4,0.7v5.8h-2.2v-11.6h2.2v4.3c0.6-0.7,1.3-1,2.2-1c1.8,0,2.7,1,2.7,3.1v5.2h-2.2V287.6z M118.1,285.6
	c1,0,1.9,0.3,2.5,1c0.6,0.6,0.9,1.6,0.9,2.7c0,0.7-0.1,1.3-0.4,1.9s-0.7,1-1.3,1.3c-0.6,0.3-1.2,0.5-2,0.5c-0.7,0-1.3-0.1-1.8-0.4
	c-0.6-0.3-1-0.6-1.3-1.1s-0.5-1-0.5-1.7h2.2c0,0.5,0.2,0.8,0.5,1.1c0.3,0.3,0.6,0.4,1.1,0.4s0.9-0.2,1.1-0.5
	c0.3-0.4,0.4-0.9,0.4-1.5s-0.2-1.1-0.5-1.4s-0.7-0.5-1.3-0.5c-0.5,0-0.9,0.1-1.3,0.4l-0.2,0.2l-1.7-0.4l0.6-5.6h6.1v1.8h-4.4
	l-0.3,2.4C117,285.7,117.6,285.6,118.1,285.6z M111,292.9c-0.4,0-0.7-0.1-0.9-0.3c-0.2-0.2-0.3-0.5-0.3-0.8s0.1-0.6,0.4-0.8
	c0.2-0.2,0.5-0.3,0.9-0.3s0.7,0.1,0.9,0.3c0.2,0.2,0.4,0.5,0.4,0.8s-0.1,0.6-0.3,0.8C111.6,292.8,111.3,292.9,111,292.9z
	 M100.7,291.3l3.5-3.8c0.5-0.5,0.8-1,1.1-1.4c0.2-0.4,0.4-0.8,0.4-1.1c0-0.5-0.1-0.9-0.4-1.1c-0.2-0.3-0.6-0.4-1.1-0.4
	s-0.9,0.2-1.2,0.5c-0.3,0.3-0.4,0.8-0.4,1.3h-2.2c0-0.7,0.2-1.3,0.5-1.8c0.3-0.6,0.8-1,1.4-1.3s1.2-0.5,2-0.5c1.1,0,2,0.3,2.6,0.8
	s0.9,1.3,0.9,2.3c0,0.5-0.1,1.1-0.4,1.7s-0.8,1.2-1.4,2l-2.5,2.6h4.7v1.8h-7.5V291.3z M97.9,292.5c0.4,1.1,1,2,1.7,2.6l-0.4,1.2
	c-0.7-0.3-1.3-0.8-1.9-1.6c-0.6-0.8-1-1.7-1.4-2.7c-0.3-1-0.5-2.1-0.5-3.2v-0.4c0-1.2,0.2-2.2,0.5-3.3c0.3-1,0.8-2,1.4-2.8
	s1.2-1.4,1.9-1.7l0.4,1.2c-0.7,0.5-1.3,1.4-1.7,2.5c-0.4,1.1-0.6,2.5-0.6,4v0.2C97.3,290.1,97.5,291.4,97.9,292.5z"/>
<path class="st3" d="M151.9,271.8h-3l-2.5-4.9h-2.2v4.9h-2.8v-13.4h5c1.6,0,2.8,0.4,3.7,1.1s1.3,1.7,1.3,3c0,0.9-0.2,1.7-0.6,2.3
	c-0.4,0.6-1,1.1-1.8,1.5L151.9,271.8L151.9,271.8L151.9,271.8z M148.1,261.2c-0.4-0.4-0.9-0.5-1.7-0.5h-2.2v4h2.2
	c0.7,0,1.2-0.2,1.6-0.5c0.4-0.4,0.6-0.8,0.6-1.5C148.6,262,148.5,261.5,148.1,261.2z M136.2,261.1c-0.4-0.4-1-0.6-1.9-0.6
	s-1.6,0.3-2.1,1s-0.7,1.7-0.7,3.1v1c0,1.4,0.2,2.5,0.7,3.2c0.4,0.7,1.1,1,2.1,1c0.9,0,1.5-0.2,1.9-0.6c0.4-0.4,0.7-1,0.7-1.8h2.8
	c-0.1,1.4-0.6,2.6-1.6,3.4s-2.2,1.2-3.8,1.2c-1.7,0-3.1-0.6-4.1-1.7c-1-1.2-1.5-2.7-1.5-4.8v-0.8c0-1.3,0.2-2.4,0.7-3.4
	s1.1-1.7,1.9-2.3c0.8-0.6,1.8-0.8,2.9-0.8c1.5,0,2.8,0.4,3.7,1.2c0.9,0.8,1.5,2,1.6,3.5h-2.8C136.8,262.1,136.6,261.4,136.2,261.1z
	 M122.2,267.1h-2.4v4.7H117v-13.4h5.2c1,0,1.9,0.2,2.7,0.6c0.8,0.4,1.4,0.9,1.8,1.6c0.4,0.7,0.6,1.4,0.6,2.3c0,1.3-0.4,2.4-1.3,3.1
	C125,266.7,123.7,267.1,122.2,267.1z M123.9,261.2c-0.4-0.4-0.9-0.6-1.6-0.6h-2.5v4.2h2.5c0.7,0,1.3-0.2,1.7-0.5
	c0.4-0.3,0.6-0.8,0.6-1.5C124.4,262.2,124.3,261.7,123.9,261.2z M109.5,265h5.2v2.1h-5.2V265z M103.3,263.9c1.6,0.5,2.7,1.1,3.4,1.8
	c0.7,0.7,1.1,1.6,1.1,2.6c0,1.2-0.4,2.1-1.3,2.7c-0.9,0.7-2.1,1-3.5,1c-1,0-2-0.2-2.8-0.6s-1.5-0.9-1.9-1.6s-0.7-1.4-0.7-2.3h2.8
	c0,1.5,0.9,2.2,2.7,2.2c0.7,0,1.2-0.1,1.5-0.4c0.4-0.3,0.6-0.6,0.6-1.1s-0.2-0.9-0.6-1.2c-0.4-0.3-1-0.6-2-0.9s-1.7-0.6-2.3-0.9
	c-1.5-0.8-2.3-1.9-2.3-3.3c0-0.7,0.2-1.4,0.6-1.9c0.4-0.6,1-1,1.8-1.3c0.8-0.3,1.6-0.5,2.6-0.5s1.8,0.2,2.6,0.5
	c0.8,0.3,1.3,0.8,1.7,1.5c0.4,0.6,0.6,1.4,0.6,2.2H105c0-0.6-0.2-1.1-0.6-1.4s-0.9-0.5-1.6-0.5s-1.2,0.1-1.6,0.4
	c-0.4,0.3-0.6,0.7-0.6,1.1c0,0.4,0.2,0.8,0.7,1.1C101.8,263.3,102.4,263.6,103.3,263.9z M90.7,272c-1.2,0-2.2-0.3-3.1-0.8
	s-1.6-1.2-2-2.2c-0.5-1-0.7-2.1-0.7-3.4v-0.9c0-1.3,0.2-2.5,0.7-3.5s1.1-1.7,2-2.2s1.8-0.8,3-0.8c1.6,0,2.8,0.4,3.7,1.1
	c0.9,0.8,1.4,1.9,1.6,3.3h-2.7c-0.1-0.8-0.4-1.3-0.8-1.7s-1-0.5-1.7-0.5c-0.9,0-1.7,0.4-2.1,1.1c-0.5,0.7-0.7,1.8-0.7,3.1v0.9
	c0,1.4,0.3,2.5,0.8,3.2c0.5,0.7,1.3,1.1,2.3,1.1s1.8-0.2,2.2-0.7v-2.3h-2.5v-2H96v5.4c-0.5,0.6-1.2,1.1-2.1,1.4
	C92.8,271.8,91.8,272,90.7,272z"/>
<path class="st3" d="M302.5,277c0.1,0.8,0.3,1.5,0.8,2s1.1,0.7,1.8,0.7c1,0,1.9-0.4,2.5-1.2l1.2,1.2c-0.4,0.6-0.9,1.1-1.6,1.4
	s-1.4,0.5-2.2,0.5c-1.4,0-2.6-0.4-3.4-1.3c-0.9-0.9-1.3-2.1-1.3-3.6v-0.3c0-1,0.2-1.9,0.6-2.7c0.4-0.8,0.9-1.4,1.6-1.8
	c0.7-0.4,1.5-0.7,2.3-0.7c1.4,0,2.4,0.4,3.1,1.3s1.1,2.1,1.1,3.7v0.9h-6.5V277z M306.8,275.1c0-0.7-0.2-1.3-0.6-1.7
	c-0.4-0.4-0.8-0.6-1.5-0.6c-0.6,0-1.1,0.2-1.5,0.6c-0.4,0.4-0.6,1-0.7,1.8h4.3L306.8,275.1L306.8,275.1z M298.5,273.2
	c-1,0-1.7,0.4-2.1,1.2v6.8h-2.2v-10h2.1l0.1,1.1c0.5-0.9,1.3-1.3,2.2-1.3c0.3,0,0.6,0,0.8,0.1v2.1
	C299.1,273.3,298.8,273.2,298.5,273.2z M289.7,280.2c-0.7,0.8-1.6,1.2-2.8,1.2c-1.1,0-1.9-0.3-2.5-0.9s-0.8-1.5-0.8-2.7v-6.5h2.2
	v6.4c0,1.3,0.5,1.9,1.6,1.9s1.8-0.4,2.2-1.2v-7.2h2.2v10h-2.1L289.7,280.2z M277.9,281.4c-1.1,0-2-0.4-2.6-1.1v4.7h-2.2v-13.8h2.1
	l0.1,1c0.7-0.8,1.5-1.2,2.7-1.2s2.2,0.5,2.9,1.4c0.7,0.9,1,2.2,1,3.8v0.1c0,1.5-0.3,2.8-1,3.7S279.1,281.4,277.9,281.4z M279,273.8
	c-0.4-0.6-1-0.9-1.7-0.9c-0.9,0-1.6,0.4-2,1.1v4.4c0.4,0.8,1.1,1.2,2,1.2c0.7,0,1.3-0.3,1.7-0.9c0.4-0.6,0.6-1.4,0.6-2.6
	C279.6,275.2,279.4,274.4,279,273.8z M268.6,274.7c0-0.6-0.1-1.1-0.4-1.4s-0.7-0.4-1.4-0.4c-0.5,0-0.9,0.1-1.2,0.4
	c-0.3,0.3-0.5,0.6-0.7,1.1v6.8h-2.2v-6.6c0-1.2-0.6-1.8-1.8-1.8c-0.9,0-1.5,0.4-1.9,1.1v7.2h-2.2v-10h2.1l0.1,1
	c0.7-0.8,1.7-1.2,2.9-1.2c1.3,0,2.2,0.5,2.7,1.5c0.7-1,1.7-1.5,3.1-1.5c1.1,0,1.9,0.3,2.5,0.9c0.5,0.6,0.8,1.5,0.8,2.7v6.5h-2.2
	v-6.3H268.6z M252.3,278.1h-5.2l-1.1,3.1h-2.4l5.1-13.4h2.1l5.1,13.4h-2.4L252.3,278.1z M249.7,270.7l-1.9,5.6h3.9L249.7,270.7z"/>
<path class="st3" d="M465,291.7c-0.3,1-0.8,2-1.4,2.8c-0.6,0.9-1.3,1.4-2,1.8l-0.4-1c0.8-0.6,1.4-1.5,1.8-2.7s0.7-2.6,0.7-4.1v-0.2
	c0-1.4-0.2-2.7-0.6-3.8c-0.4-1.1-0.9-2.1-1.6-2.8l-0.2-0.2l0.4-1c0.6,0.3,1.3,0.9,1.9,1.7s1.1,1.7,1.4,2.7s0.5,2,0.5,3v0.6
	C465.5,289.6,465.3,290.7,465,291.7z M458.2,287.5c0-0.5-0.1-0.9-0.3-1.1c-0.2-0.2-0.6-0.4-1.1-0.4c-0.7,0-1.3,0.3-1.6,1v5.8h-1.8
	v-8.2h1.7l0.1,0.9c0.6-0.7,1.4-1.1,2.4-1.1c1.7,0,2.6,1,2.6,2.9v5.4h-1.8v-5.2L458.2,287.5L458.2,287.5z M450.4,283.5
	c-0.3,0-0.6-0.1-0.8-0.3c-0.2-0.2-0.3-0.4-0.3-0.7c0-0.3,0.1-0.5,0.3-0.7c0.2-0.2,0.4-0.3,0.8-0.3c0.3,0,0.6,0.1,0.8,0.3
	c0.2,0.2,0.3,0.4,0.3,0.7c0,0.3-0.1,0.5-0.3,0.7C451,283.4,450.8,283.5,450.4,283.5z M445.7,287.5c0-0.5-0.1-0.9-0.3-1.1
	c-0.2-0.2-0.6-0.4-1.1-0.4c-0.4,0-0.8,0.1-1,0.3c-0.3,0.2-0.4,0.5-0.6,0.9v5.6h-1.8v-5.4c0-1-0.5-1.4-1.5-1.4
	c-0.7,0-1.3,0.3-1.6,0.9v5.9H436v-8.2h1.7l0.1,0.9c0.6-0.7,1.4-1,2.4-1c1.1,0,1.8,0.4,2.2,1.3c0.6-0.8,1.4-1.3,2.5-1.3
	c0.9,0,1.6,0.2,2,0.7s0.7,1.2,0.7,2.2v5.4h-1.8v-5.3H445.7z M430.7,293c-1.2,0-2.1-0.4-2.7-1.2c-0.6-0.8-0.9-1.9-0.9-3.5v-1.9
	c0-1.6,0.3-2.8,0.9-3.5c0.6-0.8,1.5-1.2,2.7-1.2s2.1,0.4,2.7,1.2c0.6,0.8,0.9,1.9,0.9,3.5v1.9c0,1.6-0.3,2.8-0.9,3.6
	C432.8,292.6,431.9,293,430.7,293z M432.4,286.1c0-1-0.1-1.8-0.4-2.3s-0.7-0.7-1.3-0.7c-0.6,0-1,0.2-1.3,0.7s-0.4,1.2-0.4,2.1v2.5
	c0,1,0.1,1.8,0.4,2.3s0.7,0.8,1.3,0.8c0.6,0,1-0.2,1.3-0.7s0.4-1.2,0.4-2.2V286.1z M425.4,289.7c0,1-0.3,1.8-1,2.4s-1.6,0.9-2.7,0.9
	s-1.9-0.3-2.6-0.8c-0.7-0.6-1-1.3-1-2.2h1.8c0,0.5,0.2,0.9,0.5,1.2c0.3,0.3,0.8,0.5,1.3,0.5c0.6,0,1-0.2,1.3-0.5s0.5-0.7,0.5-1.3
	c0-0.6-0.2-1-0.5-1.3s-0.8-0.5-1.5-0.5h-1.1v-1.4h1.1c0.6,0,1-0.2,1.3-0.4c0.3-0.3,0.5-0.7,0.5-1.2s-0.1-0.9-0.4-1.2
	c-0.3-0.3-0.7-0.4-1.3-0.4c-0.5,0-0.9,0.1-1.2,0.4c-0.3,0.3-0.5,0.7-0.5,1.1h-1.8c0-0.6,0.1-1.1,0.4-1.5c0.3-0.5,0.7-0.8,1.2-1.1
	s1.1-0.4,1.8-0.4c1.1,0,2,0.3,2.6,0.8s0.9,1.3,0.9,2.3c0,0.5-0.2,1-0.5,1.4s-0.7,0.8-1.2,1c0.6,0.2,1.1,0.5,1.4,1
	S425.4,289.1,425.4,289.7z M417.2,295.3l-0.4,1c-0.7-0.3-1.3-0.9-1.9-1.7c-0.6-0.8-1.1-1.8-1.4-2.8s-0.5-2.2-0.5-3.4
	c0-1.2,0.2-2.3,0.5-3.3s0.8-2,1.4-2.8s1.2-1.4,1.9-1.7l0.4,1.1c-0.7,0.5-1.3,1.4-1.7,2.5c-0.4,1.1-0.7,2.4-0.7,3.8v0.6
	c0,1.5,0.2,2.9,0.6,4.1C415.8,293.7,416.4,294.6,417.2,295.3z M451.4,292.8h-1.8v-8.2h1.8V292.8z"/>
<path class="st3" d="M495.4,271.8h-2.5l-2.7-5.2h-2.6v5.2h-2.3v-13.4h4.7c1.5,0,2.7,0.3,3.6,1c0.8,0.7,1.3,1.7,1.3,3
	c0,0.9-0.2,1.6-0.6,2.3c-0.4,0.6-1,1.1-1.8,1.4l3,5.6v0.1L495.4,271.8L495.4,271.8z M492.5,262.5c0-0.7-0.2-1.3-0.6-1.7
	c-0.4-0.4-1-0.6-1.8-0.6h-2.5v4.5h2.4c0.8,0,1.4-0.2,1.8-0.6C492.3,263.8,492.5,263.2,492.5,262.5z M475.7,269
	c0.5,0.8,1.3,1.1,2.3,1.1c0.9,0,1.6-0.2,2.1-0.6c0.5-0.4,0.8-1.1,0.9-2.1h2.3c-0.1,1.4-0.7,2.5-1.6,3.3c-0.9,0.8-2.1,1.2-3.7,1.2
	c-1.1,0-2-0.3-2.8-0.8s-1.4-1.2-1.9-2.2c-0.4-0.9-0.7-2-0.7-3.3v-1.3c0-1.3,0.2-2.4,0.7-3.3c0.4-1,1.1-1.7,1.9-2.2s1.8-0.8,2.9-0.8
	c1.5,0,2.7,0.4,3.6,1.2s1.4,1.9,1.6,3.4H481c-0.1-1-0.4-1.7-0.8-2.1c-0.5-0.4-1.1-0.6-2-0.6c-1,0-1.8,0.4-2.3,1.1
	c-0.5,0.7-0.8,1.8-0.8,3.3v1.2C474.9,267.1,475.2,268.2,475.7,269z M466.1,266.8h-2.8v5H461v-13.4h5.1c1.5,0,2.7,0.4,3.6,1.2
	s1.3,1.8,1.3,3.1s-0.4,2.3-1.3,3.1C468.8,266.5,467.6,266.8,466.1,266.8z M468,260.9c-0.4-0.4-1.1-0.7-1.8-0.7h-2.9v4.7h2.8
	c0.8,0,1.5-0.2,1.9-0.6c0.4-0.4,0.7-1,0.7-1.7C468.6,261.9,468.4,261.4,468,260.9z M449.2,275.7c-0.7,0-1.4-0.2-2.1-0.5
	s-1.2-0.7-1.6-1.2l1.1-1.3c0.7,0.8,1.5,1.2,2.5,1.2c0.7,0,1.3-0.2,1.8-0.6c0.4-0.4,0.6-1,0.6-1.8v-0.7c-0.6,0.7-1.5,1.1-2.6,1.1
	c-1.2,0-2.1-0.5-2.9-1.4c-0.7-0.9-1.1-2.2-1.1-3.9c0-1.5,0.4-2.8,1.1-3.7s1.7-1.4,2.9-1.4c1.1,0,2,0.4,2.7,1.2l0.1-1h2v9.7
	c0,1.3-0.4,2.3-1.2,3.1C451.7,275.3,450.6,275.7,449.2,275.7z M451.5,264.6c-0.4-0.8-1.1-1.1-2-1.1c-0.7,0-1.3,0.3-1.7,0.9
	c-0.4,0.6-0.6,1.4-0.6,2.6c0,1,0.2,1.8,0.6,2.4s1,0.9,1.7,0.9c0.9,0,1.6-0.4,2-1.2V264.6z M440.8,265.3c0-0.6-0.1-1.1-0.4-1.4
	s-0.7-0.5-1.3-0.5c-0.9,0-1.6,0.4-2,1.2v7.1h-2.2v-10h2.1l0.1,1.2c0.7-0.9,1.7-1.3,2.9-1.3c2.1,0,3.1,1.2,3.2,3.6v6.6H441v-6.5
	L440.8,265.3L440.8,265.3z M431.3,260.4c-0.4,0-0.7-0.1-0.9-0.3c-0.2-0.2-0.3-0.5-0.3-0.8s0.1-0.6,0.3-0.9c0.2-0.2,0.5-0.3,0.9-0.3
	s0.7,0.1,0.9,0.3c0.2,0.2,0.3,0.5,0.3,0.9c0,0.3-0.1,0.6-0.3,0.8C432,260.3,431.7,260.4,431.3,260.4z M426.2,271.8l-2-3.4l-2,3.4
	h-2.5l3.1-5.1l-3-4.9h2.5l1.9,3.3l1.9-3.3h2.5l-3,4.9l3.1,5.1H426.2z M413.1,269.5c0.5,0.5,1.1,0.7,1.8,0.7c1,0,1.9-0.4,2.5-1.2
	l1.2,1.2c-0.4,0.6-0.9,1.1-1.6,1.4c-0.7,0.3-1.4,0.5-2.2,0.5c-1.4,0-2.6-0.4-3.4-1.3c-0.9-0.9-1.3-2.1-1.3-3.6v-0.3
	c0-1,0.2-1.9,0.6-2.7s0.9-1.4,1.6-1.8c0.7-0.4,1.5-0.7,2.3-0.7c1.4,0,2.4,0.4,3.1,1.3c0.7,0.9,1.1,2.1,1.1,3.7v0.9h-6.5
	C412.4,268.3,412.7,269,413.1,269.5z M416.6,265.9v-0.2c0-0.7-0.2-1.3-0.6-1.7c-0.3-0.4-0.8-0.6-1.5-0.6c-0.6,0-1.1,0.2-1.5,0.6
	c-0.4,0.4-0.6,1-0.7,1.8L416.6,265.9L416.6,265.9z M406,270.8c-0.7,0.8-1.6,1.2-2.7,1.2c-1.2,0-2.1-0.5-2.8-1.4
	c-0.7-0.9-1.1-2.2-1.1-3.8c0-1.5,0.4-2.8,1.1-3.7s1.7-1.4,2.9-1.4c1.1,0,1.9,0.4,2.6,1.1v-5.1h2.2v14.1h-2L406,270.8z M405.9,264.7
	c-0.4-0.8-1.1-1.2-2-1.2c-0.7,0-1.3,0.3-1.7,0.9s-0.6,1.4-0.6,2.6c0,1,0.2,1.8,0.6,2.4s0.9,0.9,1.7,0.9c0.9,0,1.6-0.4,2-1.2V264.7z
	 M395.3,265.3c0-0.6-0.1-1.1-0.4-1.4c-0.3-0.3-0.7-0.5-1.3-0.5c-0.9,0-1.6,0.4-2,1.2v7.1h-2.2v-10h2.1l0.1,1.2
	c0.7-0.9,1.7-1.3,2.9-1.3c2.1,0,3.1,1.2,3.2,3.6v6.6h-2.2v-6.5L395.3,265.3L395.3,265.3z M384.3,258.4h2.3v13.4h-2.3V258.4z
	 M432.4,271.8h-2.2v-10h2.2V271.8z"/>
<path class="st3" d="M627.9,277c0.1,0.8,0.3,1.5,0.8,2s1.1,0.7,1.8,0.7c1,0,1.9-0.4,2.5-1.2l1.2,1.2c-0.4,0.6-0.9,1.1-1.6,1.4
	c-0.7,0.3-1.4,0.5-2.2,0.5c-1.4,0-2.6-0.4-3.4-1.3c-0.9-0.9-1.3-2.1-1.3-3.6v-0.3c0-1,0.2-1.9,0.6-2.7c0.4-0.8,0.9-1.4,1.6-1.8
	c0.7-0.4,1.5-0.7,2.3-0.7c1.4,0,2.4,0.4,3.1,1.3c0.7,0.9,1.1,2.1,1.1,3.7v0.9h-6.5L627.9,277L627.9,277z M632.2,275.1
	c0-0.7-0.2-1.3-0.6-1.7c-0.4-0.4-0.8-0.6-1.5-0.6c-0.6,0-1.1,0.2-1.5,0.6c-0.4,0.4-0.6,1-0.7,1.8h4.3V275.1z M623.9,273.2
	c-1,0-1.7,0.4-2.1,1.2v6.8h-2.2v-10h2.1l0.1,1.1c0.5-0.9,1.3-1.3,2.2-1.3c0.3,0,0.6,0,0.8,0.1v2.1
	C624.5,273.3,624.2,273.2,623.9,273.2z M615.1,280.2c-0.7,0.8-1.6,1.2-2.8,1.2c-1.1,0-1.9-0.3-2.5-0.9s-0.8-1.5-0.8-2.7v-6.5h2.2
	v6.4c0,1.3,0.5,1.9,1.6,1.9s1.8-0.4,2.2-1.2v-7.2h2.2v10h-2.1L615.1,280.2z M603.3,281.4c-1.1,0-2-0.4-2.6-1.1v4.7h-2.2v-13.8h2.1
	l0.1,1c0.7-0.8,1.5-1.2,2.7-1.2s2.2,0.5,2.9,1.4s1,2.2,1,3.8v0.1c0,1.5-0.3,2.8-1,3.7C605.5,281,604.5,281.4,603.3,281.4z
	 M604.4,273.8c-0.4-0.6-1-0.9-1.7-0.9c-0.9,0-1.6,0.4-2,1.1v4.4c0.4,0.8,1.1,1.2,2,1.2c0.7,0,1.3-0.3,1.7-0.9s0.6-1.4,0.6-2.6
	C605,275.2,604.8,274.4,604.4,273.8z M594,274.7c0-0.6-0.1-1.1-0.4-1.4c-0.3-0.3-0.7-0.4-1.4-0.4c-0.5,0-0.9,0.1-1.2,0.4
	c-0.3,0.3-0.5,0.6-0.7,1.1v6.8H588v-6.6c0-1.2-0.6-1.8-1.8-1.8c-0.9,0-1.5,0.4-1.9,1.1v7.2h-2.2v-10h2.1l0.1,1
	c0.7-0.8,1.7-1.2,2.9-1.2c1.3,0,2.2,0.5,2.7,1.5c0.7-1,1.7-1.5,3.1-1.5c1.1,0,1.9,0.3,2.5,0.9c0.5,0.6,0.8,1.5,0.8,2.7v6.5H594
	V274.7z M577.7,278.1h-5.2l-1.1,3.1H569l5.1-13.4h2.1l5.1,13.4h-2.4L577.7,278.1z M575.1,270.7l-1.9,5.6h3.9L575.1,270.7z"/>
<linearGradient id="SVGID_2_" gradientUnits="userSpaceOnUse" x1="241.8252" y1="397.9878" x2="241.8252" y2="398.9878" gradientTransform="matrix(123 0 0 -123 -28957 49293)">
	<stop  offset="0" style="stop-color:#1C3E54"/>
	<stop  offset="1" style="stop-color:#15CD94"/>
</linearGradient>
<path class="st4" d="M787.5,217.5c34,0,61.5,27.5,61.5,61.5s-27.5,61.5-61.5,61.5S726,313,726,279S753.5,217.5,787.5,217.5z"/>
<path class="st3" d="M812.3,285.5c-0.6,1.7-1.6,2.5-3.1,2.5c-0.3,0-0.7-0.1-1.1-0.2v-1.7h0.4c0.6,0,1-0.1,1.3-0.3
	c0.3-0.2,0.5-0.6,0.7-1l0.3-0.9l-3.5-9.9h2.4l2.1,6.8l2-6.8h2.4L812.3,285.5z M805.9,276c-1,0-1.7,0.4-2.1,1.2v6.8h-2.2v-10h2.1
	l0.1,1.1c0.5-0.9,1.3-1.3,2.2-1.3c0.3,0,0.6,0,0.8,0.1v2.1C806.5,276.1,806.2,276,805.9,276z M797.1,283.1c-0.7,0.7-1.6,1.1-2.6,1.1
	s-1.8-0.3-2.4-0.9c-0.6-0.6-0.9-1.3-0.9-2.1c0-1.1,0.4-1.9,1.2-2.4c0.8-0.6,1.9-0.9,3.4-0.9h1.4v-0.7c0-0.5-0.1-0.9-0.4-1.2
	c-0.3-0.3-0.7-0.5-1.3-0.5c-0.5,0-0.9,0.1-1.3,0.4c-0.3,0.3-0.5,0.6-0.5,1h-2.2c0-0.5,0.2-1.1,0.5-1.5s0.9-0.8,1.5-1.1
	s1.3-0.4,2.1-0.4c1.2,0,2.1,0.3,2.8,0.9s1,1.4,1.1,2.5v4.5c0,0.9,0.1,1.6,0.4,2.1v0.2h-2.3C797.2,283.8,797.2,283.5,797.1,283.1z
	 M797,279.3h-1.2c-0.8,0-1.5,0.1-1.9,0.4s-0.6,0.7-0.6,1.2c0,0.4,0.1,0.8,0.4,1c0.3,0.3,0.7,0.4,1.1,0.4c0.4,0,0.9-0.1,1.2-0.3
	s0.7-0.5,0.9-0.9L797,279.3L797,279.3z M789.3,276c-1,0-1.7,0.4-2.1,1.2v6.8H785v-10h2.1l0.1,1.1c0.5-0.9,1.3-1.3,2.2-1.3
	c0.3,0,0.6,0,0.8,0.1v2.1C790,276.1,789.7,276,789.3,276z M779.3,284.2c-1.2,0-2.1-0.4-2.7-1.3l-0.1,1.1h-2v-14.1h2.2v5.1
	c0.6-0.8,1.5-1.1,2.6-1.1c1.2,0,2.2,0.5,2.9,1.4s1,2.2,1,3.8v0.1c0,1.5-0.3,2.8-1,3.7C781.4,283.8,780.5,284.2,779.3,284.2z
	 M780.9,278.9c0-1.1-0.2-1.9-0.6-2.4c-0.4-0.5-0.9-0.8-1.7-0.8c-1,0-1.7,0.4-2,1.3v4.1c0.4,0.9,1.1,1.3,2.1,1.3
	c0.7,0,1.2-0.3,1.6-0.8c0.4-0.5,0.6-1.3,0.6-2.4L780.9,278.9L780.9,278.9z M770.9,272.7c-0.4,0-0.7-0.1-0.9-0.3s-0.3-0.5-0.3-0.8
	c0-0.3,0.1-0.6,0.3-0.9c0.2-0.2,0.5-0.3,0.9-0.3s0.7,0.1,0.9,0.3c0.2,0.2,0.3,0.5,0.3,0.9c0,0.3-0.1,0.6-0.3,0.8
	C771.6,272.5,771.3,272.7,770.9,272.7z M759.6,270.6h2.3v11.5h6.1v1.9h-8.4L759.6,270.6L759.6,270.6z M772,284h-2.2v-10h2.2V284z"/>
<path class="st5" d="M624.9,143.5c-0.3-0.3-0.7-0.4-1.3-0.4c-0.5,0-0.9,0.1-1.2,0.3c-0.3,0.2-0.5,0.5-0.5,0.9c0,0.3,0.1,0.6,0.4,0.8
	c0.3,0.2,0.9,0.4,1.8,0.6c0.9,0.2,1.6,0.4,2.1,0.7c0.5,0.3,0.9,0.6,1.1,1c0.2,0.4,0.4,0.8,0.4,1.4c0,0.9-0.4,1.6-1.1,2.2
	c-0.7,0.6-1.7,0.8-2.9,0.8c-0.8,0-1.5-0.1-2.2-0.4c-0.6-0.3-1.1-0.7-1.5-1.2s-0.5-1.1-0.5-1.7h2.2c0,0.5,0.2,0.9,0.6,1.2
	c0.4,0.3,0.9,0.4,1.5,0.4s1-0.1,1.3-0.3s0.5-0.5,0.5-0.9s-0.2-0.7-0.5-0.9s-0.9-0.4-1.6-0.6c-0.8-0.2-1.4-0.4-1.9-0.6
	c-1.1-0.5-1.7-1.3-1.7-2.3c0-0.9,0.4-1.6,1.1-2.2c0.7-0.6,1.6-0.9,2.8-0.9s2.2,0.3,2.9,0.9c0.7,0.6,1.1,1.4,1.1,2.3h-2.2
	C625.4,144.2,625.2,143.8,624.9,143.5z M616.4,140.2c-0.4,0-0.7-0.1-0.9-0.3c-0.2-0.2-0.3-0.5-0.3-0.8s0.1-0.6,0.3-0.9
	c0.2-0.2,0.5-0.3,0.9-0.3s0.7,0.1,0.9,0.3c0.2,0.2,0.3,0.5,0.3,0.9c0,0.3-0.1,0.6-0.3,0.8S616.8,140.2,616.4,140.2z M609.6,145.7
	c0.9,0.2,1.6,0.4,2.1,0.7c0.5,0.3,0.9,0.6,1.1,1c0.2,0.4,0.4,0.8,0.4,1.4c0,0.9-0.4,1.6-1.1,2.2c-0.7,0.6-1.7,0.8-2.9,0.8
	c-0.8,0-1.5-0.1-2.2-0.4c-0.6-0.3-1.1-0.7-1.5-1.2s-0.5-1.1-0.5-1.7h2.2c0,0.5,0.2,0.9,0.6,1.2c0.4,0.3,0.9,0.4,1.5,0.4
	s1-0.1,1.3-0.3s0.5-0.5,0.5-0.9s-0.2-0.7-0.5-0.9s-0.9-0.4-1.6-0.6c-0.8-0.2-1.4-0.4-1.9-0.6c-1.1-0.5-1.7-1.3-1.7-2.3
	c0-0.9,0.4-1.6,1.1-2.2c0.7-0.6,1.6-0.9,2.8-0.9s2.2,0.3,2.9,0.9c0.7,0.6,1.1,1.4,1.1,2.3h-2.2c0-0.4-0.2-0.8-0.5-1.1
	c-0.3-0.3-0.7-0.4-1.3-0.4c-0.5,0-0.9,0.1-1.2,0.3c-0.3,0.2-0.5,0.5-0.5,0.9c0,0.3,0.1,0.6,0.4,0.8
	C608.2,145.3,608.8,145.5,609.6,145.7z M597,155.6c-0.3,0-0.7-0.1-1.1-0.2v-1.7h0.4c0.6,0,1-0.1,1.3-0.3s0.5-0.6,0.7-1l0.3-0.9
	l-3.5-9.9h2.4l2.1,6.8l2-6.8h2.4l-4,11.5C599.5,154.7,598.5,155.6,597,155.6z M591.5,137.4h2.2v14.1h-2.2V137.4z M586.9,150.6
	c-0.7,0.7-1.6,1.1-2.6,1.1s-1.8-0.3-2.4-0.9c-0.6-0.6-0.9-1.3-0.9-2.1c0-1.1,0.4-1.9,1.2-2.4c0.8-0.6,1.9-0.9,3.4-0.9h1.4v-0.7
	c0-0.5-0.1-0.9-0.4-1.2c-0.3-0.3-0.7-0.5-1.3-0.5c-0.5,0-0.9,0.1-1.3,0.4c-0.3,0.3-0.5,0.6-0.5,1h-2.2c0-0.5,0.2-1.1,0.5-1.5
	c0.4-0.5,0.9-0.8,1.5-1.1c0.6-0.3,1.3-0.4,2.1-0.4c1.2,0,2.1,0.3,2.8,0.9s1,1.4,1.1,2.5v4.5c0,0.9,0.1,1.6,0.4,2.1v0.2h-2.3
	C587,151.4,587,151.1,586.9,150.6z M586.8,146.9h-1.2c-0.8,0-1.5,0.1-1.9,0.4s-0.6,0.7-0.6,1.2c0,0.4,0.1,0.8,0.4,1
	c0.3,0.3,0.7,0.4,1.1,0.4c0.4,0,0.9-0.1,1.2-0.3c0.4-0.2,0.7-0.5,0.9-0.9L586.8,146.9L586.8,146.9z M576.7,145.1
	c0-0.6-0.1-1.1-0.4-1.4c-0.3-0.3-0.7-0.5-1.3-0.5c-0.9,0-1.6,0.4-2,1.2v7.1h-2.2v-10h2.1l0.1,1.2c0.7-0.9,1.7-1.3,2.9-1.3
	c2.1,0,3.1,1.2,3.2,3.6v6.6h-2.2v-6.5L576.7,145.1L576.7,145.1z M566.3,148.4h-5.2l-1.1,3.1h-2.4l5.1-13.4h2.1l5.1,13.4h-2.4
	L566.3,148.4z M563.7,141l-1.9,5.6h3.9L563.7,141z M617.5,151.6h-2.2v-10h2.2V151.6z"/>
<path class="st5" d="M609.4,131.1c-0.1-0.2-0.2-0.5-0.3-0.9c-0.7,0.7-1.6,1.1-2.6,1.1s-1.8-0.3-2.5-0.9s-0.9-1.3-0.9-2.1
	c0-1.1,0.4-1.9,1.2-2.4s1.9-0.9,3.4-0.9h1.4v-0.7c0-0.5-0.1-0.9-0.4-1.2c-0.3-0.3-0.7-0.5-1.3-0.5c-0.5,0-0.9,0.1-1.3,0.4
	c-0.3,0.3-0.5,0.6-0.5,1h-2.2c0-0.5,0.2-1.1,0.5-1.5s0.9-0.8,1.5-1.1c0.6-0.3,1.3-0.4,2.1-0.4c1.2,0,2.1,0.3,2.8,0.9
	s1.1,1.4,1.1,2.5v4.5c0,0.9,0.1,1.6,0.4,2.1v0.2L609.4,131.1L609.4,131.1z M609,126.4h-1.2c-0.8,0-1.5,0.1-1.9,0.4s-0.6,0.7-0.6,1.2
	c0,0.4,0.1,0.8,0.4,1c0.3,0.3,0.7,0.4,1.1,0.4c0.4,0,0.9-0.1,1.2-0.3c0.4-0.2,0.7-0.5,0.9-0.9L609,126.4L609,126.4z M597.7,128.5
	v-5.6h-1.6v-1.7h1.6v-2.4h2.2v2.4h1.8v1.7H600v5.6c0,0.4,0.1,0.7,0.2,0.8c0.2,0.2,0.4,0.3,0.8,0.3c0.3,0,0.5,0,0.8-0.1v1.7
	c-0.5,0.1-1,0.2-1.5,0.2C598.6,131.3,597.7,130.4,597.7,128.5z M592.6,130.2c-0.7,0.7-1.6,1.1-2.6,1.1s-1.8-0.3-2.4-0.9
	c-0.6-0.6-0.9-1.3-0.9-2.1c0-1.1,0.4-1.9,1.2-2.4c0.8-0.6,1.9-0.9,3.4-0.9h1.4v-0.7c0-0.5-0.1-0.9-0.4-1.2c-0.3-0.3-0.7-0.5-1.3-0.5
	c-0.5,0-0.9,0.1-1.3,0.4c-0.3,0.3-0.5,0.6-0.5,1H587c0-0.5,0.2-1.1,0.5-1.5c0.4-0.5,0.9-0.8,1.5-1.1c0.6-0.3,1.3-0.4,2.1-0.4
	c1.2,0,2.1,0.3,2.8,0.9s1,1.4,1.1,2.5v4.5c0,0.9,0.1,1.6,0.4,2.1v0.2h-2.3C592.8,130.9,592.7,130.6,592.6,130.2z M592.6,126.4h-1.2
	c-0.8,0-1.5,0.1-1.9,0.4s-0.6,0.7-0.6,1.2c0,0.4,0.1,0.8,0.4,1c0.3,0.3,0.7,0.4,1.1,0.4c0.4,0,0.9-0.1,1.2-0.3
	c0.4-0.2,0.7-0.5,0.9-0.9L592.6,126.4L592.6,126.4z M581.9,130.3c-0.9,0.5-2,0.8-3.2,0.8h-3.9v-13.4h4c1.2,0,2.2,0.3,3.2,0.8
	c0.9,0.5,1.6,1.3,2.1,2.2c0.5,1,0.8,2.1,0.8,3.3v0.7c0,1.3-0.3,2.4-0.8,3.4C583.6,129.1,582.9,129.8,581.9,130.3z M582.5,124.1
	c0-1.5-0.3-2.6-0.9-3.3c-0.6-0.8-1.5-1.2-2.8-1.2h-1.6v9.7h1.5c1.2,0,2.2-0.4,2.8-1.1c0.7-0.8,1-1.9,1-3.3V124.1z"/>
<path class="st6" d="M620.4,66c-0.7,0-1.2-0.5-1.2-1.2V46c0-0.6,0.5-1.2,1.2-1.2s1.2,0.5,1.2,1.2v18.7C621.6,65.4,621.1,66,620.4,66
	z M611.4,61.3c-0.7,0-1.2-0.5-1.2-1.2v-6.4c0-0.6,0.5-1.2,1.2-1.2s1.2,0.5,1.2,1.2v6.4C612.6,60.7,612.1,61.3,611.4,61.3z
	 M602.5,63.6c-0.7,0-1.2-0.5-1.2-1.2V51.3c0-0.6,0.5-1.2,1.2-1.2s1.2,0.5,1.2,1.2v11.1C603.7,63.1,603.1,63.6,602.5,63.6z
	 M593.5,69.5c-0.7,0-1.2-0.5-1.2-1.2V45.4c0-0.6,0.5-1.2,1.2-1.2s1.2,0.5,1.2,1.2v22.8C594.7,68.9,594.2,69.5,593.5,69.5z
	 M584.5,63.6c-0.7,0-1.2-0.5-1.2-1.2V51.3c0-0.6,0.5-1.2,1.2-1.2s1.2,0.5,1.2,1.2v11.1C585.7,63.1,585.2,63.6,584.5,63.6z
	 M575.6,59.5c-0.7,0-1.2-0.5-1.2-1.2v-6.4c0-0.6,0.5-1.2,1.2-1.2s1.2,0.5,1.2,1.2v6.4C576.8,59,576.2,59.5,575.6,59.5z M566.6,66
	c-0.7,0-1.2-0.5-1.2-1.2V46c0-0.6,0.5-1.2,1.2-1.2s1.2,0.5,1.2,1.2v18.7C567.8,65.4,567.2,66,566.6,66z"/>
<path class="st7" d="M620.5,46.5c-1.6,0-2.9-1.3-2.9-2.8c0-1.6,1.3-2.8,2.9-2.8s2.9,1.3,2.9,2.8S622.1,46.5,620.5,46.5z M611.5,64.7
	c-1.6,0-2.9-1.3-2.9-2.8c0-1.6,1.3-2.8,2.9-2.8c1.6,0,2.9,1.3,2.9,2.8C614.4,63.5,613.1,64.7,611.5,64.7z M602.5,67.1
	c-1.6,0-2.9-1.3-2.9-2.8c0-1.6,1.3-2.8,2.9-2.8c1.6,0,2.9,1.3,2.9,2.8C605.4,65.8,604.1,67.1,602.5,67.1z M593.5,73
	c-1.6,0-2.9-1.3-2.9-2.8c0-1.6,1.3-2.8,2.9-2.8c1.6,0,2.9,1.3,2.9,2.8S595.1,73,593.5,73z M584.5,67.1c-1.6,0-2.9-1.3-2.9-2.8
	c0-1.6,1.3-2.8,2.9-2.8c1.6,0,2.9,1.3,2.9,2.8C587.4,65.8,586.1,67.1,584.5,67.1z M575.5,52.9c-1.6,0-2.9-1.3-2.9-2.8
	c0-1.6,1.3-2.8,2.9-2.8c1.6,0,2.9,1.3,2.9,2.8C578.4,51.7,577.1,52.9,575.5,52.9z M566.5,46.5c-1.6,0-2.9-1.3-2.9-2.8
	c0-1.6,1.3-2.8,2.9-2.8c1.6,0,2.9,1.3,2.9,2.8S568.1,46.5,566.5,46.5z"/>
<path class="st8" d="M620.4,72.4c-2,0-3.6-1.6-3.6-3.5s1.6-3.5,3.6-3.5s3.6,1.6,3.6,3.5S622.4,72.4,620.4,72.4z M611.4,54.2
	c-2,0-3.6-1.6-3.6-3.5c0-1.9,1.6-3.5,3.6-3.5s3.6,1.6,3.6,3.5C615,52.7,613.4,54.2,611.4,54.2z M602.5,51.9c-2,0-3.6-1.6-3.6-3.5
	s1.6-3.5,3.6-3.5s3.6,1.6,3.6,3.5S604.5,51.9,602.5,51.9z M593.5,46c-2,0-3.6-1.6-3.6-3.5s1.6-3.5,3.6-3.5s3.6,1.6,3.6,3.5
	C597.1,44.5,595.5,46,593.5,46z M584.5,51.9c-2,0-3.6-1.6-3.6-3.5s1.6-3.5,3.6-3.5s3.6,1.6,3.6,3.5S586.5,51.9,584.5,51.9z
	 M575.6,66c-2,0-3.6-1.6-3.6-3.5s1.6-3.5,3.6-3.5s3.6,1.6,3.6,3.5C579.1,64.4,577.5,66,575.6,66z M566.6,72.4c-2,0-3.6-1.6-3.6-3.5
	s1.6-3.5,3.6-3.5s3.6,1.6,3.6,3.5C570.2,70.8,568.6,72.4,566.6,72.4z"/>
<path class="st0" d="M673.9,126.7l10.3,10.3l-10.3,10.3V126.7z"/>
<path class="st5" d="M814,129.2c0.2,0.2,0.4,0.3,0.8,0.3c0.3,0,0.5,0,0.8-0.1v1.7c-0.5,0.1-1,0.2-1.5,0.2c-1.7,0-2.6-0.9-2.6-2.8
	v-5.6h-1.6v-1.7h1.6v-2.4h2.2v2.4h1.8v1.7h-1.8v5.6C813.8,128.8,813.9,129,814,129.2z M808.2,123.1c-1,0-1.7,0.4-2.1,1.2v6.8h-2.2
	v-10h2.1l0.1,1.1c0.5-0.9,1.3-1.3,2.2-1.3c0.3,0,0.6,0,0.8,0.1v2.1C808.8,123.2,808.5,123.1,808.2,123.1z M799.8,130.7
	c-0.7,0.4-1.5,0.6-2.4,0.6c-1.4,0-2.5-0.5-3.4-1.4c-0.8-0.9-1.3-2.2-1.3-3.7v-0.1c0-1,0.2-1.9,0.6-2.6c0.4-0.8,0.9-1.4,1.6-1.8
	c0.7-0.4,1.5-0.6,2.4-0.6c1.3,0,2.4,0.4,3.3,1.3c0.8,0.9,1.3,2,1.4,3.4v0.5c0,1-0.2,1.9-0.6,2.6
	C801.1,129.7,800.5,130.2,799.8,130.7z M799.1,123.7c-0.4-0.6-1-0.9-1.8-0.9c-0.7,0-1.3,0.3-1.7,0.9s-0.6,1.4-0.6,2.6
	c0,1,0.2,1.8,0.6,2.4s1,0.9,1.8,0.9s1.3-0.3,1.8-0.9c0.4-0.6,0.6-1.5,0.6-2.6C799.8,125,799.6,124.2,799.1,123.7z M787.4,131.3
	c-1.1,0-2-0.4-2.6-1.1v4.7h-2.2v-13.7h2.1l0.1,1c0.7-0.8,1.6-1.2,2.7-1.2c1.2,0,2.2,0.5,2.9,1.4s1,2.2,1,3.8v0.1
	c0,1.5-0.4,2.8-1,3.7C789.5,130.8,788.6,131.3,787.4,131.3z M788.5,123.7c-0.4-0.6-1-0.9-1.7-0.9c-0.9,0-1.6,0.4-2,1.1v4.4
	c0.4,0.8,1.1,1.2,2,1.2c0.7,0,1.3-0.3,1.7-0.9c0.4-0.6,0.6-1.4,0.6-2.6C789,125.1,788.8,124.3,788.5,123.7z M775.1,128.8
	c0.5,0.5,1.1,0.7,1.8,0.7c1,0,1.9-0.4,2.5-1.2l1.2,1.2c-0.4,0.6-0.9,1.1-1.6,1.4c-0.7,0.3-1.4,0.5-2.2,0.5c-1.4,0-2.6-0.4-3.4-1.3
	c-0.9-0.9-1.3-2.1-1.3-3.6v-0.3c0-1,0.2-1.9,0.6-2.7c0.4-0.8,0.9-1.4,1.6-1.8c0.7-0.4,1.5-0.7,2.3-0.7c1.4,0,2.4,0.4,3.1,1.3
	c0.7,0.9,1.1,2.1,1.1,3.7v0.9h-6.5C774.4,127.7,774.6,128.3,775.1,128.8z M778.6,125.2V125c0-0.7-0.2-1.3-0.6-1.7s-0.8-0.6-1.5-0.6
	c-0.6,0-1.1,0.2-1.5,0.6s-0.6,1-0.7,1.8L778.6,125.2L778.6,125.2z M765.8,126h-2.6v5.2h-2.3v-13.5h4.7c1.5,0,2.7,0.3,3.6,1
	c0.8,0.7,1.3,1.7,1.3,3c0,0.9-0.2,1.6-0.6,2.3c-0.4,0.6-1,1.1-1.8,1.4l3,5.6v0.1h-2.5L765.8,126z M768.1,121.9
	c0-0.7-0.2-1.3-0.6-1.7c-0.4-0.4-1-0.6-1.8-0.6h-2.5v4.5h2.4c0.8,0,1.4-0.2,1.8-0.6C767.9,123.1,768.1,122.6,768.1,121.9z
	 M751.3,117h2.2v14.1h-2.2V117z M746.6,130.2c-0.7,0.7-1.6,1.1-2.6,1.1s-1.8-0.3-2.4-0.9c-0.6-0.6-0.9-1.3-0.9-2.1
	c0-1.1,0.4-1.9,1.2-2.4c0.8-0.6,1.9-0.9,3.4-0.9h1.4v-0.7c0-0.5-0.1-0.9-0.4-1.2c-0.3-0.3-0.7-0.5-1.3-0.5c-0.5,0-0.9,0.1-1.3,0.4
	c-0.3,0.3-0.5,0.6-0.5,1H741c0-0.5,0.2-1.1,0.5-1.5s0.9-0.8,1.5-1.1c0.6-0.3,1.3-0.4,2.1-0.4c1.2,0,2.1,0.3,2.8,0.9s1,1.4,1.1,2.5
	v4.5c0,0.9,0.1,1.6,0.4,2.1v0.2h-2.3C746.8,130.9,746.7,130.6,746.6,130.2z M746.6,126.4h-1.2c-0.8,0-1.5,0.1-1.9,0.4
	s-0.6,0.7-0.6,1.2c0,0.4,0.1,0.8,0.4,1c0.3,0.3,0.7,0.4,1.1,0.4c0.4,0,0.9-0.1,1.2-0.3c0.4-0.2,0.7-0.5,0.9-0.9L746.6,126.4
	L746.6,126.4z M736.4,124.7c0-0.6-0.1-1.1-0.4-1.4s-0.7-0.5-1.3-0.5c-0.9,0-1.6,0.4-2,1.2v7.1h-2.2v-10h2.1l0.1,1.2
	c0.7-0.9,1.7-1.3,2.9-1.3c2.1,0,3.1,1.2,3.2,3.6v6.6h-2.2v-6.5L736.4,124.7L736.4,124.7z M726.9,119.8c-0.4,0-0.7-0.1-0.9-0.3
	c-0.2-0.2-0.3-0.5-0.3-0.8s0.1-0.6,0.3-0.9c0.2-0.2,0.5-0.3,0.9-0.3s0.7,0.1,0.9,0.3c0.2,0.2,0.3,0.5,0.3,0.9c0,0.3-0.1,0.6-0.3,0.8
	C727.6,119.6,727.3,119.8,726.9,119.8z M717.8,123.6h5.4v1.9h-5.4v5.7h-2.3v-13.5h8.5v1.9h-6.2V123.6z M728,131.1h-2.2v-10h2.2
	V131.1z"/>
<path class="st6" d="M731,88.1V34.9h57v53.2H731z M745.2,36.6h-12.5V42h12.5V36.6z M786.2,36.6H747V42h39.2V36.6z M786.2,43.7h-53.4
	v42.6h53.4V43.7z M782.7,56.2h-46.3v-8.9h46.3V56.2z M780.9,49.1h-42.8v5.3h42.8V49.1z M782.7,77.5h-46.3V57.9h46.3V77.5z
	 M780.9,59.7h-42.8v16h42.8V59.7z"/>
<path class="st9" d="M742.6,40.2c-0.5,0-0.9-0.4-0.9-0.9s0.4-0.9,0.9-0.9s0.9,0.4,0.9,0.9S743.1,40.2,742.6,40.2z M739,40.2
	c-0.5,0-0.9-0.4-0.9-0.9s0.4-0.9,0.9-0.9s0.9,0.4,0.9,0.9S739.5,40.2,739,40.2z M735.5,40.2c-0.5,0-0.9-0.4-0.9-0.9s0.4-0.9,0.9-0.9
	s0.9,0.4,0.9,0.9C736.3,39.8,735.9,40.2,735.5,40.2z"/>
<path class="st10" d="M748.8,40.2v-1.8h35.6v1.8H748.8z M750.6,52.6h-10.7v-1.8h10.7V52.6z M779.1,63.3h-39.2v-1.8h39.2V63.3z
	 M779.1,66.8h-39.2V65h39.2V66.8z M761.3,70.4h-21.4v-1.8h21.4V70.4z M782.7,81H772v-1.8h10.7V81z"/>
<path class="st5" d="M478.2,123.2c-0.3,0-0.6-0.1-0.9-0.1c-1,0-1.7,0.4-2.1,1.2v6.8H473v-10h2.1l0.1,1.1c0.5-0.9,1.3-1.3,2.2-1.3
	c0.3,0,0.6,0,0.8,0.1V123.2z M465.6,128.8c0.5,0.5,1.1,0.7,1.8,0.7c1,0,1.9-0.4,2.5-1.2l1.2,1.2c-0.4,0.6-0.9,1.1-1.6,1.4
	c-0.7,0.3-1.4,0.5-2.2,0.5c-1.4,0-2.6-0.4-3.4-1.3c-0.9-0.9-1.3-2.1-1.3-3.6v-0.3c0-1,0.2-1.9,0.6-2.7c0.4-0.8,0.9-1.4,1.6-1.8
	s1.5-0.7,2.3-0.7c1.4,0,2.4,0.4,3.1,1.3s1.1,2.1,1.1,3.7v0.9h-6.5C464.9,127.7,465.1,128.3,465.6,128.8z M469.1,125.2V125
	c0-0.7-0.2-1.3-0.6-1.7s-0.8-0.6-1.5-0.6c-0.6,0-1.1,0.2-1.5,0.6s-0.6,1-0.7,1.8L469.1,125.2L469.1,125.2z M455.4,128.7
	c0.4,0.5,1,0.8,1.7,0.8c0.6,0,1-0.2,1.4-0.5s0.6-0.7,0.6-1.2h2.1c0,0.6-0.2,1.2-0.6,1.7s-0.9,1-1.5,1.3s-1.3,0.5-2,0.5
	c-1.4,0-2.5-0.5-3.3-1.4c-0.8-0.9-1.2-2.1-1.2-3.7V126c0-1.5,0.4-2.7,1.2-3.6c0.8-0.9,1.9-1.4,3.3-1.4c1.2,0,2.1,0.3,2.9,1
	c0.7,0.7,1.1,1.6,1.2,2.7h-2.1c0-0.6-0.2-1-0.6-1.4s-0.8-0.6-1.4-0.6c-0.7,0-1.3,0.3-1.7,0.8s-0.6,1.3-0.6,2.4v0.4
	C454.9,127.4,455.1,128.2,455.4,128.7z M448.5,124.7c0-0.6-0.1-1.1-0.4-1.4s-0.7-0.5-1.3-0.5c-0.9,0-1.6,0.4-2,1.2v7.1h-2.2v-10h2.1
	l0.1,1.2c0.7-0.9,1.7-1.3,2.9-1.3c2.1,0,3.1,1.2,3.2,3.6v6.6h-2.2v-6.5L448.5,124.7L448.5,124.7z M435.1,128.8
	c0.5,0.5,1.1,0.7,1.8,0.7c1,0,1.9-0.4,2.5-1.2l1.2,1.2c-0.4,0.6-0.9,1.1-1.6,1.4c-0.7,0.3-1.4,0.5-2.2,0.5c-1.4,0-2.6-0.4-3.4-1.3
	c-0.9-0.9-1.3-2.1-1.3-3.6v-0.3c0-1,0.2-1.9,0.6-2.7c0.4-0.8,0.9-1.4,1.6-1.8s1.5-0.7,2.3-0.7c1.4,0,2.4,0.4,3.1,1.3
	s1.1,2.1,1.1,3.7v0.9h-6.5C434.4,127.7,434.6,128.3,435.1,128.8z M438.6,125.2V125c0-0.7-0.2-1.3-0.6-1.7c-0.4-0.4-0.8-0.6-1.5-0.6
	c-0.6,0-1.1,0.2-1.5,0.6s-0.6,1-0.7,1.8L438.6,125.2L438.6,125.2z M428,130.1c-0.7,0.8-1.6,1.2-2.8,1.2c-1.1,0-1.9-0.3-2.5-0.9
	s-0.8-1.5-0.8-2.7v-6.5h2.2v6.4c0,1.3,0.5,1.9,1.6,1.9s1.8-0.4,2.2-1.2v-7.2h2.2v10H428V130.1z M417.3,130.3c-0.7,0.7-1.5,1-2.5,1
	c-1.2,0-2.1-0.5-2.9-1.4c-0.8-0.9-1.1-2.2-1.1-3.9c0-1.6,0.4-2.8,1.1-3.7s1.7-1.4,2.9-1.4c1.1,0,2,0.4,2.6,1.2l0.1-1h2V135h-2.2
	V130.3z M417.3,123.9c-0.4-0.7-1.1-1.1-2-1.1c-0.7,0-1.3,0.3-1.7,0.9c-0.4,0.6-0.6,1.4-0.6,2.6c0,1,0.2,1.8,0.6,2.4
	c0.4,0.6,1,0.9,1.7,0.9c0.9,0,1.5-0.4,2-1.1V123.9z M403.8,128.8c0.5,0.5,1.1,0.7,1.8,0.7c1,0,1.9-0.4,2.5-1.2l1.2,1.2
	c-0.4,0.6-0.9,1.1-1.6,1.4c-0.7,0.3-1.4,0.5-2.2,0.5c-1.4,0-2.6-0.4-3.4-1.3c-0.9-0.9-1.3-2.1-1.3-3.6v-0.3c0-1,0.2-1.9,0.6-2.7
	c0.4-0.8,0.9-1.4,1.6-1.8s1.5-0.7,2.3-0.7c1.4,0,2.4,0.4,3.1,1.3s1.1,2.1,1.1,3.7v0.9H403C403.1,127.7,403.3,128.3,403.8,128.8z
	 M407.3,125.2V125c0-0.7-0.2-1.3-0.6-1.7s-0.8-0.6-1.5-0.6c-0.6,0-1.1,0.2-1.5,0.6s-0.6,1-0.7,1.8L407.3,125.2L407.3,125.2z
	 M395,123.4c1,0.3,1.9,0.7,2.5,1.1s1.1,0.9,1.4,1.4s0.4,1.1,0.4,1.8c0,1.1-0.4,2-1.3,2.7c-0.9,0.7-2,1-3.5,1c-1,0-1.9-0.2-2.7-0.5
	c-0.8-0.4-1.4-0.9-1.9-1.5c-0.5-0.6-0.7-1.4-0.7-2.2h2.3c0,0.8,0.3,1.3,0.8,1.8c0.5,0.4,1.2,0.6,2.2,0.6c0.8,0,1.4-0.2,1.8-0.5
	s0.6-0.8,0.6-1.3c0-0.6-0.2-1-0.6-1.4c-0.4-0.3-1.2-0.6-2.2-1c-1.1-0.3-1.9-0.7-2.6-1.1c-1.2-0.8-1.8-1.8-1.8-3c0-1.1,0.4-2,1.3-2.7
	s2-1.1,3.4-1.1c0.9,0,1.8,0.2,2.5,0.5s1.3,0.8,1.7,1.5c0.4,0.6,0.6,1.3,0.6,2.1H397c0-0.7-0.2-1.2-0.7-1.6c-0.4-0.4-1.1-0.6-1.9-0.6
	s-1.4,0.2-1.8,0.5s-0.6,0.8-0.6,1.4c0,0.5,0.2,0.9,0.7,1.2S393.9,123.1,395,123.4z"/>
<path class="st0" d="M521.3,126.7l10.3,10.3l-10.3,10.3V126.7z"/>
<path class="st6" d="M482.1,43.7V29.8c0-2.1-1.8-3.9-3.9-3.9h-39.5c-2.2,0-3.9,1.7-3.9,3.9v16.9H406c-3.4,0-4.9,2.1-4.9,4.1v28.3
	c0,2.1,1.5,4.1,4.9,4.1h71.2c3.4,0,4.9-2.1,4.9-4.1V44C482.1,43.9,482.1,43.8,482.1,43.7z M477.2,81.4H406c-1.9,0-3.1-0.9-3.1-2.3
	V50.8c0-1.4,1.2-2.3,3.1-2.3h30.7v-1.9V29.8c0-1.1,0.9-1.9,2-1.9h39.5c1.1,0,2,0.9,2,1.9v49.3C480.3,80.5,479.1,81.4,477.2,81.4z"/>
<path class="st10" d="M474.4,58.3h-31.3c-1.2,0-2.1-0.9-2.1-2.1V33.6c0-1.1,0.9-2.1,2.1-2.1h31.3c1.2,0,2.1,0.9,2.1,2.1v22.7
	C476.5,57.4,475.6,58.3,474.4,58.3z M474.4,33.6h-31.3v22.7h31.3V33.6z M472.3,54.2H466v-2.1h4.2V37.7h-23v14.4h4.2v2.1h-6.3V35.6
	h27.2L472.3,54.2L472.3,54.2z"/>
<path class="st7" d="M461.9,54.2v-2.1h2.1v2.1H461.9z M457.7,52.1h2.1v2.1h-2.1V52.1z M453.5,52.1h2.1v2.1h-2.1V52.1z"/>
<path class="st6" d="M300.4,80.8h-52.7c-3.7,0-6.6-2.9-6.6-6.6V55c0-0.6,0.5-1.1,1.1-1.1h6.1V39.3h-1.5c-0.6,0-1.1-0.5-1.1-1.1v-4.8
	c0-0.6,0.5-1.1,1.1-1.1h15.7c0.6,0,1.1,0.5,1.1,1.1v4.7c0,0.6-0.5,1.1-1.1,1.1H261v31.3c0,3.5-2.9,6.3-6.4,6.3s-6.4-2.8-6.4-6.3
	V56.1h-4.9v18.1c0,2.4,2,4.3,4.4,4.3h52.7c2.4,0,4.4-1.9,4.4-4.3V56.1h-4.9v14.4c0,3.5-2.9,6.3-6.4,6.3s-6.4-2.8-6.4-6.3V39.3h-1.5
	c-0.6,0-1.1-0.5-1.1-1.1v-4.8c0-0.6,0.5-1.1,1.1-1.1h15.7c0.6,0,1.1,0.5,1.1,1.1v4.7c0,0.6-0.5,1.1-1.1,1.1h-1.5v14.7h6
	c0.6,0,1.1,0.5,1.1,1.1v19.2C307,77.9,304,80.8,300.4,80.8z M250.4,44.8v1.3v4.6V52v4.8v1.3v4.6V64v1.9h8.3V38.3h-8.3L250.4,44.8
	L250.4,44.8z M261.3,37v-2.5h-13.5V37H261.3z M289.4,44.8v1.3v4.6V52v4.8v1.3v4.6V64v1.9h8.3V38.3h-8.3V44.8z M300.2,37v-2.5h-13.5
	V37H300.2z M281.9,39.1h-1.5v31.3c0,3.5-2.9,6.3-6.4,6.3s-6.4-2.8-6.4-6.3V39.1h-1.5c-0.6,0-1.1-0.5-1.1-1.1v-4.7
	c0-0.6,0.5-1.1,1.1-1.1h15.7c0.6,0,1.1,0.5,1.1,1.1V38C283,38.6,282.5,39.1,281.9,39.1z M269.9,44.7V46v4.6v1.3v4.8V58v4.6V64v2h8.3
	V38.2h-8.3V44.7z M280.7,34.4h-13.5v2.5h13.5V34.4z"/>
<path class="st10" d="M293.3,74.1c-2.3,0-4.2-2.3-4.2-5.2v-2.7h8.3v2.7C297.4,71.8,295.6,74.1,293.3,74.1z M274,74.1
	c-2.3,0-4.2-2.3-4.2-5.2v-2.7h8.3v2.7C278.2,71.8,276.3,74.1,274,74.1z M254.7,74.1c-2.3,0-4.2-2.3-4.2-5.2v-2.7h8.3v2.7
	C258.9,71.8,257,74.1,254.7,74.1z"/>
<path class="st7" d="M289.3,58.4v-1.2h1.4c0.4,0,0.7,0.3,0.7,0.6c0,0.2-0.1,0.5-0.3,0.6C291.1,58.4,289.3,58.4,289.3,58.4z
	 M289.3,52.4v-1.2h1.4c0.4,0,0.7,0.3,0.7,0.6c0,0.2-0.1,0.4-0.3,0.6C291.1,52.4,289.3,52.4,289.3,52.4z M289.3,46.4v-1.2h1.4
	c0.4,0,0.7,0.3,0.7,0.6c0,0.2-0.1,0.5-0.3,0.6H289.3z M270,64.3v-1.2h1.4c0.4,0,0.7,0.3,0.7,0.6c0,0.2-0.1,0.5-0.3,0.6
	C271.8,64.3,270,64.3,270,64.3z M270,58.4v-1.2h1.4c0.4,0,0.7,0.3,0.7,0.6c0,0.2-0.1,0.5-0.3,0.6C271.8,58.4,270,58.4,270,58.4z
	 M270,52.4v-1.2h1.4c0.4,0,0.7,0.3,0.7,0.6c0,0.2-0.1,0.4-0.3,0.6C271.8,52.4,270,52.4,270,52.4z M270,46.4v-1.2h1.4
	c0.4,0,0.7,0.3,0.7,0.6c0,0.2-0.1,0.5-0.3,0.6H270z M250.6,64.3v-1.2h1.4c0.4,0,0.7,0.3,0.7,0.6c0,0.2-0.1,0.5-0.3,0.6
	C252.4,64.3,250.6,64.3,250.6,64.3z M250.6,58.4v-1.2h1.4c0.4,0,0.7,0.3,0.7,0.6c0,0.2-0.1,0.5-0.3,0.6
	C252.4,58.4,250.6,58.4,250.6,58.4z M250.6,52.4v-1.2h1.4c0.4,0,0.7,0.3,0.7,0.6c0,0.2-0.1,0.4-0.3,0.6
	C252.4,52.4,250.6,52.4,250.6,52.4z M250.6,46.4v-1.2h1.4c0.4,0,0.7,0.3,0.7,0.6c0,0.2-0.1,0.5-0.3,0.6H250.6z M290.7,63.1
	c0.4,0,0.7,0.3,0.7,0.6c0,0.2-0.1,0.5-0.3,0.6h-1.7v-1.2C289.4,63.1,290.7,63.1,290.7,63.1z"/>
<path class="st0" d="M347.3,126.7l10.3,10.3l-10.3,10.3V126.7z"/>
<path class="st5" d="M291.8,149.9c-0.7,0.9-1.6,1.4-2.8,1.4c-1.1,0-2-0.4-2.6-1.1v4.7h-2.2v-13.8h2.1l0.1,1c0.7-0.8,1.6-1.2,2.7-1.2
	c1.2,0,2.2,0.5,2.9,1.4c0.7,0.9,1,2.2,1,3.8v0.1C292.8,147.8,292.5,149,291.8,149.9z M290,143.7c-0.4-0.6-1-0.9-1.7-0.9
	c-0.9,0-1.6,0.4-2,1.1v4.4c0.4,0.8,1.1,1.2,2,1.2c0.7,0,1.3-0.3,1.7-0.9c0.4-0.6,0.6-1.4,0.6-2.6C290.6,145.1,290.4,144.3,290,143.7
	z M276.7,148.8c0.5,0.5,1.1,0.7,1.8,0.7c1,0,1.9-0.4,2.5-1.2l1.2,1.2c-0.4,0.6-0.9,1.1-1.6,1.4c-0.7,0.3-1.4,0.5-2.2,0.5
	c-1.4,0-2.6-0.4-3.4-1.3c-0.9-0.9-1.3-2.1-1.3-3.6v-0.3c0-1,0.2-1.9,0.6-2.7c0.4-0.8,0.9-1.4,1.6-1.8c0.7-0.4,1.5-0.7,2.3-0.7
	c1.4,0,2.4,0.4,3.1,1.3c0.7,0.9,1.1,2.1,1.1,3.7v0.9h-6.5C275.9,147.7,276.2,148.3,276.7,148.8z M280.1,145.2V145
	c0-0.7-0.2-1.3-0.6-1.7c-0.4-0.4-0.8-0.6-1.5-0.6c-0.6,0-1.1,0.2-1.5,0.6s-0.6,1-0.7,1.8L280.1,145.2L280.1,145.2z M271.8,143.1
	c-1,0-1.7,0.4-2.1,1.2v6.8h-2.2v-10h2.1l0.1,1.1c0.5-0.9,1.3-1.3,2.2-1.3c0.3,0,0.6,0,0.8,0.1v2.1
	C272.4,143.2,272.1,143.1,271.8,143.1z M260.8,146.2H258v5h-2.3v-13.4h5.1c1.5,0,2.7,0.4,3.6,1.2c0.9,0.8,1.3,1.8,1.3,3.1
	s-0.4,2.3-1.3,3.1C263.5,145.8,262.3,146.2,260.8,146.2z M262.7,140.3c-0.4-0.4-1-0.7-1.8-0.7H258v4.7h2.8c0.8,0,1.5-0.2,1.9-0.6
	c0.4-0.4,0.7-1,0.7-1.7C263.4,141.3,263.1,140.7,262.7,140.3z"/>
<path class="st5" d="M317.5,122.7v-3.4l-1.1,3.4h-0.6l-1.1-3.4v3.4h-1v-5h1.3l1.2,3.5l1.2-3.5h1.2v5H317.5z M311.7,122.7h-1.1v-4.1
	h-1.3v-0.9h3.6v0.9h-1.3L311.7,122.7L311.7,122.7z M303.7,131.3c-1.1,0-2-0.4-2.6-1.1v4.7h-2.2v-13.7h2.1l0.1,1
	c0.7-0.8,1.5-1.2,2.7-1.2s2.2,0.5,2.9,1.4s1,2.2,1,3.8v0.1c0,1.5-0.4,2.8-1.1,3.7C305.8,130.8,304.9,131.3,303.7,131.3z
	 M304.8,123.7c-0.4-0.6-1-0.9-1.7-0.9c-0.9,0-1.6,0.4-2,1.1v4.4c0.4,0.8,1.1,1.2,2,1.2c0.7,0,1.3-0.3,1.7-0.9
	c0.4-0.6,0.6-1.4,0.6-2.6C305.3,125.1,305.1,124.3,304.8,123.7z M294.3,124.6c0-0.6-0.1-1.1-0.4-1.4s-0.7-0.4-1.4-0.4
	c-0.5,0-0.9,0.1-1.2,0.4c-0.3,0.3-0.5,0.6-0.7,1.1v6.8h-2.2v-6.6c0-1.2-0.6-1.8-1.8-1.8c-0.9,0-1.5,0.4-1.9,1.1v7.2h-2.2v-10h2.1
	l0.1,1c0.7-0.8,1.7-1.2,2.9-1.2c1.3,0,2.2,0.5,2.7,1.5c0.7-1,1.7-1.5,3.1-1.5c1.1,0,1.9,0.3,2.5,0.9c0.5,0.6,0.8,1.5,0.8,2.7v6.5
	h-2.2v-6.3C294.5,124.6,294.3,124.6,294.3,124.6z M277.9,130.2c-0.7,0.7-1.6,1.1-2.6,1.1s-1.8-0.3-2.5-0.9c-0.6-0.6-0.9-1.3-0.9-2.1
	c0-1.1,0.4-1.9,1.2-2.4s1.9-0.9,3.4-0.9h1.4v-0.7c0-0.5-0.1-0.9-0.4-1.2c-0.3-0.3-0.7-0.5-1.3-0.5c-0.5,0-0.9,0.1-1.3,0.4
	c-0.3,0.3-0.5,0.6-0.5,1h-2.2c0-0.5,0.2-1.1,0.5-1.5s0.9-0.8,1.5-1.1c0.6-0.3,1.3-0.4,2.1-0.4c1.2,0,2.1,0.3,2.8,0.9
	c0.7,0.6,1.1,1.4,1.1,2.5v4.5c0,0.9,0.1,1.6,0.4,2.1v0.2h-2.3C278.1,130.9,278,130.6,277.9,130.2z M277.9,126.4h-1.2
	c-0.8,0-1.5,0.1-1.9,0.4s-0.6,0.7-0.6,1.2c0,0.4,0.1,0.8,0.4,1c0.3,0.3,0.7,0.4,1.1,0.4s0.9-0.1,1.2-0.3c0.4-0.2,0.7-0.5,0.9-0.9
	v-1.8C277.8,126.4,277.9,126.4,277.9,126.4z M267.4,126.7l0.2-5.9l-4,10.3H262l-4-10.3l0.2,5.9v4.4h-2.3v-13.4h3l3.9,10.3l3.9-10.3
	h3v13.4h-2.3L267.4,126.7L267.4,126.7z M250.8,117.7h2.3v13.4h-2.3V117.7z M240.4,117.7h2.3v11.6h6.1v1.9h-8.4L240.4,117.7
	L240.4,117.7z M234,123.4c1,0.3,1.9,0.7,2.5,1.1s1.1,0.9,1.4,1.4c0.3,0.5,0.4,1.1,0.4,1.8c0,1.1-0.4,2-1.3,2.7c-0.9,0.7-2,1-3.5,1
	c-1,0-1.9-0.2-2.7-0.5c-0.8-0.4-1.4-0.9-1.9-1.5c-0.5-0.6-0.7-1.4-0.7-2.2h2.3c0,0.8,0.3,1.3,0.8,1.8c0.5,0.4,1.2,0.6,2.2,0.6
	c0.8,0,1.4-0.2,1.8-0.5c0.4-0.3,0.6-0.8,0.6-1.3c0-0.6-0.2-1-0.6-1.4c-0.4-0.3-1.2-0.6-2.2-1c-1.1-0.3-1.9-0.7-2.6-1.1
	c-1.2-0.8-1.8-1.8-1.8-3c0-1.1,0.4-2,1.3-2.7c0.9-0.7,2-1.1,3.4-1.1c0.9,0,1.8,0.2,2.5,0.5s1.3,0.8,1.7,1.5c0.4,0.6,0.6,1.3,0.6,2.1
	H236c0-0.7-0.2-1.2-0.7-1.6c-0.4-0.4-1.1-0.6-1.9-0.6c-0.8,0-1.4,0.2-1.8,0.5c-0.4,0.3-0.6,0.8-0.6,1.4c0,0.5,0.2,0.9,0.7,1.2
	S233,123.1,234,123.4z"/>
<path class="st0" d="M194.7,126.7L205,137l-10.3,10.3V126.7z"/>
<path class="st6" d="M120,55.5c-12-2.4-12-2.4-12-2.4c0-15.2,0-15.2,0-15.2c12,0,12,0,12,0V55.5z M123.5,35c-19,0-19,0-19,0
	c-1,0-1.5,0.5-1.5,1.4c0,0.5,0.5,1.4,1.5,1.4s1,0,1,0c0,28.1,0,28.1,0,28.1c0,4.3,3.5,8.1,8.5,8.1c2.5,0,4.5-1,6-2.4
	c2-1.4,2.5-3.8,2.5-5.7c0-28.1,0-28.1,0-28.1c1,0,1,0,1,0c1,0,1.5-1,1.5-1.4C125,35.5,124.5,35,123.5,35z"/>
<path class="st8" d="M117,46c-0.6,0-1-0.4-1-1s0.4-1,1-1s1,0.4,1,1S117.6,46,117,46z M112,51c-1.1,0-2-0.9-2-2s0.9-2,2-2s2,0.9,2,2
	S113.1,51,112,51z M112.5,43c-0.8,0-1.5-0.7-1.5-1.5s0.7-1.5,1.5-1.5s1.5,0.7,1.5,1.5S113.3,43,112.5,43z"/>
<path class="st5" d="M133.7,151.1l-1.1-3.1h-5.2l-1.1,3.1h-2.4l5.1-13.4h2.1l5.1,13.4H133.7z M130,140.6l-1.9,5.6h3.9L130,140.6z
	 M113.9,141.6v9.5h-2.3v-13.4h2.3l6,9.6v-9.6h2.3v13.4h-2.3L113.9,141.6z M106.3,150.3c-0.9,0.5-2,0.8-3.2,0.8h-3.9v-13.4h4
	c1.2,0,2.2,0.3,3.2,0.8c0.9,0.5,1.6,1.3,2.1,2.2c0.5,1,0.8,2.1,0.8,3.3v0.7c0,1.3-0.3,2.4-0.8,3.4S107.2,149.8,106.3,150.3z
	 M106.9,144.1c0-1.5-0.3-2.6-0.9-3.3c-0.6-0.8-1.6-1.2-2.8-1.2h-1.6v9.7h1.5c1.2,0,2.2-0.4,2.8-1.1c0.7-0.8,1-1.9,1-3.3V144.1z"/>
<path class="st5" d="M147.8,131.1l-0.1-1c-0.7,0.8-1.6,1.2-2.7,1.2c-1.2,0-2.1-0.5-2.8-1.4s-1.1-2.2-1.1-3.8c0-1.5,0.4-2.8,1.1-3.7
	c0.7-0.9,1.7-1.4,2.9-1.4c1.1,0,1.9,0.4,2.6,1.1V117h2.2v14.1H147.8z M147.6,124c-0.4-0.8-1.1-1.2-2-1.2c-0.7,0-1.3,0.3-1.7,0.9
	s-0.6,1.4-0.6,2.6c0,1,0.2,1.8,0.6,2.4c0.4,0.6,0.9,0.9,1.7,0.9c0.9,0,1.6-0.4,2-1.2V124z M134.1,128.8c0.5,0.5,1.1,0.7,1.8,0.7
	c1,0,1.9-0.4,2.5-1.2l1.2,1.2c-0.4,0.6-0.9,1.1-1.6,1.4c-0.7,0.3-1.4,0.5-2.2,0.5c-1.4,0-2.6-0.4-3.4-1.3c-0.9-0.9-1.3-2.1-1.3-3.6
	v-0.3c0-1,0.2-1.9,0.6-2.7c0.4-0.8,0.9-1.4,1.6-1.8c0.7-0.4,1.5-0.7,2.3-0.7c1.4,0,2.4,0.4,3.1,1.3c0.7,0.9,1.1,2.1,1.1,3.7v0.9
	h-6.5C133.3,127.7,133.6,128.3,134.1,128.8z M137.6,125.2V125c0-0.7-0.2-1.3-0.6-1.7c-0.3-0.4-0.8-0.6-1.5-0.6
	c-0.6,0-1.1,0.2-1.5,0.6s-0.6,1-0.7,1.8L137.6,125.2L137.6,125.2z M125.7,128.5v-5.6H124v-1.7h1.6v-2.4h2.2v2.4h1.8v1.7h-1.8v5.6
	c0,0.4,0.1,0.7,0.2,0.8c0.2,0.2,0.4,0.3,0.8,0.3c0.3,0,0.5,0,0.8-0.1v1.7c-0.5,0.1-1,0.2-1.5,0.2
	C126.5,131.3,125.7,130.4,125.7,128.5z M120.6,130.2c-0.7,0.7-1.6,1.1-2.6,1.1s-1.8-0.3-2.4-0.9s-0.9-1.3-0.9-2.1
	c0-1.1,0.4-1.9,1.2-2.4s1.9-0.9,3.4-0.9h1.4v-0.7c0-0.5-0.1-0.9-0.4-1.2c-0.3-0.3-0.7-0.5-1.3-0.5c-0.5,0-0.9,0.1-1.3,0.4
	c-0.3,0.3-0.5,0.6-0.5,1H115c0-0.5,0.2-1.1,0.5-1.5c0.4-0.5,0.9-0.8,1.5-1.1c0.6-0.3,1.3-0.4,2.1-0.4c1.2,0,2.1,0.3,2.8,0.9
	c0.7,0.6,1.1,1.4,1.1,2.5v4.5c0,0.9,0.1,1.6,0.4,2.1v0.2h-2.3C120.8,130.9,120.7,130.6,120.6,130.2z M120.5,126.4h-1.2
	c-0.8,0-1.5,0.1-1.9,0.4s-0.6,0.7-0.6,1.2c0,0.4,0.1,0.8,0.4,1c0.3,0.3,0.7,0.4,1.1,0.4s0.9-0.1,1.2-0.3c0.4-0.2,0.7-0.5,0.9-0.9
	L120.5,126.4L120.5,126.4z M110.2,117h2.2v14.1h-2.2V117z M106,130.7c-0.7,0.4-1.5,0.6-2.4,0.6c-1.4,0-2.5-0.5-3.4-1.4
	c-0.8-0.9-1.3-2.2-1.3-3.7v-0.1c0-1,0.2-1.9,0.6-2.6c0.4-0.8,0.9-1.4,1.6-1.8s1.5-0.6,2.4-0.6c1.3,0,2.4,0.4,3.3,1.3
	c0.8,0.9,1.3,2,1.4,3.4v0.5c0,1-0.2,1.9-0.6,2.6C107.3,129.7,106.7,130.2,106,130.7z M105.3,123.7c-0.4-0.6-1-0.9-1.8-0.9
	c-0.7,0-1.3,0.3-1.7,0.9c-0.4,0.6-0.6,1.4-0.6,2.6c0,1,0.2,1.8,0.6,2.4s1,0.9,1.8,0.9s1.3-0.3,1.8-0.9c0.4-0.6,0.6-1.5,0.6-2.6
	C106,125,105.8,124.2,105.3,123.7z M93.9,125.3c0.9,0.2,1.6,0.4,2.1,0.7c0.5,0.3,0.9,0.6,1.1,1s0.4,0.8,0.4,1.4
	c0,0.9-0.4,1.6-1.1,2.2c-0.7,0.6-1.7,0.8-2.9,0.8c-0.8,0-1.5-0.1-2.2-0.4c-0.6-0.3-1.1-0.7-1.5-1.2s-0.5-1.1-0.5-1.7h2.2
	c0,0.5,0.2,0.9,0.6,1.2s0.9,0.4,1.5,0.4s1-0.1,1.3-0.3c0.3-0.2,0.5-0.5,0.5-0.9s-0.2-0.7-0.5-0.9c-0.3-0.2-0.9-0.4-1.6-0.6
	c-0.8-0.2-1.4-0.4-1.9-0.6c-1.1-0.5-1.7-1.3-1.7-2.3c0-0.9,0.4-1.6,1.1-2.2s1.6-0.9,2.8-0.9c1.2,0,2.2,0.3,2.9,0.9
	c0.7,0.6,1.1,1.4,1.1,2.3h-2.2c0-0.4-0.2-0.8-0.5-1.1c-0.3-0.3-0.7-0.4-1.3-0.4c-0.5,0-0.9,0.1-1.2,0.3c-0.3,0.2-0.5,0.5-0.5,0.9
	c0,0.3,0.1,0.6,0.4,0.8C92.4,124.9,93,125.1,93.9,125.3z M84.7,117.7H87v13.4h-2.3V117.7z"/>
</svg>
