<?xml version="1.0" encoding="utf-8"?>
<!-- Generator: Adobe Illustrator 21.1.0, SVG Export Plug-In . SVG Version: 6.00 Build 0)  -->
<!DOCTYPE svg PUBLIC "-//W3C//DTD SVG 1.1//EN" "http://www.w3.org/Graphics/SVG/1.1/DTD/svg11.dtd">
<svg version="1.1" id="Layer_1" xmlns="http://www.w3.org/2000/svg" xmlns:xlink="http://www.w3.org/1999/xlink" x="0px" y="0px"
	 viewBox="0 0 348 123" style="enable-background:new 0 0 348 123;" xml:space="preserve">
<style type="text/css">
	.st0,.st1,.st2{fill:#ffffff;}
</style>
<linearGradient id="SVGID_1_" gradientUnits="userSpaceOnUse" x1="58.7235" y1="104.1371" x2="58.7235" y2="19.5161">
	<stop  offset="0" style="stop-color:#1C3952"/>
	<stop  offset="1" style="stop-color:#15CD94"/>
</linearGradient>
<path class="st0" d="M58.6,8.2c-30.4,0-54.8,24.6-54.8,55c0,8.5,1.9,16.5,5.4,23.7c4.2,0,10.6,0,18.1,0V44.2c0-0.4,0.3-0.7,0.7-0.7
	h17.7c0.4,0,0.7,0.3,0.7,0.7v42.7c8.2,0,16.6,0,24.6,0V44.2c0-0.4,0.3-0.7,0.7-0.7h17.7c0.4,0,0.7,0.3,0.7,0.7v42.7
	c10.9,0,18.4,0,18.4,0c3.3-7.4,5.4-15.5,5.2-24.1C113.4,32.7,88.8,8,58.6,8.2z M29,41.7c0,0.2-0.1,0.3-0.3,0.3h-0.8
	c-0.2,0-0.3-0.1-0.3-0.3v-1.9c0-0.2,0.1-0.3,0.3-0.3h0.8c0.2,0,0.3,0.1,0.3,0.3V41.7z M34.8,41.7c0,0.2-0.1,0.3-0.3,0.3h-0.8
	c-0.2,0-0.3-0.1-0.3-0.3v-1.9c0-0.2,0.1-0.3,0.3-0.3h0.8c0.2,0,0.3,0.1,0.3,0.3V41.7z M40.5,41.7c0,0.2-0.1,0.3-0.3,0.3h-0.8
	c-0.2,0-0.3-0.1-0.3-0.3v-1.9c0-0.2,0.1-0.3,0.3-0.3h0.8c0.2,0,0.3,0.1,0.3,0.3V41.7z M46.3,41.7c0,0.2-0.1,0.3-0.3,0.3h-0.8
	c-0.2,0-0.3-0.1-0.3-0.3v-1.9c0-0.2,0.1-0.3,0.3-0.3H46c0.2,0,0.3,0.1,0.3,0.3V41.7z M50.2,32.2c-1.1,0-3.6,2.5-3.8,5
	c0,0.1,0,0.1-0.1,0.1c-0.2,0.2-0.2,0.3-0.4,0.3H27.8c-0.1,0-0.5,0-0.5-0.4c-0.1-2.4-2.9-5-3.8-5c-0.1,0-0.2-0.1-0.2-0.2
	s0.1-0.2,0.2-0.2h26.6c0.1,0,0.2,0.1,0.2,0.2S50.3,32.2,50.2,32.2z M72.7,41.7c0,0.2-0.1,0.3-0.3,0.3h-0.8c-0.2,0-0.3-0.1-0.3-0.3
	v-1.9c0-0.2,0.1-0.3,0.3-0.3h0.8c0.2,0,0.3,0.1,0.3,0.3V41.7z M78.4,41.7c0,0.2-0.1,0.3-0.3,0.3h-0.8c-0.2,0-0.3-0.1-0.3-0.3v-1.9
	c0-0.2,0.1-0.3,0.3-0.3h0.8c0.2,0,0.3,0.1,0.3,0.3V41.7z M84.2,41.7c0,0.2-0.1,0.3-0.3,0.3h-0.8c-0.2,0-0.3-0.1-0.3-0.3v-1.9
	c0-0.2,0.1-0.3,0.3-0.3h0.8c0.2,0,0.3,0.1,0.3,0.3V41.7z M90,41.7c0,0.2-0.1,0.3-0.3,0.3h-0.8c-0.2,0-0.3-0.1-0.3-0.3v-1.9
	c0-0.2,0.1-0.3,0.3-0.3h0.8c0.2,0,0.3,0.1,0.3,0.3V41.7z M93.9,32.2c-1.1,0-3.6,2.5-3.8,5c0,0.1,0,0.1-0.1,0.1
	c-0.2,0.2-0.2,0.3-0.4,0.3H71.5c-0.1,0-0.5,0-0.5-0.4c-0.1-2.4-2.9-5-3.8-5c-0.1,0-0.2-0.1-0.2-0.2s0.1-0.2,0.2-0.2h26.6
	c0.1,0,0.2,0.1,0.2,0.2S94,32.2,93.9,32.2z"/>
<linearGradient id="SVGID_2_" gradientUnits="userSpaceOnUse" x1="58.7235" y1="104.1371" x2="58.7235" y2="19.5161">
	<stop  offset="0" style="stop-color:#1C3952"/>
	<stop  offset="1" style="stop-color:#12B17F"/>
	<stop  offset="1" style="stop-color:#000000"/>
</linearGradient>
<path class="st1" d="M11.8,91.8c1.5,2.2,3,4.3,4.6,6.3c1.5,1.7,3,3.3,4.6,5c2.6,2.2,5.2,4.4,8.2,6.3c3.1,2,6.5,3.7,9.8,5
	c6.1,2.4,12.8,3.7,19.8,3.7c6.9,0,13.5-1.3,19.6-3.7c3.5-1.3,6.9-3,9.8-5c3-1.9,5.7-4.1,8.1-6.3c1.7-1.7,3.3-3.3,4.6-5
	c1.7-2,3.3-4.1,4.6-6.3C11.8,91.8,11.8,91.8,11.8,91.8z"/>
<g>
	<path class="st2" d="M137.9,44.9c-0.4,0-0.8,0-1.1,0c-0.4,0-0.7,0-1-0.1v9h-4.2V30.8h6.7c1.1,0,2.1,0,2.9,0.1
		c0.8,0.1,1.6,0.2,2.2,0.4c1.6,0.5,2.8,1.3,3.6,2.3s1.3,2.4,1.3,4c0,1.1-0.2,2.1-0.7,3c-0.5,0.9-1.1,1.6-2,2.3
		c-0.9,0.6-2,1.1-3.2,1.4C141,44.8,139.5,44.9,137.9,44.9z M135.7,41.3c0.2,0,0.5,0.1,0.9,0.1c0.4,0,0.8,0,1.2,0
		c1.1,0,2.1-0.1,2.9-0.3c0.8-0.2,1.4-0.4,1.9-0.8s0.8-0.7,1-1.2s0.3-1,0.3-1.5c0-0.7-0.2-1.3-0.5-1.8c-0.3-0.5-0.9-0.9-1.6-1.2
		c-0.4-0.1-0.9-0.2-1.5-0.3c-0.6-0.1-1.3-0.1-2.2-0.1h-2.4V41.3z"/>
	<path class="st2" d="M152.7,53.9V30.8h4.2v23.1H152.7z"/>
	<path class="st2" d="M166.7,30.8v19.5h10.8v3.5h-15V30.8H166.7z"/>
	<path class="st2" d="M185.6,30.8v19.5h10.8v3.5h-15V30.8H185.6z"/>
	<path class="st2" d="M213.6,48h-8.7l-2.3,5.9h-4.5l9.2-23.1h3.9l9.2,23.1h-4.5L213.6,48z M209.2,36.4c-0.8,2.4-1.5,4.4-2.2,6
		l-0.8,2.1h6l-0.8-2.1C210.8,40.8,210.1,38.8,209.2,36.4L209.2,36.4z"/>
	<path class="st2" d="M240.7,37.7c0,1.6-0.4,3-1.3,4.1c-0.9,1.1-2.3,2-4.1,2.5v0.1l6.9,9.5H237l-6.3-8.9h-2.9v8.9h-4.2V30.8h7
		c1.2,0,2.2,0.1,3.2,0.2c1,0.1,1.9,0.3,2.6,0.6c1.4,0.5,2.4,1.3,3.1,2.3C240.3,34.9,240.7,36.2,240.7,37.7z M229.9,41.4
		c1,0,1.8,0,2.5-0.1c0.7-0.1,1.2-0.2,1.7-0.4c0.9-0.3,1.4-0.8,1.8-1.3c0.3-0.6,0.5-1.2,0.5-1.9c0-0.6-0.1-1.2-0.4-1.6
		c-0.3-0.5-0.7-0.9-1.3-1.1c-0.4-0.2-0.9-0.3-1.5-0.4c-0.6-0.1-1.4-0.1-2.3-0.1h-3v7.1H229.9z"/>
	<path class="st2" d="M148.2,75.1c0,1-0.2,1.9-0.7,2.7c-0.4,0.8-1.2,1.5-2.2,2.1V80c0.6,0.2,1.1,0.4,1.6,0.7
		c0.5,0.3,0.9,0.7,1.2,1.1c0.3,0.4,0.6,0.9,0.8,1.4c0.2,0.5,0.3,1.1,0.3,1.8c0,0.6-0.1,1.2-0.3,1.8c-0.2,0.6-0.5,1.3-0.9,1.9
		c-0.4,0.6-1,1.2-1.8,1.7c-0.7,0.5-1.7,0.9-2.8,1.2c-0.3,0.1-0.6,0.1-0.9,0.2c-0.3,0.1-0.7,0.1-1.1,0.1c-0.4,0-0.9,0.1-1.4,0.1
		c-0.5,0-1.1,0-1.7,0h-6.7V69h8c1.7,0,3.1,0.2,4.1,0.5c0.8,0.3,1.5,0.6,2,1c0.6,0.4,1,0.9,1.4,1.4c0.4,0.5,0.6,1,0.8,1.6
		C148.1,74,148.2,74.6,148.2,75.1z M139.5,78.5c1.1,0,2-0.1,2.6-0.3c0.6-0.3,1.1-0.6,1.4-1.1c0.3-0.5,0.4-1,0.4-1.6
		c0-0.6-0.2-1.2-0.5-1.6c-0.3-0.5-0.8-0.8-1.6-1.1c-0.3-0.1-0.7-0.2-1.1-0.2c-0.4,0-0.9-0.1-1.5-0.1h-3.5v6H139.5z M135.7,82v6.5
		h2.8c0.7,0,1.4,0,1.9-0.1c0.5,0,1-0.1,1.4-0.2c0.6-0.1,1.1-0.3,1.5-0.5c0.4-0.2,0.7-0.5,0.9-0.7c0.2-0.3,0.4-0.6,0.5-0.9
		c0.1-0.3,0.2-0.7,0.2-1c0-0.6-0.2-1.2-0.5-1.7c-0.4-0.5-0.9-0.8-1.7-1.1c-0.3-0.1-0.7-0.2-1.2-0.2c-0.4,0-1-0.1-1.7-0.1H135.7z"/>
	<path class="st2" d="M153.5,92V69h4.2V92H153.5z"/>
	<path class="st2" d="M184.7,80.5c0,1.8-0.3,3.4-0.7,4.8c-0.5,1.5-1.2,2.7-2.2,3.8c-1,1.1-2.1,1.9-3.5,2.5c-1.4,0.6-3,0.9-4.8,0.9
		s-3.4-0.3-4.8-0.9c-1.4-0.6-2.6-1.4-3.5-2.5c-1-1.1-1.7-2.3-2.2-3.8c-0.5-1.5-0.7-3.1-0.7-4.8c0-1.8,0.2-3.4,0.7-4.8
		c0.5-1.5,1.2-2.7,2.2-3.8c1-1.1,2.1-1.9,3.5-2.5c1.4-0.6,3-0.9,4.8-0.9s3.4,0.3,4.8,0.9c1.4,0.6,2.6,1.4,3.5,2.5
		c1,1.1,1.7,2.3,2.2,3.8C184.4,77.1,184.7,78.8,184.7,80.5z M180.3,80.5c0-1.4-0.2-2.6-0.5-3.7c-0.3-1.1-0.8-1.9-1.4-2.6
		c-0.6-0.7-1.3-1.2-2.2-1.6c-0.8-0.3-1.8-0.5-2.8-0.5s-1.9,0.2-2.8,0.5c-0.8,0.3-1.6,0.9-2.2,1.6c-0.6,0.7-1.1,1.6-1.4,2.6
		c-0.3,1.1-0.5,2.3-0.5,3.7c0,1.4,0.2,2.6,0.5,3.7c0.3,1.1,0.8,1.9,1.4,2.6c0.6,0.7,1.3,1.2,2.2,1.6c0.8,0.4,1.8,0.5,2.8,0.5
		s1.9-0.2,2.8-0.5c0.8-0.4,1.6-0.9,2.2-1.6c0.6-0.7,1.1-1.6,1.4-2.6C180.1,83.1,180.3,81.9,180.3,80.5z"/>
	<path class="st2" d="M200.5,85.4c0-0.6-0.1-1.1-0.4-1.4c-0.3-0.4-0.7-0.7-1.2-0.9c-0.5-0.2-1-0.4-1.7-0.6c-0.6-0.1-1.3-0.3-1.9-0.4
		c-0.9-0.2-1.8-0.4-2.6-0.7c-0.8-0.3-1.5-0.6-2.2-1.1c-0.6-0.5-1.1-1.1-1.5-1.8c-0.4-0.7-0.6-1.7-0.6-2.8c0-1.2,0.2-2.3,0.6-3.2
		c0.4-0.9,1-1.6,1.7-2.2s1.6-1,2.6-1.3c1-0.3,2.1-0.4,3.3-0.4c1.2,0,2.5,0.1,3.7,0.4c1.2,0.2,2.3,0.6,3.2,0.9v3.6
		c-1.2-0.5-2.3-0.8-3.4-1c-1.1-0.2-2.1-0.3-3.1-0.3c-1.4,0-2.5,0.3-3.2,0.8c-0.8,0.5-1.1,1.3-1.1,2.3c0,0.6,0.1,1.1,0.4,1.4
		c0.2,0.4,0.6,0.7,1,0.9c0.4,0.2,0.9,0.4,1.5,0.6c0.6,0.1,1.1,0.3,1.8,0.4c1,0.2,1.9,0.4,2.8,0.7c0.9,0.3,1.7,0.6,2.4,1.1
		c0.7,0.5,1.2,1.1,1.6,1.9c0.4,0.8,0.6,1.8,0.6,3c0,1.2-0.2,2.3-0.7,3.2c-0.5,0.9-1.1,1.7-2,2.2c-0.8,0.6-1.9,1-3.1,1.3
		c-1.2,0.3-2.5,0.4-4,0.4c-1.3,0-2.5-0.1-3.7-0.4s-2.2-0.6-3-1v-3.6c1.1,0.5,2.2,0.9,3.3,1.1c1.1,0.2,2.2,0.3,3.3,0.3
		c0.7,0,1.3-0.1,2-0.2c0.6-0.1,1.2-0.3,1.7-0.6c0.5-0.3,0.9-0.6,1.2-1.1C200.3,86.6,200.5,86.1,200.5,85.4z"/>
	<path class="st2" d="M220.8,72.1c-1.1,0-2.2,0.2-3.2,0.6c-1,0.4-1.8,0.9-2.5,1.7c-0.7,0.7-1.2,1.6-1.6,2.7
		c-0.4,1.1-0.6,2.3-0.6,3.6c0,1.4,0.2,2.5,0.5,3.6c0.4,1,0.9,1.9,1.5,2.6c0.7,0.7,1.5,1.2,2.4,1.6c1,0.4,2,0.5,3.3,0.5
		c0.9,0,1.8-0.1,2.7-0.2c0.9-0.1,1.8-0.3,2.6-0.6v3.6c-0.8,0.2-1.7,0.4-2.6,0.5c-0.9,0.1-1.9,0.2-2.9,0.2c-2,0-3.7-0.3-5.2-0.8
		c-1.5-0.6-2.7-1.3-3.7-2.4s-1.7-2.2-2.2-3.7c-0.5-1.4-0.7-3-0.7-4.7c0-1.8,0.3-3.4,0.8-4.9c0.5-1.5,1.3-2.8,2.3-3.9
		c1-1.1,2.3-2,3.8-2.6c1.5-0.6,3.2-1,5.1-1c1,0,1.9,0.1,2.8,0.2c0.9,0.1,1.7,0.3,2.4,0.6v3.6c-0.9-0.3-1.8-0.5-2.6-0.6
		C222.3,72.2,221.5,72.1,220.8,72.1z"/>
	<path class="st2" d="M230.2,92V69h4.2V92H230.2z"/>
	<path class="st2" d="M244.1,88.5h11.3V92h-15.6V69h14.9v3.5h-10.7v6h9.2V82h-9.2V88.5z"/>
	<path class="st2" d="M272,79.7c1.7,2.4,3,4.4,4,6.3h0.1c-0.1-3-0.2-5.2-0.2-6.5V69h4.2V92h-4.4l-7.5-10.6c-1.3-1.8-2.7-4-4.1-6.4
		H264c0.1,2.8,0.2,5,0.2,6.6V92H260V69h4.4L272,79.7z"/>
	<path class="st2" d="M296.9,72.1c-1.1,0-2.2,0.2-3.2,0.6c-1,0.4-1.8,0.9-2.5,1.7c-0.7,0.7-1.2,1.6-1.6,2.7
		c-0.4,1.1-0.6,2.3-0.6,3.6c0,1.4,0.2,2.5,0.5,3.6c0.4,1,0.9,1.9,1.5,2.6c0.7,0.7,1.5,1.2,2.4,1.6c1,0.4,2,0.5,3.3,0.5
		c0.9,0,1.8-0.1,2.7-0.2c0.9-0.1,1.8-0.3,2.6-0.6v3.6c-0.8,0.2-1.7,0.4-2.6,0.5c-0.9,0.1-1.9,0.2-2.9,0.2c-2,0-3.7-0.3-5.2-0.8
		c-1.5-0.6-2.7-1.3-3.7-2.4c-1-1-1.7-2.2-2.2-3.7c-0.5-1.4-0.7-3-0.7-4.7c0-1.8,0.3-3.4,0.8-4.9c0.5-1.5,1.3-2.8,2.3-3.9
		c1-1.1,2.3-2,3.8-2.6c1.5-0.6,3.2-1,5.1-1c1,0,1.9,0.1,2.8,0.2c0.9,0.1,1.7,0.3,2.4,0.6v3.6c-0.9-0.3-1.8-0.5-2.6-0.6
		C298.4,72.2,297.6,72.1,296.9,72.1z"/>
	<path class="st2" d="M310.5,88.5h11.3V92h-15.6V69h14.9v3.5h-10.7v6h9.2V82h-9.2V88.5z"/>
	<path class="st2" d="M337.7,85.4c0-0.6-0.1-1.1-0.4-1.4c-0.3-0.4-0.7-0.7-1.2-0.9c-0.5-0.2-1-0.4-1.7-0.6c-0.6-0.1-1.3-0.3-1.9-0.4
		c-0.9-0.2-1.8-0.4-2.6-0.7c-0.8-0.3-1.5-0.6-2.2-1.1c-0.6-0.5-1.1-1.1-1.5-1.8c-0.4-0.7-0.6-1.7-0.6-2.8c0-1.2,0.2-2.3,0.6-3.2
		c0.4-0.9,1-1.6,1.7-2.2s1.6-1,2.6-1.3c1-0.3,2.1-0.4,3.3-0.4c1.2,0,2.5,0.1,3.7,0.4c1.2,0.2,2.3,0.6,3.2,0.9v3.6
		c-1.2-0.5-2.3-0.8-3.4-1c-1.1-0.2-2.1-0.3-3.1-0.3c-1.4,0-2.5,0.3-3.2,0.8c-0.8,0.5-1.1,1.3-1.1,2.3c0,0.6,0.1,1.1,0.4,1.4
		c0.2,0.4,0.6,0.7,1,0.9c0.4,0.2,0.9,0.4,1.5,0.6c0.6,0.1,1.1,0.3,1.8,0.4c1,0.2,1.9,0.4,2.8,0.7c0.9,0.3,1.7,0.6,2.4,1.1
		c0.7,0.5,1.2,1.1,1.6,1.9c0.4,0.8,0.6,1.8,0.6,3c0,1.2-0.2,2.3-0.7,3.2c-0.5,0.9-1.1,1.7-2,2.2c-0.8,0.6-1.9,1-3.1,1.3
		c-1.2,0.3-2.5,0.4-4,0.4c-1.3,0-2.5-0.1-3.7-0.4c-1.2-0.2-2.2-0.6-3-1v-3.6c1.1,0.5,2.2,0.9,3.3,1.1s2.2,0.3,3.3,0.3
		c0.7,0,1.3-0.1,2-0.2c0.6-0.1,1.2-0.3,1.7-0.6c0.5-0.3,0.9-0.6,1.2-1.1C337.5,86.6,337.7,86.1,337.7,85.4z"/>
</g>
</svg>
